<?xml version="1.0" encoding="UTF-8" standalone="no"?>
<svg
   xmlns:dc="http://purl.org/dc/elements/1.1/"
   xmlns:cc="http://creativecommons.org/ns#"
   xmlns:rdf="http://www.w3.org/1999/02/22-rdf-syntax-ns#"
   xmlns:svg="http://www.w3.org/2000/svg"
   xmlns="http://www.w3.org/2000/svg"
   xmlns:sodipodi="http://sodipodi.sourceforge.net/DTD/sodipodi-0.dtd"
   xmlns:inkscape="http://www.inkscape.org/namespaces/inkscape"
   width="1000"
   height="640"
   viewBox="0 0 264.58334 169.33334"
   version="1.1"
   id="svg8"
   inkscape:version="1.0.1 (c497b03c, 2020-09-10)"
   sodipodi:docname="home.svg"
   inkscape:export-filename="/Users/neuneu/SCHWIMM_MIT.PNG"
   inkscape:export-xdpi="1000"
   inkscape:export-ydpi="1000">
  <defs
     id="defs2">
    <inkscape:path-effect
       is_visible="true"
       id="path-effect2996"
       effect="spiro"
       lpeversion="0" />
    <inkscape:path-effect
       is_visible="true"
       id="path-effect971"
       effect="spiro"
       lpeversion="0" />
    <inkscape:path-effect
       is_visible="true"
       id="path-effect2010"
       effect="spiro"
       lpeversion="0" />
    <inkscape:path-effect
       is_visible="true"
       id="path-effect2006"
       effect="spiro"
       lpeversion="0" />
    <inkscape:path-effect
       is_visible="true"
       id="path-effect968"
       effect="spiro"
       lpeversion="0" />
    <inkscape:path-effect
       is_visible="true"
       id="path-effect2924"
       effect="spiro"
       lpeversion="0" />
    <inkscape:path-effect
       is_visible="true"
       id="path-effect2245"
       effect="spiro"
       lpeversion="0" />
    <inkscape:path-effect
       is_visible="true"
       id="path-effect1567"
       effect="spiro"
       lpeversion="0" />
    <inkscape:path-effect
       effect="spiro"
       id="path-effect1547"
       is_visible="true"
       lpeversion="0" />
    <inkscape:path-effect
       is_visible="true"
       id="path-effect1514"
       effect="spiro"
       lpeversion="0" />
    <inkscape:path-effect
       is_visible="true"
       id="path-effect1504"
       effect="spiro"
       lpeversion="0" />
    <inkscape:path-effect
       is_visible="true"
       id="path-effect1500"
       effect="spiro"
       lpeversion="0" />
    <inkscape:path-effect
       is_visible="true"
       id="path-effect1490"
       effect="spiro"
       lpeversion="0" />
    <inkscape:path-effect
       is_visible="true"
       id="path-effect2859"
       effect="spiro"
       lpeversion="0" />
    <inkscape:path-effect
       is_visible="true"
       id="path-effect511"
       effect="spiro"
       lpeversion="0" />
    <inkscape:path-effect
       effect="spiro"
       id="path-effect3077"
       is_visible="true"
       lpeversion="0" />
    <inkscape:path-effect
       is_visible="true"
       id="path-effect3788"
       effect="spiro"
       lpeversion="0" />
    <inkscape:path-effect
       is_visible="true"
       id="path-effect2504"
       effect="spiro"
       lpeversion="0" />
    <inkscape:path-effect
       is_visible="true"
       id="path-effect2215"
       effect="spiro"
       lpeversion="0" />
    <inkscape:path-effect
       is_visible="true"
       id="path-effect2212"
       effect="spiro"
       lpeversion="0" />
    <inkscape:path-effect
       effect="spiro"
       id="path-effect2209"
       is_visible="true"
       lpeversion="0" />
    <inkscape:path-effect
       effect="spiro"
       id="path-effect1170"
       is_visible="true"
       lpeversion="0" />
    <inkscape:path-effect
       is_visible="true"
       id="path-effect1163"
       effect="spiro"
       lpeversion="0" />
    <inkscape:path-effect
       is_visible="true"
       id="path-effect1160"
       effect="spiro"
       lpeversion="0" />
    <inkscape:path-effect
       effect="spiro"
       id="path-effect1157"
       is_visible="true"
       lpeversion="0" />
    <inkscape:path-effect
       is_visible="true"
       id="path-effect1122"
       effect="spiro"
       lpeversion="0" />
    <inkscape:path-effect
       effect="spiro"
       id="path-effect1118"
       is_visible="true"
       lpeversion="0" />
    <inkscape:path-effect
       effect="spiro"
       id="path-effect1114"
       is_visible="true"
       lpeversion="0" />
    <inkscape:path-effect
       effect="spiro"
       id="path-effect817"
       is_visible="true"
       lpeversion="0" />
    <inkscape:path-effect
       is_visible="true"
       id="path-effect1243"
       effect="spiro"
       lpeversion="0" />
    <inkscape:path-effect
       effect="spiro"
       id="path-effect1131"
       is_visible="true"
       lpeversion="0" />
    <inkscape:path-effect
       effect="spiro"
       id="path-effect1032"
       is_visible="true"
       lpeversion="0" />
    <inkscape:path-effect
       is_visible="true"
       id="path-effect1028"
       effect="spiro"
       lpeversion="0" />
    <inkscape:path-effect
       is_visible="true"
       id="path-effect1005"
       effect="spiro"
       lpeversion="0" />
    <inkscape:path-effect
       effect="spiro"
       id="path-effect1147"
       is_visible="true"
       lpeversion="0" />
    <inkscape:path-effect
       is_visible="true"
       id="path-effect1024"
       effect="spiro"
       lpeversion="0" />
    <inkscape:path-effect
       effect="spiro"
       id="path-effect1019"
       is_visible="true"
       lpeversion="0" />
    <inkscape:path-effect
       effect="spiro"
       id="path-effect1015"
       is_visible="true"
       lpeversion="0" />
    <inkscape:path-effect
       is_visible="true"
       id="path-effect1021"
       effect="spiro"
       lpeversion="0" />
    <inkscape:path-effect
       is_visible="true"
       id="path-effect902"
       effect="spiro"
       lpeversion="0" />
    <inkscape:path-effect
       is_visible="true"
       id="path-effect883"
       effect="spiro"
       lpeversion="0" />
    <rect
       x="12.295913"
       y="216.34821"
       width="123.96288"
       height="30.11244"
       id="rect875" />
    <rect
       x="12.295913"
       y="216.34821"
       width="123.96288"
       height="30.11244"
       id="rect875-3" />
    <rect
       x="12.295913"
       y="216.34821"
       width="123.96288"
       height="30.11244"
       id="rect1691" />
  </defs>
  <sodipodi:namedview
     id="base"
     pagecolor="#ffffff"
     bordercolor="#666666"
     borderopacity="1.0"
     inkscape:pageopacity="0.0"
     inkscape:pageshadow="2"
     inkscape:zoom="0.29512777"
     inkscape:cx="179.56579"
     inkscape:cy="369.01803"
     inkscape:document-units="mm"
     inkscape:current-layer="layer1"
     showgrid="false"
     units="mm"
     inkscape:window-width="1440"
     inkscape:window-height="847"
     inkscape:window-x="0"
     inkscape:window-y="25"
     inkscape:window-maximized="0"
     showguides="false"
     inkscape:guide-bbox="true"
     inkscape:document-rotation="0">
    <sodipodi:guide
       position="5.3167041,56.957679"
       orientation="1,0"
       id="guide3537" />
    <sodipodi:guide
       position="49.976765,98.508791"
       orientation="1,0"
       id="guide1913" />
  </sodipodi:namedview>
  <metadata
     id="metadata5">
    <rdf:RDF>
      <cc:Work
         rdf:about="">
        <dc:format>image/svg+xml</dc:format>
        <dc:type
           rdf:resource="http://purl.org/dc/dcmitype/StillImage" />
        <dc:title></dc:title>
      </cc:Work>
    </rdf:RDF>
  </metadata>
  <g
     inkscape:label="Ebene 1"
     inkscape:groupmode="layer"
     id="layer1"
     transform="translate(0,-2e-5)">
    <path
       id="rect3504"
       style="opacity:0.699317;fill:#f9f9f9;fill-opacity:0.712;stroke-width:0.243655;stroke-linecap:square;paint-order:fill markers stroke"
       d="M -29.050551,-66.128259 H 282.46494 V 165.06755 H -29.050551 Z" />
    <text
       xml:space="preserve"
       style="font-style:normal;font-variant:normal;font-weight:normal;font-stretch:normal;font-size:7.4519px;line-height:100%;font-family:sans-serif;-inkscape-font-specification:'sans-serif, Normal';text-align:start;letter-spacing:0px;word-spacing:0px;writing-mode:lr-tb;text-anchor:start;fill:#000000;fill-opacity:1;stroke:none;stroke-width:0.270978px;stroke-linecap:butt;stroke-linejoin:miter;stroke-opacity:1"
       x="-123.88679"
       y="87.026634"
       id="text2535-3"
       transform="rotate(-61.855443)" />
    <text
       xml:space="preserve"
       style="font-style:normal;font-variant:normal;font-weight:normal;font-stretch:normal;font-size:7.4519px;line-height:100%;font-family:sans-serif;-inkscape-font-specification:'sans-serif, Normal';text-align:start;letter-spacing:0px;word-spacing:0px;writing-mode:lr-tb;text-anchor:start;fill:#000000;fill-opacity:1;stroke:none;stroke-width:0.270978px;stroke-linecap:butt;stroke-linejoin:miter;stroke-opacity:1"
       x="-120.982"
       y="152.91187"
       id="text2535-2"
       transform="rotate(-61.855443)" />
    <text
       xml:space="preserve"
       style="font-style:normal;font-variant:normal;font-weight:normal;font-stretch:normal;font-size:7.27604px;line-height:100%;font-family:sans-serif;-inkscape-font-specification:'sans-serif, Normal';text-align:start;letter-spacing:0px;word-spacing:0px;writing-mode:lr-tb;text-anchor:start;fill:#000000;fill-opacity:1;stroke:none;stroke-width:0.264583px;stroke-linecap:butt;stroke-linejoin:miter;stroke-opacity:1"
       x="19.831398"
       y="48.172077"
       id="text2535" />
    <text
       xml:space="preserve"
       style="font-style:normal;font-variant:normal;font-weight:normal;font-stretch:normal;font-size:4.65377px;line-height:100%;font-family:sans-serif;-inkscape-font-specification:'sans-serif, Normal';text-align:start;letter-spacing:0px;word-spacing:0px;writing-mode:lr-tb;text-anchor:start;fill:#000000;fill-opacity:1;stroke:none;stroke-width:0.169228px;stroke-linecap:butt;stroke-linejoin:miter;stroke-opacity:1"
       x="-25.249359"
       y="32.98254"
       id="text2535-39"
       transform="rotate(-2.1906267)" />
    <text
       xml:space="preserve"
       id="text1597"
       style="font-size:14.11110000000000042px;line-height:1.25;font-family:sans-serif;white-space:pre;shape-inside:url(#rect1691);"
       transform="matrix(0.09793853,0,0,0.09793853,-53.764841,106.5141)" />
    <g
       id="g1599"
       transform="matrix(0.57406661,0,0,0.73265455,-66.594092,-25.379376)"
       style="fill:#0000ff;stroke:none;stroke-opacity:1"
       inkscape:transform-center-x="1.8329092"
       inkscape:transform-center-y="43.531594" />
    <text
       xml:space="preserve"
       style="font-style:normal;font-variant:normal;font-weight:normal;font-stretch:normal;font-size:31.635px;line-height:100%;font-family:sans-serif;-inkscape-font-specification:'sans-serif, Normal';text-align:start;letter-spacing:0px;word-spacing:0px;writing-mode:lr-tb;text-anchor:start;fill:#000000;fill-opacity:1;stroke:none;stroke-width:1.15036px;stroke-linecap:butt;stroke-linejoin:miter;stroke-opacity:1"
       x="-4.2640729"
       y="181.73135"
       id="text2535-4" />
    <text
       xml:space="preserve"
       style="font-style:normal;font-variant:normal;font-weight:normal;font-stretch:normal;font-size:31.635px;line-height:100%;font-family:sans-serif;-inkscape-font-specification:'sans-serif, Normal';text-align:start;letter-spacing:0px;word-spacing:0px;writing-mode:lr-tb;text-anchor:start;fill:#000000;fill-opacity:1;stroke:none;stroke-width:1.15036px;stroke-linecap:butt;stroke-linejoin:miter;stroke-opacity:1"
       x="8.0673504"
       y="461.42862"
       id="text2535-2-8" />
    <text
       xml:space="preserve"
       style="font-style:normal;font-variant:normal;font-weight:normal;font-stretch:normal;font-size:12.6667px;line-height:100%;font-family:sans-serif;-inkscape-font-specification:'sans-serif, Normal';text-align:start;letter-spacing:0px;word-spacing:0px;writing-mode:lr-tb;text-anchor:start;fill:#000000;fill-opacity:1;stroke:none;stroke-width:0.460606px;stroke-linecap:butt;stroke-linejoin:miter;stroke-opacity:1"
       x="1.1920922"
       y="130.24182"
       id="text2535-37" />
    <text
       xml:space="preserve"
       style="font-style:normal;font-variant:normal;font-weight:normal;font-stretch:normal;font-size:12.654px;line-height:100%;font-family:sans-serif;-inkscape-font-specification:'sans-serif, Normal';text-align:start;letter-spacing:0px;word-spacing:0px;writing-mode:lr-tb;text-anchor:start;fill:#000000;fill-opacity:1;stroke:none;stroke-width:0.460144px;stroke-linecap:butt;stroke-linejoin:miter;stroke-opacity:1"
       x="34.354416"
       y="242.70699"
       id="text2535-9" />
    <text
       xml:space="preserve"
       style="font-style:normal;font-variant:normal;font-weight:normal;font-stretch:normal;font-size:7.27604px;line-height:100%;font-family:sans-serif;-inkscape-font-specification:'sans-serif, Normal';text-align:start;letter-spacing:0px;word-spacing:0px;writing-mode:lr-tb;text-anchor:start;fill:#000000;fill-opacity:1;stroke:none;stroke-width:0.264583px;stroke-linecap:butt;stroke-linejoin:miter;stroke-opacity:1"
       x="66.501259"
       y="247.34219"
       id="text2535-30" />
    <path
       sodipodi:nodetypes="ccccc"
       inkscape:connector-curvature="0"
       id="path1563"
       d="m 853.43962,154.35412 c -20.62084,20.86523 -45.44545,37.55872 -72.54785,48.78532 -62.50089,25.88968 -133.88394,21.70604 -199.30855,4.49389 C 516.15862,190.42118 454.73034,160.97479 391.62918,136.5846 335.75072,114.98616 278.00227,97.215587 218.52891,90.017337 159.05556,82.819086 97.592463,86.504908 41.226877,106.79814 -2.6030375,122.57817 -42.819651,148.3037 -75.522005,181.4794"
       style="fill:#00ebff;fill-opacity:1;fill-rule:evenodd;stroke:none;stroke-width:4.06137;stroke-linecap:square;stroke-linejoin:miter;stroke-miterlimit:4;stroke-dasharray:none;stroke-opacity:1"
       inkscape:original-d="M 853.43962,154.35412 C 147.18443,146.27605 796.41516,188.78036 780.89177,203.13944 765.36815,217.4984 485.82967,160.0933 391.62918,136.5846 -283.68766,-45.875756 253.92001,171.84059 41.226877,106.79814 -3.2200677,92.650512 -61.111366,154.61877 -75.522005,181.4794"
       inkscape:path-effect="#path-effect1567" />
    <path
       id="path1907"
       style="fill:#37c837;fill-opacity:0.450667;fill-rule:evenodd;stroke:none;stroke-width:8.27448;stroke-linecap:square;stroke-linejoin:round;stroke-miterlimit:4;stroke-dasharray:none;stroke-dashoffset:0;stroke-opacity:1"
       d="M 84.331603,48.434621 A 80.419868,59.256742 44.826818 0 1 99.594685,147.15522 80.419868,59.256742 44.826818 0 1 0.7835955,132.4892 80.419868,59.256742 44.826818 0 1 -14.479469,33.768627 80.419868,59.256742 44.826818 0 1 84.331603,48.434621 Z" />
    <path
       id="path1905"
       style="fill:#37c837;fill-opacity:0.589333;fill-rule:evenodd;stroke:none;stroke-width:8.5493;stroke-linecap:square;stroke-linejoin:round;stroke-miterlimit:4;stroke-dasharray:none;stroke-dashoffset:0;stroke-opacity:1"
       d="m 282.89749,121.1646 a 61.224951,83.091007 36.324707 0 1 -98.54681,30.67675 61.224951,83.091007 36.324707 0 1 -0.1075,-103.211419 61.224951,83.091007 36.324707 0 1 98.54675,-30.676689 61.224951,83.091007 36.324707 0 1 0.10756,103.211358 z" />
    <path
       id="path1911"
       style="fill:#37c837;fill-opacity:0.288;fill-rule:evenodd;stroke:none;stroke-width:8.50583;stroke-linecap:square;stroke-linejoin:round;stroke-miterlimit:4;stroke-dasharray:none;stroke-dashoffset:0;stroke-opacity:1"
       d="M 178.73685,126.23442 A 60.909399,82.662759 56.049496 0 1 76.149913,121.87406 60.909399,82.662759 56.049496 0 1 110.7039,25.183227 60.909399,82.662759 56.049496 0 1 213.29083,29.543609 60.909399,82.662759 56.049496 0 1 178.73685,126.23442 Z" />
    <g
       id="g1027"
       transform="matrix(0.55288392,0,0,0.55288392,68.050823,69.55734)">
      <g
         id="g895"
         transform="matrix(-0.85258543,0.50782706,0.50782706,0.85258543,183.42553,-64.635477)">
        <path
           id="path891"
           style="fill:#ccff00;fill-opacity:1;fill-rule:evenodd;stroke:none;stroke-width:2.45009;stroke-linecap:square;stroke-linejoin:round;stroke-miterlimit:4;stroke-dasharray:none;stroke-dashoffset:0;stroke-opacity:1"
           d="M 146.98561,25.135441 A 17.546053,23.8125 0 0 0 129.43955,1.3229398 17.546053,23.8125 0 0 0 111.8935,25.135441 a 17.546053,23.8125 0 0 0 17.54605,23.8125 17.546053,23.8125 0 0 0 17.54606,-23.8125 z" />
        <path
           inkscape:connector-curvature="0"
           style="fill:#008000;fill-opacity:1;fill-rule:evenodd;stroke:none;stroke-width:2.24835;stroke-linecap:square;stroke-linejoin:round;stroke-miterlimit:4;stroke-dasharray:none;stroke-dashoffset:0;stroke-opacity:1"
           d="m 129.43942,1.322941 c -8.54006,0.010402 -17.14956,8.726261 -17.27539,19.135938 L 146.73295,17.98921 C 145.28962,8.3616191 137.98634,1.3232355 129.43942,1.322941 Z"
           id="path893"
           sodipodi:nodetypes="cccc" />
      </g>
      <g
         id="g901"
         transform="matrix(0.95726832,-0.42194601,0.42194601,0.95726832,17.988322,68.49283)"
         style="fill:#aad400;fill-opacity:1">
        <path
           id="path887"
           style="fill:#aad400;fill-opacity:1;fill-rule:evenodd;stroke:none;stroke-width:0.51823;stroke-linecap:square;stroke-linejoin:round;stroke-miterlimit:4;stroke-dasharray:none;stroke-dashoffset:0;stroke-opacity:1"
           d="m 88.881521,-19.199393 a 3.7112526,5.0366998 51.731904 0 0 -1.655898,6.033209 3.7112526,5.0366998 51.731904 0 0 6.252942,-0.205673 3.7112526,5.0366998 51.731904 0 0 1.655899,-6.033207 3.7112526,5.0366998 51.731904 0 0 -6.252943,0.205671 z" />
        <path
           id="path897"
           style="fill:#aad400;fill-opacity:1;fill-rule:evenodd;stroke:none;stroke-width:0.51823;stroke-linecap:square;stroke-linejoin:round;stroke-miterlimit:4;stroke-dasharray:none;stroke-dashoffset:0;stroke-opacity:1"
           d="m 81.836891,-19.199393 a 5.0366998,3.7112526 38.268096 0 1 1.655898,6.033209 5.0366998,3.7112526 38.268096 0 1 -6.252942,-0.205673 5.0366998,3.7112526 38.268096 0 1 -1.655899,-6.033207 5.0366998,3.7112526 38.268096 0 1 6.252943,0.205671 z" />
      </g>
      <path
         id="path963"
         style="fill:#ccff00;fill-opacity:0.6;fill-rule:evenodd;stroke:none;stroke-width:0.472721;stroke-linecap:square;stroke-linejoin:round;stroke-miterlimit:4;stroke-dasharray:none;stroke-dashoffset:0;stroke-opacity:1"
         d="m 89.538297,16.300037 a 4.594388,3.3853386 14.481106 0 1 3.601891,4.426646 4.594388,3.3853386 14.481106 0 1 -5.294963,2.128892 4.594388,3.3853386 14.481106 0 1 -3.601888,-4.426644 4.594388,3.3853386 14.481106 0 1 5.29496,-2.128894 z" />
      <path
         id="path961"
         style="fill:#ccff00;fill-opacity:0.6;fill-rule:evenodd;stroke:none;stroke-width:0.445561;stroke-linecap:square;stroke-linejoin:round;stroke-miterlimit:4;stroke-dasharray:none;stroke-dashoffset:0;stroke-opacity:1"
         d="m 96.306812,12.569607 a 3.1908465,4.3304343 27.944914 0 0 0.789436,5.320794 3.1908465,4.3304343 27.944914 0 0 4.848112,-2.330207 3.1908465,4.3304343 27.944914 0 0 -0.78943,-5.320793 3.1908465,4.3304343 27.944914 0 0 -4.848118,2.330206 z" />
    </g>
    <path
       sodipodi:nodetypes="ccccc"
       inkscape:connector-curvature="0"
       id="path2994"
       d="m 78.670573,98.418899 c 4.892495,-3.861207 10.527178,-6.778495 16.504246,-8.544869 13.959611,-4.125417 29.122391,-1.837744 42.836851,3.041124 13.71447,4.878869 26.38774,12.230856 39.49168,18.569356 11.61594,5.61874 23.68085,10.47864 36.29961,13.17443 12.61875,2.69579 25.85104,3.1716 38.38097,0.0892 9.61861,-2.36619 18.71798,-6.82009 26.48713,-12.96474"
       style="fill:#00ebff;fill-opacity:1;fill-rule:evenodd;stroke:none;stroke-width:0.856843;stroke-linecap:square;stroke-linejoin:miter;stroke-miterlimit:4;stroke-dasharray:none;stroke-opacity:1"
       inkscape:original-d="M 78.670573,98.418899 C 230.17931,114.47652 91.56898,92.507924 95.174819,89.87403 c 3.605892,-2.633874 62.545611,14.85977 82.328531,21.61048 141.55716,51.25727 30.24044,-4.43666 74.68058,13.26365 9.27622,3.81303 22.88313,-7.73946 26.48713,-12.96474"
       inkscape:path-effect="#path-effect2996" />
    <g
       id="g1037"
       transform="matrix(0.55288558,0,0,0.55288558,73.804873,73.817276)">
      <g
         id="g889"
         transform="matrix(0.80569092,0.57935515,-0.57935515,0.80569092,45.219911,-72.256061)">
        <path
           id="ellipse1506-2"
           style="fill:#ccff00;fill-opacity:1;fill-rule:evenodd;stroke:none;stroke-width:2.45009;stroke-linecap:square;stroke-linejoin:round;stroke-miterlimit:4;stroke-dasharray:none;stroke-dashoffset:0;stroke-opacity:1"
           d="M 146.98561,25.135441 A 17.546053,23.8125 0 0 0 129.43955,1.3229398 17.546053,23.8125 0 0 0 111.8935,25.135441 a 17.546053,23.8125 0 0 0 17.54605,23.8125 17.546053,23.8125 0 0 0 17.54606,-23.8125 z" />
        <path
           inkscape:connector-curvature="0"
           style="fill:#008000;fill-opacity:1;fill-rule:evenodd;stroke:none;stroke-width:2.24835;stroke-linecap:square;stroke-linejoin:round;stroke-miterlimit:4;stroke-dasharray:none;stroke-dashoffset:0;stroke-opacity:1"
           d="m 129.43942,1.322941 c -8.54006,0.010402 -17.14956,8.726261 -17.27539,19.135938 L 146.73295,17.98921 C 145.28962,8.3616191 137.98634,1.3232355 129.43942,1.322941 Z"
           id="path1508-8"
           sodipodi:nodetypes="cccc" />
      </g>
      <g
         id="g907"
         transform="matrix(-0.81025942,-0.66578249,-0.66578249,0.81025942,187.84707,89.33695)"
         style="fill:#aad400;fill-opacity:1">
        <path
           id="path903"
           style="fill:#aad400;fill-opacity:1;fill-rule:evenodd;stroke:none;stroke-width:0.51823;stroke-linecap:square;stroke-linejoin:round;stroke-miterlimit:4;stroke-dasharray:none;stroke-dashoffset:0;stroke-opacity:1"
           d="m 88.881521,-19.199393 a 3.7112526,5.0366998 51.731904 0 0 -1.655898,6.033209 3.7112526,5.0366998 51.731904 0 0 6.252942,-0.205673 3.7112526,5.0366998 51.731904 0 0 1.655899,-6.033207 3.7112526,5.0366998 51.731904 0 0 -6.252943,0.205671 z" />
        <path
           id="path905"
           style="fill:#aad400;fill-opacity:1;fill-rule:evenodd;stroke:none;stroke-width:0.51823;stroke-linecap:square;stroke-linejoin:round;stroke-miterlimit:4;stroke-dasharray:none;stroke-dashoffset:0;stroke-opacity:1"
           d="m 81.836891,-19.199393 a 5.0366998,3.7112526 38.268096 0 1 1.655898,6.033209 5.0366998,3.7112526 38.268096 0 1 -6.252942,-0.205673 5.0366998,3.7112526 38.268096 0 1 -1.655899,-6.033207 5.0366998,3.7112526 38.268096 0 1 6.252943,0.205671 z" />
      </g>
      <path
         id="path975"
         style="fill:#beee00;fill-opacity:1;fill-rule:evenodd;stroke:none;stroke-width:0.475964;stroke-linecap:square;stroke-linejoin:round;stroke-miterlimit:4;stroke-dasharray:none;stroke-dashoffset:0;stroke-opacity:1"
         d="m 127.64767,14.058627 a 4.6259112,3.4085662 77.677718 0 1 -2.34282,5.246762 4.6259112,3.4085662 77.677718 0 1 -4.31724,-3.791923 4.6259112,3.4085662 77.677718 0 1 2.34281,-5.246761 4.6259112,3.4085662 77.677718 0 1 4.31725,3.791922 z" />
      <path
         id="path977"
         style="fill:#beee00;fill-opacity:1;fill-rule:evenodd;stroke:none;stroke-width:0.484922;stroke-linecap:square;stroke-linejoin:round;stroke-miterlimit:4;stroke-dasharray:none;stroke-dashoffset:0;stroke-opacity:1"
         d="m 133.74323,19.294739 a 4.7129769,3.4727199 1.1415256 0 0 -4.78122,3.378121 4.7129769,3.4727199 1.1415256 0 0 4.64286,3.565903 4.7129769,3.4727199 1.1415256 0 0 4.78122,-3.378119 4.7129769,3.4727199 1.1415256 0 0 -4.64286,-3.565905 z" />
    </g>
    <path
       sodipodi:nodetypes="ccccc"
       inkscape:connector-curvature="0"
       id="path1512-0"
       d="m -9.3458576,89.933792 c 6.8764132,7.351695 15.1716953,13.371388 24.2933346,17.629108 21.28359,9.93457 46.032854,9.89957 69.080531,5.37282 23.047682,-4.52675 45.018432,-13.257698 67.437232,-20.26371 19.87174,-6.210039 40.28168,-11.098593 61.06087,-12.393152 20.77919,-1.294559 42.00983,1.108985 61.26195,9.034047 14.79302,6.08949 28.2508,15.399045 39.16636,27.093735"
       style="fill:#55d400;fill-opacity:1;fill-rule:evenodd;stroke:none;stroke-width:1.38473;stroke-linecap:square;stroke-linejoin:miter;stroke-miterlimit:4;stroke-dasharray:none;stroke-opacity:1"
       inkscape:original-d="M -9.3458576,89.933792 C 236.22645,100.48955 9.8229602,102.48346 14.947477,107.5629 c 5.124565,5.0794 103.341843,-8.818851 136.517763,-14.89089 238.09811,-48.174762 47.1908,14.34 122.32282,-3.359105 15.71096,-3.883875 34.66348,17.866325 39.16636,27.093735"
       inkscape:path-effect="#path-effect1514" />
    <path
       inkscape:export-ydpi="96"
       inkscape:export-xdpi="96"
       inkscape:export-filename="/Users/neuneu/TP1.1.png"
       sodipodi:nodetypes="cccc"
       inkscape:connector-curvature="0"
       id="path1541"
       d="m 200.3052,123.28649 14.6507,-30.532887 29.72246,39.761127 -34.68102,-28.92885"
       style="fill:#ff6600;fill-opacity:1;fill-rule:evenodd;stroke:#ff6600;stroke-width:6.60996;stroke-linecap:butt;stroke-linejoin:miter;stroke-miterlimit:4;stroke-dasharray:none;stroke-opacity:1" />
    <g
       id="g2978"
       transform="matrix(-1,0,0,1,256.60528,17.430067)">
      <path
         id="path883"
         style="fill:#00f000;fill-opacity:0.3;fill-rule:evenodd;stroke:none;stroke-width:4.25409;stroke-linecap:square;stroke-linejoin:round;stroke-miterlimit:4;stroke-dasharray:none;stroke-dashoffset:0;stroke-opacity:1"
         d="m 222.48692,90.029128 a 30.46529,41.34575 0 0 1 -30.46529,41.345752 30.46529,41.34575 0 0 1 -30.4653,-41.345752 30.46529,41.34575 0 0 1 30.4653,-41.345752 30.46529,41.34575 0 0 1 30.46529,41.345752 z" />
      <path
         id="path888"
         style="fill:#5fd35f;fill-opacity:0.496;fill-rule:evenodd;stroke:none;stroke-width:3.64636;stroke-linecap:square;stroke-linejoin:round;stroke-miterlimit:4;stroke-dasharray:none;stroke-dashoffset:0;stroke-opacity:1"
         d="M 218.13474,87.807442 A 26.113105,35.439214 0 0 1 192.02163,123.24666 26.113105,35.439214 0 0 1 165.90852,87.807442 26.113105,35.439214 0 0 1 192.02163,52.368226 26.113105,35.439214 0 0 1 218.13474,87.807442 Z" />
      <path
         id="ellipse1506-9"
         style="fill:#00d400;fill-opacity:0.754667;fill-rule:evenodd;stroke:none;stroke-width:2.9171;stroke-linecap:square;stroke-linejoin:round;stroke-miterlimit:4;stroke-dasharray:none;stroke-dashoffset:0;stroke-opacity:1"
         d="M 212.91211,82.562024 A 20.890485,28.351371 0 0 1 192.02163,110.9134 20.890485,28.351371 0 0 1 171.13114,82.562024 20.890485,28.351371 0 0 1 192.02163,54.210649 20.890485,28.351371 0 0 1 212.91211,82.562024 Z" />
      <path
         inkscape:connector-curvature="0"
         style="fill:#ffea04;fill-opacity:1;fill-rule:evenodd;stroke:none;stroke-width:3.91409;stroke-linecap:square;stroke-linejoin:round;stroke-miterlimit:4;stroke-dasharray:none;stroke-dashoffset:0;stroke-opacity:1"
         d="m 192.00584,48.683376 c -14.86717,0.01811 -29.85522,15.19132 -30.07428,33.313255 l 60.18013,-4.299382 C 219.59904,60.936827 206.88495,48.683889 192.00584,48.683376 Z"
         id="path1508"
         sodipodi:nodetypes="cccc" />
    </g>
    <path
       id="rect2207"
       style="opacity:0.699317;fill:#c8ffff;fill-opacity:0.7;stroke-width:0;stroke-linecap:square;paint-order:fill markers stroke"
       d="M -29.050551,-47.607414 H 287.69411 V 187.87601 H -29.050551 Z" />
  </g>
</svg>
