<?xml version="1.0" encoding="UTF-8" standalone="no"?>
<svg
   xmlns:dc="http://purl.org/dc/elements/1.1/"
   xmlns:cc="http://creativecommons.org/ns#"
   xmlns:rdf="http://www.w3.org/1999/02/22-rdf-syntax-ns#"
   xmlns:svg="http://www.w3.org/2000/svg"
   xmlns="http://www.w3.org/2000/svg"
   xmlns:sodipodi="http://sodipodi.sourceforge.net/DTD/sodipodi-0.dtd"
   xmlns:inkscape="http://www.inkscape.org/namespaces/inkscape"
   width="1360"
   height="500"
   viewBox="0 0 359.83334 132.29167"
   version="1.1"
   id="svg8"
   inkscape:version="1.0.1 (c497b03c, 2020-09-10)"
   sodipodi:docname="schwim_logo_title.svg"
   inkscape:export-filename="/Users/neuneu/moniana-logo.png"
   inkscape:export-xdpi="150.01875"
   inkscape:export-ydpi="150.01875">
  <defs
     id="defs2">
    <rect
       x="12.295913"
       y="216.34821"
       width="123.96288"
       height="30.11244"
       id="rect875" />
    <inkscape:path-effect
       effect="spiro"
       id="path-effect1243"
       is_visible="true"
       lpeversion="0" />
    <inkscape:path-effect
       is_visible="true"
       id="path-effect1131"
       effect="spiro"
       lpeversion="0" />
    <inkscape:path-effect
       is_visible="true"
       id="path-effect1032"
       effect="spiro"
       lpeversion="0" />
    <inkscape:path-effect
       effect="spiro"
       id="path-effect1028"
       is_visible="true"
       lpeversion="0" />
    <inkscape:path-effect
       effect="spiro"
       id="path-effect1005"
       is_visible="true"
       lpeversion="0" />
    <inkscape:path-effect
       is_visible="true"
       id="path-effect1147"
       effect="spiro"
       lpeversion="0" />
    <inkscape:path-effect
       effect="spiro"
       id="path-effect1024"
       is_visible="true"
       lpeversion="0" />
    <inkscape:path-effect
       is_visible="true"
       id="path-effect1019"
       effect="spiro"
       lpeversion="0" />
    <inkscape:path-effect
       is_visible="true"
       id="path-effect1015"
       effect="spiro"
       lpeversion="0" />
    <inkscape:path-effect
       effect="spiro"
       id="path-effect1021"
       is_visible="true"
       lpeversion="0" />
    <inkscape:path-effect
       effect="spiro"
       id="path-effect902"
       is_visible="true"
       lpeversion="0" />
  </defs>
  <sodipodi:namedview
     id="base"
     pagecolor="#ffffff"
     bordercolor="#666666"
     borderopacity="1.0"
     inkscape:pageopacity="0.0"
     inkscape:pageshadow="2"
     inkscape:zoom="0.46460735"
     inkscape:cx="609.75316"
     inkscape:cy="252.4573"
     inkscape:document-units="mm"
     inkscape:current-layer="layer1"
     showgrid="false"
     inkscape:window-width="1440"
     inkscape:window-height="847"
     inkscape:window-x="0"
     inkscape:window-y="25"
     inkscape:window-maximized="1"
     units="px"
     showborder="true"
     inkscape:document-rotation="0"
     showguides="true"
     inkscape:guide-bbox="true">
    <sodipodi:guide
       position="23.953959,-350.20951"
       orientation="0,-1"
       id="guide1405" />
    <sodipodi:guide
       position="13.687977,518.97701"
       orientation="0,-1"
       id="guide1407" />
    <sodipodi:guide
       position="-24.574329,-36.920135"
       orientation="1,0"
       id="guide986" />
    <sodipodi:guide
       position="-24.574329,167.02978"
       orientation="0,-1"
       id="guide1032" />
  </sodipodi:namedview>
  <metadata
     id="metadata5">
    <rdf:RDF>
      <cc:Work
         rdf:about="">
        <dc:format>image/svg+xml</dc:format>
        <dc:type
           rdf:resource="http://purl.org/dc/dcmitype/StillImage" />
        <dc:title />
      </cc:Work>
    </rdf:RDF>
  </metadata>
  <g
     inkscape:label="Ebene 1"
     inkscape:groupmode="layer"
     id="layer1"
     transform="translate(0,-256.99999)">
    <text
       xml:space="preserve"
       id="text873"
       style="font-size:14.11110000000000042px;line-height:1.25;font-family:sans-serif;white-space:pre;shape-inside:url(#rect875);" />
    <g
       id="g908"
       transform="matrix(5.8614991,0,0,7.4807591,-130.99289,-1346.6965)"
       style="fill:#0000ff;stroke:none;stroke-opacity:1"
       inkscape:transform-center-x="1.8329092"
       inkscape:transform-center-y="43.531594" />
    <g
       id="g1044"
       transform="matrix(1.8967956,0,0,1.7450142,-82.53286,-262.06704)"
       style="fill:#00ced1;fill-opacity:1;stroke:none;stroke-width:0;stroke-miterlimit:4;stroke-dasharray:none">
      <g
         aria-label="S"
         id="text1042"
         style="font-size:28.4056px;line-height:1.25;font-family:'Helvetica Neue';-inkscape-font-specification:'Helvetica Neue';fill:#00ced1;fill-opacity:1;stroke:none;stroke-width:0;stroke-miterlimit:4;stroke-dasharray:none;stroke-opacity:1">
        <path
           d="m 83.934523,313.32311 h 2.556504 q -0.05681,-1.67593 -0.653329,-2.86897 -0.568112,-1.22144 -1.590714,-2.01679 -0.994196,-0.79536 -2.329259,-1.16463 -1.335063,-0.36928 -2.897371,-0.36928 -1.391874,0 -2.726938,0.36928 -1.306657,0.34086 -2.357664,1.07941 -1.022602,0.71014 -1.647525,1.84636 -0.624923,1.10782 -0.624923,2.64173 0,1.39187 0.539706,2.32925 0.568112,0.90898 1.477091,1.5055 0.937385,0.56811 2.102015,0.93739 1.164629,0.34086 2.357664,0.62492 1.221441,0.25565 2.386071,0.5113 1.164629,0.25565 2.073609,0.68173 0.937384,0.39768 1.477091,1.05101 0.568112,0.65333 0.568112,1.70434 0,1.10782 -0.45449,1.81796 -0.454489,0.71014 -1.193035,1.13622 -0.738546,0.39768 -1.67593,0.56811 -0.90898,0.17044 -1.817959,0.17044 -1.136224,0 -2.215637,-0.28406 -1.079412,-0.28406 -1.903175,-0.88057 -0.795357,-0.59652 -1.306657,-1.5055 -0.482895,-0.93739 -0.482895,-2.21564 h -2.556504 q 0,1.84637 0.653328,3.20984 0.681735,1.33506 1.817959,2.21563 1.164629,0.85217 2.670126,1.27825 1.533902,0.42609 3.238238,0.42609 1.391875,0 2.783749,-0.34087 1.42028,-0.31246 2.556504,-1.0226 1.136224,-0.73855 1.846364,-1.87477 0.738546,-1.16463 0.738546,-2.78375 0,-1.5055 -0.568112,-2.49969 -0.539707,-0.9942 -1.477091,-1.64753 -0.90898,-0.65333 -2.073609,-1.0226 -1.16463,-0.39768 -2.386071,-0.68173 -1.193035,-0.28406 -2.357664,-0.5113 -1.16463,-0.25565 -2.102015,-0.62493 -0.908979,-0.36927 -1.477091,-0.93738 -0.539706,-0.59652 -0.539706,-1.5339 0,-0.9942 0.369272,-1.64753 0.397679,-0.68173 1.022602,-1.07941 0.653329,-0.39768 1.477091,-0.56811 0.823763,-0.17044 1.675931,-0.17044 2.102014,0 3.437077,0.9942 1.363469,0.96579 1.590714,3.15302 z"
           style="fill:#00ced1;fill-opacity:1;stroke:none;stroke-width:0;stroke-miterlimit:4;stroke-dasharray:none;stroke-opacity:1"
           id="path1573" />
      </g>
    </g>
    <g
       id="g1050"
       transform="matrix(0.95999999,0,0,0.95999999,37.812431,-49.711368)">
      <path
         d="m 173.34454,349.02422 c 0.53471,-1.73836 1.27029,-3.25383 2.20634,-4.54645 0.98063,-1.33719 2.16178,-2.38463 3.54354,-3.14236 1.3818,-0.802 2.91959,-1.20352 4.6133,-1.20352 1.91668,0 3.47672,0.31156 4.6802,0.93606 1.20347,0.62424 2.13944,1.4709 2.80808,2.54066 0.66941,1.06977 1.11434,2.31782 1.33723,3.74414 0.26742,1.42633 0.40156,2.9418 0.40156,4.54645 v 22.0641 l 1.33719,-4.7e-4 v -21.79621 c 0,-1.60461 0.24513,-3.12008 0.73566,-4.54645 0.49014,-1.47089 1.20348,-2.76351 2.13953,-3.87781 0.93602,-1.11433 2.07264,-1.98353 3.40978,-2.60756 1.33723,-0.66919 2.83042,-1.00291 4.47964,-1.00291 1.87207,0 3.40986,0.26742 4.61325,0.80218 1.24809,0.53475 2.22868,1.29261 2.94184,2.27324 0.75765,0.98058 1.27033,2.16182 1.53775,3.54353 0.31156,1.38176 0.4685,2.91956 0.4685,4.6133 v 22.59852 h 1.3371 v -22.59852 c 0,-1.87207 -0.1787,-3.56586 -0.53475,-5.08133 -0.35656,-1.56003 -0.95834,-2.87493 -1.80522,-3.94466 -0.84696,-1.11438 -1.96116,-1.98354 -3.34296,-2.60756 -1.38176,-0.62411 -3.12012,-0.93601 -5.21509,-0.93601 -2.67433,0 -4.9921,0.7357 -6.95335,2.20634 -1.96121,1.4709 -3.27611,3.40987 -3.94462,5.81678 h -0.13414 c -0.57975,-2.54071 -1.78306,-4.52416 -3.61048,-5.95053 -1.78297,-1.4709 -4.0116,-2.16182 -6.68597,-2.07268 -1.33719,0 -2.60748,0.24556 -3.81096,0.73566 -1.15895,0.44647 -2.22829,1.09205 -3.20883,1.93897 -0.98062,0.84696 -1.92525,1.78405 -2.47428,2.9418 -0.67052,1.41394 -0.72675,3.05502 -0.8698,4.6133 z"
         id="path1048"
         inkscape:connector-curvature="0"
         sodipodi:nodetypes="cccssscsccscccscccsccscccsscccccsac"
         style="font-style:normal;font-variant:normal;font-weight:100;font-stretch:normal;font-size:medium;line-height:100%;font-family:'Helvetica Neue';-inkscape-font-specification:'Helvetica Neue, Thin';font-variant-ligatures:normal;font-variant-caps:normal;font-variant-numeric:normal;font-feature-settings:normal;text-align:start;letter-spacing:0px;word-spacing:0px;writing-mode:lr-tb;text-anchor:start;fill:#00ced1;fill-opacity:1;stroke:#00ced1;stroke-width:2.53652;stroke-linecap:butt;stroke-linejoin:miter;stroke-miterlimit:4;stroke-dasharray:none;stroke-opacity:1" />
    </g>
    <path
       inkscape:connector-curvature="0"
       id="path1056"
       style="font-style:normal;font-variant:normal;font-weight:100;font-stretch:normal;font-size:medium;line-height:100%;font-family:'Helvetica Neue';-inkscape-font-specification:'Helvetica Neue, Thin';font-variant-ligatures:normal;font-variant-caps:normal;font-variant-numeric:normal;font-feature-settings:normal;text-align:start;letter-spacing:0px;word-spacing:0px;writing-mode:lr-tb;text-anchor:start;fill:#00ced1;fill-opacity:1;stroke:#00ced1;stroke-width:1.81319;stroke-linecap:butt;stroke-linejoin:miter;stroke-miterlimit:4;stroke-dasharray:none;stroke-opacity:1"
       d="m 194.32225,275.21343 v 34.39141 h 1.34039 v -34.39141 z" />
    <path
       d="m 144.38909,299.46632 c 0.51333,1.66882 1.21947,3.12367 2.11809,4.36459 0.9414,1.28369 2.07531,2.28924 3.40179,3.01666 1.32653,0.76992 2.80281,1.15539 4.42877,1.15539 1.84002,0 3.33765,-0.29911 4.49299,-0.89863 1.15534,-0.59926 2.05387,-1.41206 2.69577,-2.43903 0.64262,-1.02698 1.06975,-2.2251 1.28373,-3.59438 0.25673,-1.36926 0.38549,-2.82412 0.38549,-4.36459 V 275.5248 l 1.2837,4.6e-4 v 20.92435 c 0,1.54043 0.23534,2.99527 0.70624,4.36459 0.47054,1.41206 1.15534,2.65297 2.05396,3.7227 0.89857,1.06976 1.98972,1.90419 3.27339,2.50325 1.28374,0.64243 2.71719,0.96281 4.30044,0.96281 1.79719,0 3.27348,-0.25674 4.42873,-0.77009 1.19817,-0.51337 2.13953,-1.24093 2.82417,-2.18232 0.72733,-0.94137 1.21951,-2.07535 1.47624,-3.4018 0.2991,-1.32648 0.44976,-2.80277 0.44976,-4.42877 v -21.69456 h 1.28362 v 21.69456 c 0,1.79719 -0.17156,3.42323 -0.51338,4.87809 -0.34229,1.49763 -0.92,2.75993 -1.73299,3.78687 -0.81309,1.0698 -1.88273,1.90419 -3.20925,2.50326 -1.3265,0.59915 -2.99533,0.89857 -5.00649,0.89857 -2.56735,0 -4.79241,-0.70627 -6.67522,-2.11809 -1.88276,-1.41206 -3.14506,-3.27347 -3.78684,-5.5841 h -0.12877 c -0.55656,2.43907 -1.71173,4.34319 -3.46605,5.7125 -1.71165,1.41207 -3.85114,2.07536 -6.41854,1.98978 -1.2837,0 -2.50317,-0.23575 -3.65851,-0.70624 -1.1126,-0.42862 -2.13916,-1.04837 -3.08048,-1.86141 -0.9414,-0.81308 -1.84825,-1.71268 -2.37531,-2.82413 -0.6437,-1.35737 -0.69768,-2.93281 -0.835,-4.42876 z"
       id="path1058"
       inkscape:connector-curvature="0"
       sodipodi:nodetypes="cccssscsccscccscccsccscccsscccccsac"
       style="font-style:normal;font-variant:normal;font-weight:100;font-stretch:normal;font-size:medium;line-height:100%;font-family:'Helvetica Neue';-inkscape-font-specification:'Helvetica Neue, Thin';font-variant-ligatures:normal;font-variant-caps:normal;font-variant-numeric:normal;font-feature-settings:normal;text-align:start;letter-spacing:0px;word-spacing:0px;writing-mode:lr-tb;text-anchor:start;fill:#00ced1;fill-opacity:1;stroke:#00ced1;stroke-width:2.43506;stroke-linecap:butt;stroke-linejoin:miter;stroke-miterlimit:4;stroke-dasharray:none;stroke-opacity:1" />
    <path
       inkscape:connector-curvature="0"
       id="path1064"
       style="font-style:normal;font-variant:normal;font-weight:100;font-stretch:normal;font-size:medium;line-height:100%;font-family:'Helvetica Neue';-inkscape-font-specification:'Helvetica Neue, Thin';font-variant-ligatures:normal;font-variant-caps:normal;font-variant-numeric:normal;font-feature-settings:normal;text-align:start;letter-spacing:0px;word-spacing:0px;writing-mode:lr-tb;text-anchor:start;fill:#00ced1;fill-opacity:1;stroke:#00ced1;stroke-width:2.43186;stroke-linecap:butt;stroke-linejoin:miter;stroke-miterlimit:4;stroke-dasharray:none;stroke-opacity:1"
       d="m 114.92003,281.62992 v 27.66475 0 -18.65322 c 0,-1.83759 0.2559,-3.58964 0.7691,-5.25629 0.51266,-1.6666 1.26067,-3.11957 2.24353,-4.35883 1.02563,-1.28198 2.28628,-2.28624 3.78194,-3.01267 1.49566,-0.7689 3.22637,-1.15386 5.19216,-1.15386 1.41017,0 2.73497,0.21393 3.97419,0.64186 1.28202,0.38466 2.39312,1.02552 3.33325,1.92295 0.98288,0.85479 1.7521,1.96578 2.30759,3.33324 0.55575,1.32477 0.83315,2.94863 0.83315,4.87167 v 21.66598 h 1.28206 v -21.85841 c 0,-1.92299 -0.29868,-3.61095 -0.89737,-5.06391 -0.55603,-1.4957 -1.36751,-2.73496 -2.43588,-3.71784 -1.02558,-1.02561 -2.26488,-1.79479 -3.71783,-2.30762 -1.41022,-0.51268 -2.96998,-0.76915 -4.67928,-0.76915 -1.62395,0 -3.09822,0.23532 -4.42298,0.70545 -1.32475,0.42805 -2.49993,1.04697 -3.52549,1.85891 -0.98293,0.81205 -1.8162,1.75209 -2.49993,2.82045 -0.64169,1.06833 -1.11112,2.24354 -1.41022,3.52551 h -0.12836 z"
       sodipodi:nodetypes="cccssccscccsccscccsccccccc" />
    <path
       inkscape:connector-curvature="0"
       id="path1068"
       style="font-style:normal;font-variant:normal;font-weight:100;font-stretch:normal;font-size:medium;line-height:100%;font-family:'Helvetica Neue';-inkscape-font-specification:'Helvetica Neue, Thin';font-variant-ligatures:normal;font-variant-caps:normal;font-variant-numeric:normal;font-feature-settings:normal;text-align:start;letter-spacing:0px;word-spacing:0px;writing-mode:lr-tb;text-anchor:start;fill:#00ced1;fill-opacity:1;stroke:#00ced1;stroke-width:1.85657;stroke-linecap:butt;stroke-linejoin:miter;stroke-miterlimit:4;stroke-dasharray:none;stroke-opacity:1"
       d="m 114.62464,267.82964 v 41.75347 h 1.15751 v -41.75347 z" />
    <g
       aria-label="C"
       transform="scale(0.90744827,1.1019912)"
       id="text1074"
       style="font-size:43.6064px;line-height:1.25;font-family:sans-serif;fill:#00ced1;fill-opacity:1;stroke:none;stroke-width:0;stroke-miterlimit:4;stroke-dasharray:none;stroke-opacity:1">
      <path
         d="m 120.69991,278.89856 q -1.17107,0.51102 -2.12922,0.95815 -0.93685,0.44714 -2.46989,0.93686 -1.29882,0.40455 -2.83186,0.68135 -1.51175,0.29809 -3.34287,0.29809 -3.44934,0 -6.2812,-0.95815 -2.81057,-0.97944 -4.897203,-3.04478 -2.04405,-2.02276 -3.193828,-5.13142 -1.149778,-3.12995 -1.149778,-7.26064 0,-3.91776 1.107194,-7.00512 1.107194,-3.08737 3.193828,-5.21659 2.022757,-2.06534 4.875907,-3.15124 2.87445,-1.08591 6.36637,-1.08591 2.55506,0 5.08883,0.61748 2.55506,0.61747 5.66372,2.1718 v 5.00366 h -0.31938 q -2.61894,-2.19309 -5.19529,-3.19382 -2.57636,-1.00074 -5.51468,-1.00074 -2.40602,0 -4.34361,0.78781 -1.91629,0.76652 -3.42804,2.40602 -1.46916,1.59692 -2.299555,4.04552 -0.809103,2.42731 -0.809103,5.62113 0,3.34288 0.894272,5.7489 0.915566,2.40601 2.342136,3.91776 1.49046,1.57562 3.47063,2.34214 2.00147,0.74523 4.21585,0.74523 3.04479,0 5.70631,-1.04332 2.66152,-1.04332 4.98237,-3.12995 h 0.29809 z"
         style="fill:#00ced1;fill-opacity:1;stroke:none;stroke-width:0;stroke-miterlimit:4;stroke-dasharray:none;stroke-opacity:1"
         id="path1576" />
    </g>
    <path
       d="m 250.10802,285.35188 c 0.51333,-1.66883 1.21948,-3.12368 2.11809,-4.36459 0.94141,-1.28371 2.07531,-2.28924 3.4018,-3.01667 1.32652,-0.76992 2.80281,-1.15537 4.42877,-1.15537 1.84002,0 3.33765,0.29909 4.49298,0.89861 1.15534,0.59927 2.05388,1.41206 2.69577,2.43904 0.64262,1.02697 1.06976,2.2251 1.28374,3.59437 0.25673,1.36928 0.38548,2.82413 0.38548,4.36459 v 21.18154 l 1.28371,-4.5e-4 v -20.92437 c 0,-1.54042 0.23533,-2.99527 0.70624,-4.36459 0.47054,-1.41206 1.15534,-2.65297 2.05395,-3.72269 0.89858,-1.06977 1.98973,-1.9042 3.27339,-2.50326 1.28374,-0.64243 2.7172,-0.96279 4.30045,-0.96279 1.79719,0 3.27347,0.25671 4.42873,0.77009 1.19816,0.51335 2.13952,1.2409 2.82416,2.18231 0.72733,0.94135 1.21952,2.07534 1.47625,3.40178 0.29909,1.32649 0.44975,2.80278 0.44975,4.42877 v 21.69458 h 1.28362 V 287.5982 c 0,-1.79718 -0.17156,-3.42322 -0.51336,-4.87807 -0.34231,-1.49763 -0.92001,-2.75994 -1.73301,-3.78687 -0.81309,-1.06981 -1.88273,-1.90421 -3.20925,-2.50327 -1.32649,-0.59914 -2.99532,-0.89856 -5.00648,-0.89856 -2.56736,0 -4.79241,0.70627 -6.67522,2.11808 -1.88277,1.41206 -3.14507,3.27348 -3.78684,5.58411 h -0.12877 c -0.55657,-2.43908 -1.71174,-4.3432 -3.46605,-5.71251 -1.71166,-1.41206 -3.85114,-2.07534 -6.41855,-1.98977 -1.2837,0 -2.50317,0.23574 -3.65851,0.70623 -1.11259,0.42861 -2.13916,1.04837 -3.08047,1.86141 -0.94141,0.81309 -1.84826,1.7127 -2.37531,2.82413 -0.64371,1.35739 -0.69769,2.93282 -0.83501,4.42877 z"
       id="path1076"
       inkscape:connector-curvature="0"
       sodipodi:nodetypes="cccssscsccscccscccsccscccsscccccsac"
       style="font-style:normal;font-variant:normal;font-weight:100;font-stretch:normal;font-size:medium;line-height:100%;font-family:'Helvetica Neue';-inkscape-font-specification:'Helvetica Neue, Thin';font-variant-ligatures:normal;font-variant-caps:normal;font-variant-numeric:normal;font-feature-settings:normal;text-align:start;letter-spacing:0px;word-spacing:0px;writing-mode:lr-tb;text-anchor:start;fill:#00ced1;fill-opacity:1;stroke:#00ced1;stroke-width:2.43506;stroke-linecap:butt;stroke-linejoin:miter;stroke-miterlimit:4;stroke-dasharray:none;stroke-opacity:1" />
    <g
       id="g1094"
       transform="matrix(0.71858324,0,0,0.71858324,-3.5356093,83.622696)">
      <g
         aria-label="t"
         transform="scale(1.0008822,0.99911858)"
         id="text1086"
         style="font-size:35.1803px;line-height:1.25;font-family:sans-serif;fill:#00ced2;fill-opacity:0.968627;stroke:none;stroke-width:1.20101;stroke-linecap:square;stroke-miterlimit:4;stroke-dasharray:none;stroke-opacity:1;paint-order:fill markers stroke">
        <path
           d="m 98.449223,371.17765 q -0.910428,0.24049 -1.992634,0.39509 -1.065029,0.1546 -1.906745,0.1546 -2.937418,0 -4.466249,-1.58037 -1.528832,-1.58036 -1.528832,-5.06747 v -10.20366 h -2.181591 v -2.71411 h 2.181591 v -5.5141 h 3.229442 v 5.5141 h 6.665018 v 2.71411 h -6.665018 v 8.74354 q 0,1.51165 0.06871,2.37055 0.06871,0.84171 0.48098,1.58036 0.377914,0.68712 1.030673,1.0135 0.669938,0.3092 2.02699,0.3092 0.790183,0 1.649077,-0.22331 0.858894,-0.24049 1.236807,-0.39509 h 0.171779 z"
           style="fill:#00ced2;fill-opacity:0.968627;stroke:none;stroke-width:1.20101;stroke-linecap:square;stroke-miterlimit:4;stroke-dasharray:none;stroke-opacity:1;paint-order:fill markers stroke"
           id="path1579" />
      </g>
      <path
         d="m 49.399865,356.91241 c 0.299704,-0.97433 0.711984,-1.82373 1.236636,-2.54823 0.549633,-0.74948 1.211655,-1.33656 1.986112,-1.76126 0.774484,-0.44952 1.636405,-0.67456 2.585706,-0.67456 1.074285,0 1.948665,0.17462 2.623203,0.52465 0.674538,0.34988 1.19914,0.82442 1.573905,1.42401 0.375192,0.5996 0.624571,1.29912 0.749504,2.09855 0.149886,0.79945 0.225064,1.64886 0.225064,2.54825 v 12.36669 l 0.749481,-2.6e-4 V 358.6737 c 0,-0.89936 0.137399,-1.74877 0.412331,-2.54824 0.274723,-0.82441 0.674537,-1.54892 1.199189,-2.17347 0.524624,-0.62457 1.161688,-1.11175 1.911146,-1.46151 0.749504,-0.37507 1.586416,-0.56212 2.510787,-0.56212 1.049275,0 1.911196,0.14989 2.585684,0.44962 0.699541,0.29971 1.249146,0.72448 1.64887,1.27412 0.42465,0.54961 0.712007,1.21167 0.861893,1.98611 0.174626,0.77446 0.26259,1.63639 0.26259,2.58571 v 12.66623 h 0.74943 v -12.66623 c 0,-1.04928 -0.100165,-1.99863 -0.299728,-2.84804 -0.199847,-0.87438 -0.537139,-1.61136 -1.011801,-2.21093 -0.474712,-0.6246 -1.099215,-1.11176 -1.8737,-1.46152 -0.774462,-0.3498 -1.748794,-0.52462 -2.922998,-0.52462 -1.498934,0 -2.79802,0.41235 -3.897285,1.23663 -1.099239,0.82443 -1.836226,1.9112 -2.210918,3.26025 h -0.07518 c -0.324944,-1.42404 -0.999381,-2.53575 -2.023632,-3.33521 -0.999335,-0.82443 -2.248459,-1.21168 -3.747422,-1.16172 -0.749481,0 -1.461459,0.13763 -2.135997,0.41233 -0.649579,0.25024 -1.248934,0.61208 -1.798516,1.08677 -0.549633,0.47472 -1.079088,0.99995 -1.386808,1.64885 -0.375819,0.7925 -0.407336,1.7123 -0.487514,2.5857 z"
         id="path1088"
         inkscape:connector-curvature="0"
         sodipodi:nodetypes="cccssscsccscccscccsccscccsscccccsac"
         style="font-style:normal;font-variant:normal;font-weight:100;font-stretch:normal;font-size:medium;line-height:100%;font-family:'Helvetica Neue';-inkscape-font-specification:'Helvetica Neue, Thin';font-variant-ligatures:normal;font-variant-caps:normal;font-variant-numeric:normal;font-feature-settings:normal;text-align:start;letter-spacing:0px;word-spacing:0px;writing-mode:lr-tb;text-anchor:start;fill:#00ced1;fill-opacity:1;stroke:#00ced1;stroke-width:1.42169;stroke-linecap:butt;stroke-linejoin:miter;stroke-miterlimit:4;stroke-dasharray:none;stroke-opacity:1" />
      <path
         style="font-style:normal;font-variant:normal;font-weight:100;font-stretch:normal;font-size:medium;line-height:100%;font-family:'Helvetica Neue';-inkscape-font-specification:'Helvetica Neue, Thin';font-variant-ligatures:normal;font-variant-caps:normal;font-variant-numeric:normal;font-feature-settings:normal;text-align:start;letter-spacing:0px;word-spacing:0px;writing-mode:lr-tb;text-anchor:start;fill:#00ced1;fill-opacity:1;stroke:none;stroke-width:0.00101551;stroke-linecap:butt;stroke-linejoin:miter;stroke-miterlimit:4;stroke-dasharray:none;stroke-opacity:1"
         sodipodi:nodetypes="cccssscsccscccscccsccscccsscccccsac"
         inkscape:connector-curvature="0"
         id="path1090"
         d="m 49.399865,356.91241 c 0.299704,-0.97433 0.711984,-1.82373 1.236636,-2.54823 0.549633,-0.74948 1.211655,-1.33656 1.986112,-1.76126 0.774484,-0.44952 1.636405,-0.67456 2.585706,-0.67456 1.074285,0 1.948665,0.17462 2.623203,0.52465 0.674538,0.34988 1.19914,0.82442 1.573905,1.42401 0.375192,0.5996 0.624571,1.29912 0.749504,2.09855 0.149886,0.79945 0.225064,1.64886 0.225064,2.54825 v -0.01 h 0.749481 v 0 c 0,0 0.137399,-1.58973 0.412331,-2.38917 0.274723,-0.82443 0.674537,-1.54895 1.199189,-2.17348 0.524624,-0.62456 1.161688,-1.11175 1.911146,-1.4615 0.749504,-0.37508 1.586416,-0.56213 2.510787,-0.56213 1.049275,0 1.911196,0.14989 2.585684,0.44961 0.699541,0.29973 1.249146,0.7245 1.64887,1.27414 0.42465,0.5496 0.712007,1.21167 0.861893,1.9861 0.174626,0.77447 0.26259,1.63639 0.26259,2.58571 v 12.66624 h 0.74943 V 358.2231 c 0,-1.04927 -0.100165,-1.99862 -0.299728,-2.84803 -0.199847,-0.87438 -0.537139,-1.61137 -1.011801,-2.21094 -0.474712,-0.6246 -1.099215,-1.11175 -1.8737,-1.46151 -0.774462,-0.34981 -1.748794,-0.52465 -2.922998,-0.52465 -1.498934,0 -2.79802,0.41237 -3.897285,1.23666 -1.099239,0.82442 -1.836226,1.91119 -2.210918,3.26024 h -0.07518 c -0.324944,-1.42404 -0.999381,-2.53574 -2.023632,-3.33521 -0.999335,-0.82442 -2.248459,-1.21168 -3.747422,-1.16171 -0.749481,0 -1.461459,0.13763 -2.135997,0.41233 -0.649579,0.25024 -1.248934,0.61208 -1.798516,1.08677 -0.549633,0.47469 -1.079088,0.99993 -1.386808,1.64884 -0.375819,0.79248 -0.407336,1.71231 -0.487514,2.58571 z" />
      <path
         inkscape:connector-curvature="0"
         id="path1092"
         style="font-style:normal;font-variant:normal;font-weight:100;font-stretch:normal;font-size:medium;line-height:100%;font-family:'Helvetica Neue';-inkscape-font-specification:'Helvetica Neue, Thin';font-variant-ligatures:normal;font-variant-caps:normal;font-variant-numeric:normal;font-feature-settings:normal;text-align:start;letter-spacing:0px;word-spacing:0px;writing-mode:lr-tb;text-anchor:start;fill:#00ced1;fill-opacity:1;stroke:#00ced1;stroke-width:1.05862;stroke-linecap:butt;stroke-linejoin:miter;stroke-miterlimit:4;stroke-dasharray:none;stroke-opacity:1"
         d="m 78.553013,350.99315 v 20.0792 h 0.782578 v -20.0792 z" />
    </g>
    <g
       id="g1106"
       transform="matrix(0.55002643,0,0,0.55002643,129.84609,159.65735)">
      <g
         id="g1104">
        <g
           aria-label="t"
           transform="scale(1.0008822,0.99911858)"
           id="text1098"
           style="font-size:40.8546px;line-height:1.25;font-family:sans-serif;fill:#00ced2;fill-opacity:0.968627;stroke:none;stroke-width:1.39473;stroke-linecap:square;stroke-miterlimit:4;stroke-dasharray:none;stroke-opacity:1;paint-order:fill markers stroke">
          <path
             d="m 348.13038,367.35526 q -1.05727,0.27928 -2.31403,0.45882 -1.23681,0.17954 -2.21429,0.17954 -3.4112,0 -5.18662,-1.83527 -1.77542,-1.83526 -1.77542,-5.88482 V 348.4241 h -2.53346 v -3.15186 h 2.53346 v -6.40348 h 3.75033 v 6.40348 h 7.74003 v 3.15186 h -7.74003 v 10.15381 q 0,1.75547 0.0798,2.7529 0.0798,0.97747 0.55856,1.83526 0.43887,0.79794 1.19691,1.17696 0.778,0.35908 2.35393,0.35908 0.91763,0 1.91506,-0.25933 0.99743,-0.27928 1.43629,-0.45882 h 0.19949 z"
             style="fill:#00ced2;fill-opacity:0.968627;stroke:none;stroke-width:1.39473;stroke-linecap:square;stroke-miterlimit:4;stroke-dasharray:none;stroke-opacity:1;paint-order:fill markers stroke"
             id="path1582" />
        </g>
        <path
           d="m 291.37607,350.84533 c 0.34804,-1.13148 0.82682,-2.1179 1.43609,-2.95925 0.63829,-0.87036 1.40709,-1.55214 2.30646,-2.04533 0.8994,-0.52202 1.90034,-0.78336 3.00275,-0.78336 1.24756,0 2.26297,0.20279 3.04631,0.60927 0.78333,0.40632 1.39254,0.95739 1.82775,1.6537 0.43571,0.6963 0.72531,1.50864 0.8704,2.43702 0.17406,0.92839 0.26136,1.91479 0.26136,2.95925 v 14.36132 l 0.87037,-3e-4 v -14.18696 c 0,-1.04443 0.15956,-2.03083 0.47883,-2.95925 0.31903,-0.95738 0.78333,-1.79874 1.39261,-2.52403 0.60924,-0.72531 1.34906,-1.29106 2.21939,-1.69723 0.87039,-0.43558 1.84229,-0.65279 2.91576,-0.65279 1.21851,0 2.21945,0.17406 3.00273,0.52213 0.81236,0.34806 1.45062,0.84135 1.91481,1.47963 0.49314,0.63825 0.82685,1.40711 1.00091,2.30646 0.20279,0.89937 0.30494,1.90031 0.30494,3.00275 v 14.70918 h 0.87031 v -14.70918 c 0,-1.21851 -0.11632,-2.32099 -0.34807,-3.30739 -0.23208,-1.01541 -0.62378,-1.87127 -1.175,-2.56755 -0.55127,-0.72534 -1.27651,-1.29106 -2.17591,-1.69724 -0.89937,-0.40622 -2.03085,-0.60924 -3.39444,-0.60924 -1.7407,0 -3.24932,0.47887 -4.52588,1.43609 -1.27654,0.9574 -2.1324,2.21945 -2.56752,3.78609 h -0.0873 c -0.37736,-1.65373 -1.16057,-2.94473 -2.35003,-3.87315 -1.16051,-0.95739 -2.61111,-1.40711 -4.35184,-1.34908 -0.87037,0 -1.69718,0.15983 -2.48051,0.47883 -0.75436,0.29061 -1.45038,0.7108 -2.0886,1.26206 -0.63829,0.55128 -1.25314,1.16123 -1.61049,1.91479 -0.43644,0.92032 -0.47304,1.98849 -0.56615,3.00276 z"
           id="path1100"
           inkscape:connector-curvature="0"
           sodipodi:nodetypes="cccssscsccscccscccsccscccsscccccsac"
           style="font-style:normal;font-variant:normal;font-weight:100;font-stretch:normal;font-size:medium;line-height:100%;font-family:'Helvetica Neue';-inkscape-font-specification:'Helvetica Neue, Thin';font-variant-ligatures:normal;font-variant-caps:normal;font-variant-numeric:normal;font-feature-settings:normal;text-align:start;letter-spacing:0px;word-spacing:0px;writing-mode:lr-tb;text-anchor:start;fill:#00ced1;fill-opacity:1;stroke:#00ced1;stroke-width:1.651;stroke-linecap:butt;stroke-linejoin:miter;stroke-miterlimit:4;stroke-dasharray:none;stroke-opacity:1" />
        <path
           inkscape:connector-curvature="0"
           id="path1102"
           style="font-style:normal;font-variant:normal;font-weight:100;font-stretch:normal;font-size:medium;line-height:100%;font-family:'Helvetica Neue';-inkscape-font-specification:'Helvetica Neue, Thin';font-variant-ligatures:normal;font-variant-caps:normal;font-variant-numeric:normal;font-feature-settings:normal;text-align:start;letter-spacing:0px;word-spacing:0px;writing-mode:lr-tb;text-anchor:start;fill:#00ced1;fill-opacity:1;stroke:#00ced1;stroke-width:1.22936;stroke-linecap:butt;stroke-linejoin:miter;stroke-miterlimit:4;stroke-dasharray:none;stroke-opacity:1"
           d="m 325.23134,343.97134 v 23.31778 h 0.9088 v -23.31778 z" />
      </g>
    </g>
    <g
       id="g1255"
       transform="matrix(0.90004358,0,0,0.90004358,-11.985186,-127.78775)">
      <g
         aria-label="t"
         transform="scale(1.0008822,0.99911858)"
         id="text1122"
         style="font-size:62.4167px;line-height:1.25;font-family:sans-serif;fill:#00ced2;fill-opacity:0.968627;stroke:none;stroke-width:2.13083;stroke-linecap:square;stroke-miterlimit:4;stroke-dasharray:none;stroke-opacity:1;paint-order:fill markers stroke">
        <path
           d="m 247.11459,550.89805 q -1.61528,0.42668 -3.53532,0.70097 -1.88957,0.27429 -3.38294,0.27429 -5.21155,0 -7.92399,-2.80387 -2.71245,-2.80388 -2.71245,-8.99069 v -18.10328 h -3.87056 v -4.81535 h 3.87056 v -9.78309 h 5.72966 v 9.78309 h 11.82504 v 4.81535 h -11.82504 v 15.51274 q 0,2.68197 0.12191,4.20582 0.12191,1.49336 0.85335,2.80387 0.67049,1.21908 1.82862,1.79814 1.1886,0.54858 3.59627,0.54858 1.40194,0 2.92578,-0.3962 1.52385,-0.42667 2.19434,-0.70097 h 0.30477 z"
           style="fill:#00ced2;fill-opacity:0.968627;stroke:none;stroke-width:2.13083;stroke-linecap:square;stroke-miterlimit:4;stroke-dasharray:none;stroke-opacity:1;paint-order:fill markers stroke"
           id="path1585" />
      </g>
      <path
         d="m 160.15544,525.68363 c 0.53173,-1.72866 1.26319,-3.23567 2.19403,-4.52107 0.97515,-1.32972 2.14971,-2.37132 3.52374,-3.12481 1.37409,-0.79753 2.9033,-1.19681 4.58755,-1.19681 1.90599,0 3.45731,0.30983 4.65407,0.93084 1.19676,0.62075 2.1275,1.46268 2.79241,2.52647 0.66566,1.0638 1.10811,2.30488 1.32977,3.72324 0.26592,1.41837 0.3993,2.92538 0.3993,4.52107 v 21.94092 l 1.32973,-4.7e-4 v -21.67452 c 0,-1.59566 0.24377,-3.10267 0.73155,-4.52107 0.48742,-1.46268 1.19676,-2.74808 2.1276,-3.85616 0.93078,-1.10811 2.06106,-1.97246 3.39074,-2.593 1.32976,-0.66546 2.81461,-0.99732 4.45462,-0.99732 1.86162,0 3.39083,0.26593 4.5875,0.79771 1.24113,0.53176 2.21623,1.28539 2.92542,2.26054 0.75341,0.97511 1.26324,2.14976 1.52917,3.52375 0.30982,1.37405 0.46588,2.90326 0.46588,4.58755 v 22.47235 h 1.32964 v -22.47235 c 0,-1.86162 -0.17772,-3.54596 -0.53178,-5.05297 -0.35457,-1.55132 -0.95299,-2.85888 -1.79513,-3.92263 -0.84223,-1.10816 -1.95022,-1.97247 -3.32431,-2.59301 -1.37404,-0.62062 -3.1027,-0.93078 -5.18596,-0.93078 -2.6594,0 -4.96423,0.73159 -6.91454,2.19402 -1.95026,1.46269 -3.25782,3.39084 -3.9226,5.78431 h -0.13339 c -0.57651,-2.52653 -1.7731,-4.4989 -3.59031,-5.91731 -1.77302,-1.46269 -3.98921,-2.14975 -6.64866,-2.06111 -1.32972,0 -2.59291,0.24419 -3.78967,0.73155 -1.15248,0.44398 -2.21585,1.08596 -3.19091,1.92815 -0.97516,0.84223 -1.91452,1.77409 -2.46047,2.92537 -0.66678,1.40605 -0.72269,3.03797 -0.86494,4.58755 z"
         id="path1108"
         inkscape:connector-curvature="0"
         sodipodi:nodetypes="cccssscsccscccscccsccscccsscccccsac"
         style="font-style:normal;font-variant:normal;font-weight:100;font-stretch:normal;font-size:medium;line-height:100%;font-family:'Helvetica Neue';-inkscape-font-specification:'Helvetica Neue, Thin';font-variant-ligatures:normal;font-variant-caps:normal;font-variant-numeric:normal;font-feature-settings:normal;text-align:start;letter-spacing:0px;word-spacing:0px;writing-mode:lr-tb;text-anchor:start;fill:#00ced1;fill-opacity:1;stroke:#00ced1;stroke-width:2.52236;stroke-linecap:butt;stroke-linejoin:miter;stroke-miterlimit:4;stroke-dasharray:none;stroke-opacity:1" />
      <path
         inkscape:connector-curvature="0"
         id="path1114"
         style="font-style:normal;font-variant:normal;font-weight:100;font-stretch:normal;font-size:medium;line-height:100%;font-family:'Helvetica Neue';-inkscape-font-specification:'Helvetica Neue, Thin';font-variant-ligatures:normal;font-variant-caps:normal;font-variant-numeric:normal;font-feature-settings:normal;text-align:start;letter-spacing:0px;word-spacing:0px;writing-mode:lr-tb;text-anchor:start;fill:#00ced1;fill-opacity:1;stroke:#00ced1;stroke-width:1.8782;stroke-linecap:butt;stroke-linejoin:miter;stroke-miterlimit:4;stroke-dasharray:none;stroke-opacity:1"
         d="m 211.87877,515.18171 v 35.62437 h 1.38844 v -35.62437 z" />
    </g>
    <g
       id="g1136"
       transform="matrix(0.78753717,0,0,0.78753717,51.891353,68.349651)">
      <g
         aria-label="t"
         transform="scale(1.0008822,0.99911858)"
         id="text1130"
         style="font-size:24.9667px;line-height:1.25;font-family:sans-serif;fill:#00ced2;fill-opacity:0.968627;stroke:none;stroke-width:0.852332;stroke-linecap:square;stroke-miterlimit:4;stroke-dasharray:none;stroke-opacity:1;paint-order:fill markers stroke">
        <path
           d="m 283.13063,354.81559 q -0.64611,0.17067 -1.41413,0.28039 -0.75583,0.10972 -1.35318,0.10972 -2.08462,0 -3.1696,-1.12155 -1.08498,-1.12155 -1.08498,-3.59628 v -7.24132 h -1.54822 v -1.92614 h 1.54822 v -3.91324 h 2.29187 v 3.91324 h 4.73002 v 1.92614 h -4.73002 v 6.2051 q 0,1.07279 0.0488,1.68233 0.0488,0.59735 0.34134,1.12155 0.2682,0.48763 0.73145,0.71926 0.47544,0.21943 1.43851,0.21943 0.56078,0 1.17031,-0.15848 0.60954,-0.17067 0.87774,-0.28039 h 0.12191 z"
           style="fill:#00ced2;fill-opacity:0.968627;stroke:none;stroke-width:0.852332;stroke-linecap:square;stroke-miterlimit:4;stroke-dasharray:none;stroke-opacity:1;paint-order:fill markers stroke"
           id="path1588" />
      </g>
      <path
         d="m 248.50951,344.6113 c 0.2127,-0.69147 0.50529,-1.29427 0.87762,-1.80843 0.39007,-0.53189 0.85988,-0.94853 1.4095,-1.24993 0.54963,-0.31901 1.16131,-0.47872 1.83502,-0.47872 0.76239,0 1.38292,0.12393 1.86162,0.37233 0.47871,0.24831 0.85101,0.58507 1.11697,1.0106 0.26626,0.42551 0.44325,0.92195 0.53191,1.48929 0.10636,0.56735 0.15972,1.17015 0.15972,1.80843 v 8.77637 l 0.53189,-1.9e-4 v -8.66982 c 0,-0.63825 0.0975,-1.24106 0.29262,-1.80842 0.19497,-0.58508 0.4787,-1.09923 0.85103,-1.54246 0.37232,-0.44325 0.82443,-0.78899 1.35631,-1.03721 0.5319,-0.26618 1.12584,-0.39892 1.78184,-0.39892 0.74465,0 1.35633,0.10637 1.83501,0.31908 0.49644,0.21271 0.88648,0.51416 1.17016,0.90422 0.30136,0.39005 0.5053,0.8599 0.61166,1.4095 0.12393,0.54961 0.18636,1.1613 0.18636,1.83501 v 8.98895 h 0.53185 v -8.98895 c 0,-0.74464 -0.0711,-1.41838 -0.2127,-2.02118 -0.14183,-0.62053 -0.3812,-1.14355 -0.71806,-1.56905 -0.33689,-0.44327 -0.78008,-0.78899 -1.32972,-1.0372 -0.54962,-0.24825 -1.24108,-0.37232 -2.07439,-0.37232 -1.06375,0 -1.98569,0.29264 -2.76581,0.87761 -0.7801,0.58508 -1.30313,1.35633 -1.56904,2.31373 h -0.0533 c -0.2306,-1.01061 -0.70923,-1.79956 -1.43611,-2.36693 -0.70921,-0.58508 -1.59569,-0.8599 -2.65947,-0.82444 -0.53189,0 -1.03716,0.0977 -1.51587,0.29262 -0.46099,0.17759 -0.88633,0.43438 -1.27636,0.77126 -0.39007,0.33689 -0.7658,0.70963 -0.98419,1.17015 -0.26671,0.56241 -0.28908,1.21518 -0.34597,1.83502 z"
         id="path1132"
         inkscape:connector-curvature="0"
         sodipodi:nodetypes="cccssscsccscccscccsccscccsscccccsac"
         style="font-style:normal;font-variant:normal;font-weight:100;font-stretch:normal;font-size:medium;line-height:100%;font-family:'Helvetica Neue';-inkscape-font-specification:'Helvetica Neue, Thin';font-variant-ligatures:normal;font-variant-caps:normal;font-variant-numeric:normal;font-feature-settings:normal;text-align:start;letter-spacing:0px;word-spacing:0px;writing-mode:lr-tb;text-anchor:start;fill:#00ced1;fill-opacity:1;stroke:#00ced1;stroke-width:1.00895;stroke-linecap:butt;stroke-linejoin:miter;stroke-miterlimit:4;stroke-dasharray:none;stroke-opacity:1" />
      <path
         inkscape:connector-curvature="0"
         id="path1134"
         style="font-style:normal;font-variant:normal;font-weight:100;font-stretch:normal;font-size:medium;line-height:100%;font-family:'Helvetica Neue';-inkscape-font-specification:'Helvetica Neue, Thin';font-variant-ligatures:normal;font-variant-caps:normal;font-variant-numeric:normal;font-feature-settings:normal;text-align:start;letter-spacing:0px;word-spacing:0px;writing-mode:lr-tb;text-anchor:start;fill:#00ced1;fill-opacity:1;stroke:#00ced1;stroke-width:0.751278;stroke-linecap:butt;stroke-linejoin:miter;stroke-miterlimit:4;stroke-dasharray:none;stroke-opacity:1"
         d="m 269.19885,340.41053 v 14.24975 h 0.55538 v -14.24975 z" />
    </g>
    <g
       id="g1146"
       transform="matrix(0.90334758,0,0,0.90334758,-12.773346,26.040632)">
      <g
         aria-label="t"
         transform="scale(1.0008822,0.99911858)"
         id="text1140"
         style="font-size:24.9667px;line-height:1.25;font-family:sans-serif;fill:#00ced2;fill-opacity:0.968627;stroke:none;stroke-width:0.852332;stroke-linecap:square;stroke-miterlimit:4;stroke-dasharray:none;stroke-opacity:1;paint-order:fill markers stroke">
        <path
           d="m 140.9794,372.90251 q -0.64611,0.17067 -1.41413,0.28038 -0.75583,0.10972 -1.35318,0.10972 -2.08462,0 -3.1696,-1.12155 -1.08498,-1.12155 -1.08498,-3.59628 v -7.24132 h -1.54822 v -1.92614 h 1.54822 v -3.91324 h 2.29187 v 3.91324 h 4.73002 v 1.92614 h -4.73002 v 6.20511 q 0,1.07278 0.0488,1.68232 0.0488,0.59735 0.34134,1.12155 0.2682,0.48764 0.73145,0.71926 0.47544,0.21943 1.43851,0.21943 0.56078,0 1.17031,-0.15848 0.60954,-0.17067 0.87774,-0.28038 h 0.12191 z"
           style="fill:#00ced2;fill-opacity:0.968627;stroke:none;stroke-width:0.852332;stroke-linecap:square;stroke-miterlimit:4;stroke-dasharray:none;stroke-opacity:1;paint-order:fill markers stroke"
           id="path1591" />
      </g>
      <path
         d="m 106.2329,362.68228 c 0.2127,-0.69147 0.50528,-1.29427 0.87762,-1.80843 0.39006,-0.53189 0.85988,-0.94853 1.4095,-1.24993 0.54963,-0.31901 1.16131,-0.47872 1.83501,-0.47872 0.7624,0 1.38293,0.12393 1.86163,0.37233 0.4787,0.24831 0.851,0.58507 1.11697,1.0106 0.26626,0.42551 0.44324,0.92195 0.5319,1.48929 0.10637,0.56735 0.15972,1.17015 0.15972,1.80843 v 8.77637 l 0.53189,-1.9e-4 v -8.66982 c 0,-0.63825 0.0975,-1.24106 0.29263,-1.80842 0.19496,-0.58507 0.4787,-1.09923 0.85103,-1.54246 0.37232,-0.44325 0.82442,-0.78899 1.3563,-1.03721 0.53191,-0.26618 1.12585,-0.39892 1.78185,-0.39892 0.74464,0 1.35633,0.10638 1.835,0.31908 0.49645,0.21271 0.88649,0.51416 1.17017,0.90422 0.30136,0.39005 0.50529,0.8599 0.61166,1.4095 0.12393,0.54962 0.18636,1.1613 0.18636,1.83502 v 8.98894 h 0.53185 v -8.98894 c 0,-0.74465 -0.0711,-1.41839 -0.21271,-2.02119 -0.14183,-0.62053 -0.3812,-1.14355 -0.71805,-1.56905 -0.33689,-0.44327 -0.78009,-0.78899 -1.32973,-1.0372 -0.54962,-0.24825 -1.24108,-0.37232 -2.07438,-0.37232 -1.06376,0 -1.9857,0.29264 -2.76581,0.87761 -0.78011,0.58508 -1.30313,1.35633 -1.56904,2.31373 h -0.0534 c -0.23061,-1.01061 -0.70924,-1.79956 -1.43613,-2.36693 -0.70921,-0.58508 -1.59568,-0.8599 -2.65946,-0.82444 -0.53189,0 -1.03717,0.0977 -1.51587,0.29262 -0.46099,0.17759 -0.88634,0.43438 -1.27637,0.77126 -0.39006,0.33689 -0.7658,0.70963 -0.98418,1.17015 -0.26671,0.56241 -0.28908,1.21518 -0.34598,1.83502 z"
         id="path1142"
         inkscape:connector-curvature="0"
         sodipodi:nodetypes="cccssscsccscccscccsccscccsscccccsac"
         style="font-style:normal;font-variant:normal;font-weight:100;font-stretch:normal;font-size:medium;line-height:100%;font-family:'Helvetica Neue';-inkscape-font-specification:'Helvetica Neue, Thin';font-variant-ligatures:normal;font-variant-caps:normal;font-variant-numeric:normal;font-feature-settings:normal;text-align:start;letter-spacing:0px;word-spacing:0px;writing-mode:lr-tb;text-anchor:start;fill:#00ced1;fill-opacity:1;stroke:#00ced1;stroke-width:1.00895;stroke-linecap:butt;stroke-linejoin:miter;stroke-miterlimit:4;stroke-dasharray:none;stroke-opacity:1" />
      <path
         inkscape:connector-curvature="0"
         id="path1144"
         style="font-style:normal;font-variant:normal;font-weight:100;font-stretch:normal;font-size:medium;line-height:100%;font-family:'Helvetica Neue';-inkscape-font-specification:'Helvetica Neue, Thin';font-variant-ligatures:normal;font-variant-caps:normal;font-variant-numeric:normal;font-feature-settings:normal;text-align:start;letter-spacing:0px;word-spacing:0px;writing-mode:lr-tb;text-anchor:start;fill:#00ced1;fill-opacity:1;stroke:#00ced1;stroke-width:0.751278;stroke-linecap:butt;stroke-linejoin:miter;stroke-miterlimit:4;stroke-dasharray:none;stroke-opacity:1"
         d="m 126.92224,358.48151 v 14.24975 h 0.55538 v -14.24975 z" />
    </g>
    <g
       id="g1156"
       transform="matrix(0.95197065,0,0,0.95197065,-9.730977,11.054477)">
      <g
         aria-label="t"
         transform="scale(1.0008822,0.99911857)"
         id="text1150"
         style="font-size:14.753px;line-height:1.25;font-family:sans-serif;fill:#00ced2;fill-opacity:0.968627;stroke:none;stroke-width:0.50365;stroke-linecap:square;stroke-miterlimit:4;stroke-dasharray:none;stroke-opacity:1;paint-order:fill markers stroke">
        <path
           d="m 252.72617,363.64699 q -0.38179,0.10085 -0.83562,0.16568 -0.44662,0.0648 -0.7996,0.0648 -1.23182,0 -1.87294,-0.66273 -0.64112,-0.66273 -0.64112,-2.12506 v -4.27895 h -0.91486 v -1.13817 h 0.91486 v -2.31236 h 1.35428 v 2.31236 h 2.795 v 1.13817 h -2.795 v 3.66664 q 0,0.63392 0.0288,0.9941 0.0288,0.35297 0.2017,0.66273 0.15848,0.28814 0.43221,0.42501 0.28094,0.12967 0.85003,0.12967 0.33137,0 0.69155,-0.0937 0.36018,-0.10085 0.51866,-0.16568 h 0.072 z"
           style="fill:#00ced2;fill-opacity:0.968627;stroke:none;stroke-width:0.50365;stroke-linecap:square;stroke-miterlimit:4;stroke-dasharray:none;stroke-opacity:1;paint-order:fill markers stroke"
           id="path1594" />
      </g>
      <path
         d="m 232.34365,357.48145 c 0.12568,-0.40859 0.29857,-0.76479 0.51859,-1.06862 0.23049,-0.31429 0.50811,-0.56049 0.83288,-0.73859 0.32479,-0.1885 0.68624,-0.28288 1.08433,-0.28288 0.45051,0 0.81718,0.0732 1.10005,0.22001 0.28288,0.14673 0.50287,0.34573 0.66003,0.59717 0.15734,0.25145 0.26191,0.5448 0.3143,0.88004 0.0628,0.33525 0.0944,0.69145 0.0944,1.06862 v 5.18603 l 0.3143,-1e-4 v -5.12308 c 0,-0.37715 0.0576,-0.73336 0.17291,-1.06862 0.11521,-0.34572 0.28287,-0.64954 0.50289,-0.91145 0.22,-0.26192 0.48715,-0.46621 0.80145,-0.61289 0.31431,-0.15729 0.66526,-0.23573 1.05291,-0.23573 0.44002,0 0.80146,0.0628 1.08432,0.18855 0.29335,0.12569 0.52383,0.30382 0.69146,0.53431 0.17808,0.23048 0.29858,0.50812 0.36143,0.83288 0.0732,0.32478 0.11012,0.68623 0.11012,1.08434 v 5.31164 h 0.31428 v -5.31164 c 0,-0.44002 -0.042,-0.83814 -0.12569,-1.19434 -0.0838,-0.36667 -0.22525,-0.67574 -0.4243,-0.92717 -0.19908,-0.26193 -0.46097,-0.46622 -0.78575,-0.61289 -0.32478,-0.1467 -0.73336,-0.22001 -1.22577,-0.22001 -0.62859,0 -1.17336,0.17293 -1.63435,0.51859 -0.46097,0.34573 -0.77003,0.80147 -0.92716,1.3672 h -0.0315 c -0.13626,-0.59718 -0.41909,-1.06338 -0.84861,-1.39864 -0.41908,-0.34572 -0.94291,-0.50812 -1.5715,-0.48717 -0.3143,0 -0.61287,0.0577 -0.89575,0.17292 -0.2724,0.10494 -0.52374,0.25668 -0.75421,0.45574 -0.23049,0.19908 -0.45253,0.41933 -0.58157,0.69145 -0.1576,0.33234 -0.17082,0.71807 -0.20443,1.08433 z"
         id="path1152"
         inkscape:connector-curvature="0"
         sodipodi:nodetypes="cccssscsccscccscccsccscccsscccccsac"
         style="font-style:normal;font-variant:normal;font-weight:100;font-stretch:normal;font-size:medium;line-height:100%;font-family:'Helvetica Neue';-inkscape-font-specification:'Helvetica Neue, Thin';font-variant-ligatures:normal;font-variant-caps:normal;font-variant-numeric:normal;font-feature-settings:normal;text-align:start;letter-spacing:0px;word-spacing:0px;writing-mode:lr-tb;text-anchor:start;fill:#00ced1;fill-opacity:1;stroke:#00ced1;stroke-width:0.596194;stroke-linecap:butt;stroke-linejoin:miter;stroke-miterlimit:4;stroke-dasharray:none;stroke-opacity:1" />
      <path
         inkscape:connector-curvature="0"
         id="path1154"
         style="font-style:normal;font-variant:normal;font-weight:100;font-stretch:normal;font-size:medium;line-height:100%;font-family:'Helvetica Neue';-inkscape-font-specification:'Helvetica Neue, Thin';font-variant-ligatures:normal;font-variant-caps:normal;font-variant-numeric:normal;font-feature-settings:normal;text-align:start;letter-spacing:0px;word-spacing:0px;writing-mode:lr-tb;text-anchor:start;fill:#00ced1;fill-opacity:1;stroke:#00ced1;stroke-width:0.443937;stroke-linecap:butt;stroke-linejoin:miter;stroke-miterlimit:4;stroke-dasharray:none;stroke-opacity:1"
         d="m 244.56916,354.99918 v 8.42031 h 0.32818 v -8.42031 z" />
    </g>
  </g>
</svg>
