<?xml version="1.0" encoding="UTF-8" standalone="no"?>
<svg
   xmlns:dc="http://purl.org/dc/elements/1.1/"
   xmlns:cc="http://creativecommons.org/ns#"
   xmlns:rdf="http://www.w3.org/1999/02/22-rdf-syntax-ns#"
   xmlns:svg="http://www.w3.org/2000/svg"
   xmlns="http://www.w3.org/2000/svg"
   xmlns:sodipodi="http://sodipodi.sourceforge.net/DTD/sodipodi-0.dtd"
   xmlns:inkscape="http://www.inkscape.org/namespaces/inkscape"
   width="1210"
   height="475"
   viewBox="0 0 320.14584 125.67709"
   version="1.1"
   id="svg8"
   inkscape:version="1.0.1 (c497b03c, 2020-09-10)"
   sodipodi:docname="schwim_mit_logo_blau.svg"
   inkscape:export-filename="/Users/neuneu/moniana-logo.png"
   inkscape:export-xdpi="150.01875"
   inkscape:export-ydpi="150.01875">
  <defs
     id="defs2">
    <rect
       x="12.295913"
       y="216.34821"
       width="123.96288"
       height="30.11244"
       id="rect875" />
    <inkscape:path-effect
       effect="spiro"
       id="path-effect1243"
       is_visible="true"
       lpeversion="0" />
    <inkscape:path-effect
       is_visible="true"
       id="path-effect1131"
       effect="spiro"
       lpeversion="0" />
    <inkscape:path-effect
       is_visible="true"
       id="path-effect1032"
       effect="spiro"
       lpeversion="0" />
    <inkscape:path-effect
       effect="spiro"
       id="path-effect1028"
       is_visible="true"
       lpeversion="0" />
    <inkscape:path-effect
       effect="spiro"
       id="path-effect1005"
       is_visible="true"
       lpeversion="0" />
    <inkscape:path-effect
       is_visible="true"
       id="path-effect1147"
       effect="spiro"
       lpeversion="0" />
    <inkscape:path-effect
       effect="spiro"
       id="path-effect1024"
       is_visible="true"
       lpeversion="0" />
    <inkscape:path-effect
       is_visible="true"
       id="path-effect1019"
       effect="spiro"
       lpeversion="0" />
    <inkscape:path-effect
       is_visible="true"
       id="path-effect1015"
       effect="spiro"
       lpeversion="0" />
    <inkscape:path-effect
       effect="spiro"
       id="path-effect1021"
       is_visible="true"
       lpeversion="0" />
    <inkscape:path-effect
       effect="spiro"
       id="path-effect902"
       is_visible="true"
       lpeversion="0" />
  </defs>
  <sodipodi:namedview
     id="base"
     pagecolor="#ffffff"
     bordercolor="#666666"
     borderopacity="1.0"
     inkscape:pageopacity="0.0"
     inkscape:pageshadow="2"
     inkscape:zoom="0.43332432"
     inkscape:cx="692.16098"
     inkscape:cy="152.1045"
     inkscape:document-units="mm"
     inkscape:current-layer="layer1"
     showgrid="false"
     inkscape:window-width="1440"
     inkscape:window-height="847"
     inkscape:window-x="0"
     inkscape:window-y="25"
     inkscape:window-maximized="1"
     units="px"
     showborder="true"
     inkscape:document-rotation="0"
     showguides="true"
     inkscape:guide-bbox="true">
    <sodipodi:guide
       position="23.953959,-350.20951"
       orientation="0,-1"
       id="guide1405" />
    <sodipodi:guide
       position="13.687977,518.97701"
       orientation="0,-1"
       id="guide1407" />
  </sodipodi:namedview>
  <metadata
     id="metadata5">
    <rdf:RDF>
      <cc:Work
         rdf:about="">
        <dc:format>image/svg+xml</dc:format>
        <dc:type
           rdf:resource="http://purl.org/dc/dcmitype/StillImage" />
        <dc:title />
      </cc:Work>
    </rdf:RDF>
  </metadata>
  <g
     inkscape:label="Ebene 1"
     inkscape:groupmode="layer"
     id="layer1"
     transform="translate(0,-256.99999)">
    <text
       xml:space="preserve"
       id="text873"
       style="font-size:14.11110000000000042px;line-height:1.25;font-family:sans-serif;white-space:pre;shape-inside:url(#rect875);" />
    <g
       id="g908"
       transform="matrix(5.8614991,0,0,7.4807591,-130.99289,-1346.6965)"
       style="fill:#0000ff;stroke:none;stroke-opacity:1"
       inkscape:transform-center-x="1.8329092"
       inkscape:transform-center-y="43.531594" />
    <g
       id="g1005">
      <g
         aria-label="t"
         transform="scale(1.0008822,0.99911858)"
         id="text1475"
         style="font-size:74.4932px;line-height:1.25;font-family:sans-serif;fill:#00ced2;fill-opacity:0.968627;stroke:none;stroke-width:2.5431;stroke-linecap:square;stroke-miterlimit:4;stroke-dasharray:none;stroke-opacity:1;paint-order:fill markers stroke">
        <path
           d="m 213.18821,380.27368 q -1.9278,0.50924 -4.21934,0.8366 -2.25517,0.32736 -4.03747,0.32736 -6.2199,0 -9.45715,-3.34637 -3.23725,-3.34638 -3.23725,-10.73023 v -21.60593 h -4.61945 v -5.74704 h 4.61945 v -11.67593 h 6.83824 v 11.67593 h 14.11297 v 5.74704 h -14.11297 v 18.51418 q 0,3.20088 0.1455,5.01956 0.14549,1.7823 1.01846,3.34637 0.80022,1.45495 2.18242,2.14605 1.41857,0.65472 4.29208,0.65472 1.67319,0 3.49187,-0.47286 1.81868,-0.50923 2.6189,-0.83659 h 0.36374 z"
           style="fill:#00ced2;fill-opacity:0.968627;stroke:none;stroke-width:2.5431;stroke-linecap:square;stroke-miterlimit:4;stroke-dasharray:none;stroke-opacity:1;paint-order:fill markers stroke"
           id="path919" />
      </g>
      <g
         aria-label="t"
         transform="scale(1.0008822,0.99911858)"
         id="text5312"
         style="font-size:74.4932px;line-height:1.25;font-family:sans-serif;fill:#00ced2;fill-opacity:0.968627;stroke:none;stroke-width:2.5431;stroke-linecap:square;stroke-miterlimit:4;stroke-dasharray:none;stroke-opacity:1;paint-order:fill markers stroke">
        <path
           d="m 213.18821,380.27368 q -1.9278,0.50924 -4.21934,0.8366 -2.25517,0.32736 -4.03747,0.32736 -6.2199,0 -9.45715,-3.34637 -3.23725,-3.34638 -3.23725,-10.73023 v -21.60593 h -4.61945 v -5.74704 h 4.61945 v -11.67593 h 6.83824 v 11.67593 h 14.11297 v 5.74704 h -14.11297 v 18.51418 q 0,3.20088 0.1455,5.01956 0.14549,1.7823 1.01846,3.34637 0.80022,1.45495 2.18242,2.14605 1.41857,0.65472 4.29208,0.65472 1.67319,0 3.49187,-0.47286 1.81868,-0.50923 2.6189,-0.83659 h 0.36374 z"
           style="fill:#00ced2;fill-opacity:0.968627;stroke:none;stroke-width:2.5431;stroke-linecap:square;stroke-miterlimit:4;stroke-dasharray:none;stroke-opacity:1;paint-order:fill markers stroke"
           id="path922" />
      </g>
      <g
         aria-label="t"
         transform="scale(1.0008822,0.99911858)"
         id="text5691"
         style="font-size:74.4932px;line-height:1.25;font-family:sans-serif;fill:#000080;fill-opacity:1;stroke:none;stroke-width:2.5431;stroke-linecap:square;stroke-miterlimit:4;stroke-dasharray:none;stroke-opacity:1;paint-order:fill markers stroke">
        <path
           d="m 213.18821,380.27368 q -1.9278,0.50924 -4.21934,0.8366 -2.25517,0.32736 -4.03747,0.32736 -6.2199,0 -9.45715,-3.34637 -3.23725,-3.34638 -3.23725,-10.73023 v -21.60593 h -4.61945 v -5.74704 h 4.61945 v -11.67593 h 6.83824 v 11.67593 h 14.11297 v 5.74704 h -14.11297 v 18.51418 q 0,3.20088 0.1455,5.01956 0.14549,1.7823 1.01846,3.34637 0.80022,1.45495 2.18242,2.14605 1.41857,0.65472 4.29208,0.65472 1.67319,0 3.49187,-0.47286 1.81868,-0.50923 2.6189,-0.83659 h 0.36374 z"
           style="fill:#000080;fill-opacity:1;stroke:none;stroke-width:2.5431;stroke-linecap:square;stroke-miterlimit:4;stroke-dasharray:none;stroke-opacity:1;paint-order:fill markers stroke"
           id="path925" />
      </g>
      <path
         inkscape:connector-curvature="0"
         id="path2289"
         style="font-style:normal;font-variant:normal;font-weight:100;font-stretch:normal;font-size:medium;line-height:100%;font-family:'Helvetica Neue';-inkscape-font-specification:'Helvetica Neue, Thin';font-variant-ligatures:normal;font-variant-caps:normal;font-variant-numeric:normal;font-feature-settings:normal;text-align:start;letter-spacing:0px;word-spacing:0px;writing-mode:lr-tb;text-anchor:start;fill:#00006d;fill-opacity:0.027451;stroke:#00ced1;stroke-width:3.19085;stroke-linecap:butt;stroke-linejoin:miter;stroke-miterlimit:4;stroke-dasharray:none;stroke-opacity:1"
         d="m 83.601987,277.90107 v 36.29911 0 -24.47502 c 0,-2.41112 0.335768,-4.71 1.009135,-6.89681 0.672678,-2.18676 1.65412,-4.0932 2.943757,-5.71926 1.34572,-1.68208 2.99984,-2.99979 4.962312,-3.95294 1.962463,-1.00887 4.233336,-1.514 6.812649,-1.514 1.8503,0 3.58858,0.28071 5.21457,0.84219 1.68214,0.50473 3.14003,1.3456 4.37358,2.52312 1.28964,1.12159 2.29894,2.57933 3.0278,4.37358 0.7292,1.73823 1.09319,3.86891 1.09319,6.39214 v 28.42808 h 1.68221 V 285.5207 c 0,-2.52317 -0.39192,-4.73796 -1.17747,-6.6444 -0.72956,-1.96251 -1.79431,-3.58855 -3.19612,-4.8782 -1.34567,-1.34571 -2.97177,-2.35496 -4.8782,-3.02785 -1.85035,-0.67267 -3.89692,-1.0092 -6.139718,-1.0092 -2.130779,0 -4.065175,0.30878 -5.803405,0.92564 -1.73822,0.56162 -3.280175,1.37373 -4.625836,2.43907 -1.289686,1.0655 -2.383038,2.29894 -3.280175,3.70074 -0.841959,1.40176 -1.457894,2.94376 -1.850346,4.62584 h -0.168425 z"
         sodipodi:nodetypes="cccssccscccsccscccsccccccc" />
      <g
         aria-label="S"
         transform="scale(1.0425834,0.95915591)"
         id="text5340"
         style="font-size:67.8083px;line-height:1.25;font-family:'Helvetica Neue';-inkscape-font-specification:'Helvetica Neue';fill:#00ced1;fill-opacity:1;stroke:none;stroke-width:2.03424;stroke-miterlimit:4;stroke-dasharray:none;stroke-opacity:1">
        <path
           d="m 32.053847,293.91596 h 6.102746 q -0.135616,-4.00069 -1.55959,-6.84864 -1.356166,-2.91576 -3.797265,-4.81439 -2.37329,-1.89863 -5.56028,-2.78014 -3.18699,-0.88151 -6.916447,-0.88151 -3.322606,0 -6.509596,0.88151 -3.119182,0.8137 -5.6280885,2.57672 -2.4410987,1.69521 -3.9328812,4.40754 -1.4917825,2.64452 -1.4917825,6.30617 0,3.32261 1.2883576,5.56028 1.3561659,2.16986 3.5260314,3.59384 2.2376738,1.35616 5.0178142,2.23767 2.78014,0.8137 5.628088,1.49178 2.915757,0.61028 5.695897,1.22055 2.78014,0.61028 4.950006,1.6274 2.237674,0.94932 3.526031,2.50891 1.356166,1.55959 1.356166,4.0685 0,2.64452 -1.084933,4.33973 -1.084932,1.69521 -2.847948,2.71233 -1.763016,0.94932 -4.00069,1.35617 -2.169865,0.40685 -4.33973,0.40685 -2.712332,0 -5.289048,-0.67809 -2.576715,-0.67808 -4.543155,-2.10205 -1.8986327,-1.42398 -3.1191821,-3.59384 -1.152741,-2.23768 -1.152741,-5.28905 H 1.2688802 q 0,4.40754 1.5595909,7.66234 1.6273991,3.18699 4.3397309,5.28904 2.7801402,2.03425 6.37398,3.05138 3.661648,1.01712 7.730146,1.01712 3.322606,0 6.645213,-0.8137 3.390414,-0.74589 6.102746,-2.4411 2.712332,-1.76301 4.40754,-4.47534 1.763015,-2.78014 1.763015,-6.64522 0,-3.59384 -1.356166,-5.96713 -1.288357,-2.37329 -3.526031,-3.93288 -2.169866,-1.55959 -4.950006,-2.4411 -2.78014,-0.94931 -5.695897,-1.6274 -2.847948,-0.67808 -5.628088,-1.22055 -2.78014,-0.61027 -5.017814,-1.49178 -2.169866,-0.88151 -3.526031,-2.23767 -1.2883581,-1.42398 -1.2883581,-3.66165 0,-2.37329 0.8815081,-3.93288 0.949316,-1.6274 2.441098,-2.57672 1.559591,-0.94931 3.526032,-1.35616 1.96644,-0.40685 4.000689,-0.40685 5.017814,0 8.204804,2.37329 3.254798,2.30548 3.797265,7.52672 z"
           style="fill:#00ced1;fill-opacity:1;stroke:none;stroke-width:2.03424;stroke-miterlimit:4;stroke-dasharray:none;stroke-opacity:1"
           id="path928" />
      </g>
      <g
         id="g1213"
         transform="matrix(2.4887982,0,0,2.2896447,-175.47728,-435.48736)"
         style="fill:#000080;fill-opacity:1;stroke:none;stroke-width:0.852166;stroke-miterlimit:4;stroke-dasharray:none">
        <g
           aria-label="S"
           id="text1211"
           style="font-size:28.4056px;line-height:1.25;font-family:'Helvetica Neue';-inkscape-font-specification:'Helvetica Neue';fill:#000080;fill-opacity:1;stroke:none;stroke-width:0.852166;stroke-miterlimit:4;stroke-dasharray:none;stroke-opacity:1">
          <path
             d="m 83.934523,313.32311 h 2.556504 q -0.05681,-1.67593 -0.653329,-2.86897 -0.568112,-1.22144 -1.590714,-2.01679 -0.994196,-0.79536 -2.329259,-1.16463 -1.335063,-0.36928 -2.897371,-0.36928 -1.391874,0 -2.726938,0.36928 -1.306657,0.34086 -2.357664,1.07941 -1.022602,0.71014 -1.647525,1.84636 -0.624923,1.10782 -0.624923,2.64173 0,1.39187 0.539706,2.32925 0.568112,0.90898 1.477091,1.5055 0.937385,0.56811 2.102015,0.93739 1.164629,0.34086 2.357664,0.62492 1.221441,0.25565 2.386071,0.5113 1.164629,0.25565 2.073609,0.68173 0.937384,0.39768 1.477091,1.05101 0.568112,0.65333 0.568112,1.70434 0,1.10782 -0.45449,1.81796 -0.454489,0.71014 -1.193035,1.13622 -0.738546,0.39768 -1.67593,0.56811 -0.90898,0.17044 -1.817959,0.17044 -1.136224,0 -2.215637,-0.28406 -1.079412,-0.28406 -1.903175,-0.88057 -0.795357,-0.59652 -1.306657,-1.5055 -0.482895,-0.93739 -0.482895,-2.21564 h -2.556504 q 0,1.84637 0.653328,3.20984 0.681735,1.33506 1.817959,2.21563 1.164629,0.85217 2.670126,1.27825 1.533902,0.42609 3.238238,0.42609 1.391875,0 2.783749,-0.34087 1.42028,-0.31246 2.556504,-1.0226 1.136224,-0.73855 1.846364,-1.87477 0.738546,-1.16463 0.738546,-2.78375 0,-1.5055 -0.568112,-2.49969 -0.539707,-0.9942 -1.477091,-1.64753 -0.90898,-0.65333 -2.073609,-1.0226 -1.16463,-0.39768 -2.386071,-0.68173 -1.193035,-0.28406 -2.357664,-0.5113 -1.16463,-0.25565 -2.102015,-0.62493 -0.908979,-0.36927 -1.477091,-0.93738 -0.539706,-0.59652 -0.539706,-1.5339 0,-0.9942 0.369272,-1.64753 0.397679,-0.68173 1.022602,-1.07941 0.653329,-0.39768 1.477091,-0.56811 0.823763,-0.17044 1.675931,-0.17044 2.102014,0 3.437077,0.9942 1.363469,0.96579 1.590714,3.15302 z"
             style="fill:#000080;fill-opacity:1;stroke:none;stroke-width:0.852166;stroke-miterlimit:4;stroke-dasharray:none;stroke-opacity:1"
             id="path931" />
        </g>
      </g>
      <g
         id="g5374"
         transform="matrix(0.98408003,0,0,0.98408003,-36.502658,0.51295147)">
        <path
           inkscape:connector-curvature="0"
           id="path5368"
           style="font-style:normal;font-variant:normal;font-weight:100;font-stretch:normal;font-size:medium;line-height:100%;font-family:'Helvetica Neue';-inkscape-font-specification:'Helvetica Neue, Thin';font-variant-ligatures:normal;font-variant-caps:normal;font-variant-numeric:normal;font-feature-settings:normal;text-align:start;letter-spacing:0px;word-spacing:0px;writing-mode:lr-tb;text-anchor:start;fill:#000080;fill-opacity:1;stroke:#000080;stroke-width:3.242;stroke-linecap:butt;stroke-linejoin:miter;stroke-miterlimit:4;stroke-dasharray:none;stroke-opacity:1"
           d="m 125.75183,283.46308 v 36.88634 0 -24.87097 c 0,-2.45012 0.3412,-4.78619 1.02546,-7.00838 0.68356,-2.22214 1.68088,-4.15942 2.99138,-5.81178 1.36749,-1.7093 3.04837,-3.04832 5.04259,-4.01689 1.99421,-1.02519 4.30182,-1.53849 6.92286,-1.53849 1.88023,0 3.64663,0.28525 5.29893,0.85581 1.70935,0.5129 3.19083,1.36737 4.44433,2.56394 1.31051,1.13973 2.33613,2.62105 3.07679,4.44433 0.74099,1.76635 1.11087,3.9315 1.11087,6.49555 v 27.28845 h 1.70942 v -27.54501 c 0,-2.56399 -0.39826,-4.81461 -1.19651,-6.75189 -0.74137,-1.99426 -1.82334,-3.64661 -3.24783,-4.95712 -1.36744,-1.36748 -3.01985,-2.39306 -4.95712,-3.07683 -1.88028,-0.68356 -3.95996,-1.02553 -6.23904,-1.02553 -2.16525,0 -4.13094,0.31377 -5.89729,0.94061 -1.76634,0.57071 -3.33324,1.39596 -4.70067,2.47853 -1.31055,1.08274 -2.42159,2.33613 -3.33324,3.76061 -0.85558,1.42444 -1.48148,2.99138 -1.88028,4.70068 h -0.17115 z"
           sodipodi:nodetypes="cccssccscccsccscccscccccc" />
        <path
           inkscape:connector-curvature="0"
           id="path5370"
           style="font-style:normal;font-variant:normal;font-weight:100;font-stretch:normal;font-size:medium;line-height:100%;font-family:'Helvetica Neue';-inkscape-font-specification:'Helvetica Neue, Thin';font-variant-ligatures:normal;font-variant-caps:normal;font-variant-numeric:normal;font-feature-settings:normal;text-align:start;letter-spacing:0px;word-spacing:0px;writing-mode:lr-tb;text-anchor:start;fill:#00ced1;fill-opacity:1;stroke:#00ced1;stroke-width:2.47543;stroke-linecap:butt;stroke-linejoin:miter;stroke-miterlimit:4;stroke-dasharray:none;stroke-opacity:1"
           d="m 121.65377,263.47519 v 55.67131 h 1.54336 v -55.67131 z" />
        <path
           inkscape:connector-curvature="0"
           id="path5372"
           style="font-style:normal;font-variant:normal;font-weight:100;font-stretch:normal;font-size:medium;line-height:100%;font-family:'Helvetica Neue';-inkscape-font-specification:'Helvetica Neue, Thin';font-variant-ligatures:normal;font-variant-caps:normal;font-variant-numeric:normal;font-feature-settings:normal;text-align:start;letter-spacing:0px;word-spacing:0px;writing-mode:lr-tb;text-anchor:start;fill:#00006d;fill-opacity:0.027451;stroke:#00ced1;stroke-width:3.24247;stroke-linecap:butt;stroke-linejoin:miter;stroke-miterlimit:4;stroke-dasharray:none;stroke-opacity:1"
           d="m 122.04764,281.87557 v 36.88634 0 -24.87097 c 0,-2.45012 0.3412,-4.78619 1.02546,-7.00838 0.68356,-2.22214 1.68088,-4.15942 2.99138,-5.81178 1.36749,-1.7093 3.04837,-3.04832 5.04259,-4.01689 1.99421,-1.02519 4.30182,-1.53849 6.92286,-1.53849 1.88023,0 3.64663,0.28525 5.29893,0.85581 1.70935,0.5129 3.19083,1.36737 4.44433,2.56394 1.31051,1.13973 2.33613,2.62105 3.07679,4.44433 0.74099,1.76635 1.11087,3.9315 1.11087,6.49555 v 28.88798 h 1.70942 v -29.14454 c 0,-2.56399 -0.39826,-4.81461 -1.19651,-6.75189 -0.74137,-1.99426 -1.82334,-3.64661 -3.24783,-4.95712 -1.36744,-1.36748 -3.01985,-2.39306 -4.95712,-3.07683 -1.88028,-0.68356 -3.95996,-1.02553 -6.23904,-1.02553 -2.16525,0 -4.13094,0.31377 -5.89729,0.94061 -1.76634,0.57071 -3.33324,1.39596 -4.70067,2.47853 -1.31055,1.08274 -2.42159,2.33613 -3.33324,3.76061 -0.85558,1.42444 -1.48148,2.99138 -1.88028,4.70068 h -0.17115 z"
           sodipodi:nodetypes="cccssccscccsccscccsccccccc" />
      </g>
      <g
         id="g2408"
         transform="matrix(0.98408003,0,0,0.98408003,-128.44987,65.817808)">
        <g
           id="g2406">
          <g
             id="g2400"
             transform="matrix(1.28,0,0,1.28,16.362549,-156.46555)"
             style="fill:#000080;fill-opacity:1;stroke:#000080;stroke-width:2.53281;stroke-miterlimit:4;stroke-dasharray:none;stroke-opacity:1">
            <path
               d="m 173.50113,348.16466 c 0.53471,-1.73836 1.1137,-2.39427 2.04975,-3.68689 0.98063,-1.33719 2.16178,-2.38463 3.54354,-3.14236 1.3818,-0.802 2.91959,-1.20352 4.6133,-1.20352 1.91668,0 3.47672,0.31156 4.6802,0.93606 1.20347,0.62424 2.13944,1.4709 2.80808,2.54066 0.66941,1.06977 1.11434,2.31782 1.33723,3.74414 0.26742,1.42633 0.40156,2.9418 0.40156,4.54645 v 19.32967 l 1.33719,-4.7e-4 v -19.06178 c 0,-1.60461 0.24513,-3.12008 0.73566,-4.54645 0.49014,-1.47089 1.20348,-2.76351 2.13953,-3.87781 0.93602,-1.11433 2.07264,-1.98353 3.40978,-2.60756 1.33723,-0.66919 2.83042,-1.00291 4.47964,-1.00291 1.87207,0 3.40986,0.26742 4.61325,0.80218 1.24809,0.53475 2.22868,1.29261 2.94184,2.27324 0.75765,0.98058 1.27033,2.16182 1.53775,3.54353 0.31156,1.38176 0.4685,2.91956 0.4685,4.6133 v 19.86409 h 1.3371 v -19.86409 c 0,-1.87207 -0.1787,-3.56586 -0.53475,-5.08133 -0.35656,-1.56003 -0.95834,-2.87493 -1.80522,-3.94466 -0.84696,-1.11438 -1.96116,-1.98354 -3.34296,-2.60756 -1.38176,-0.62411 -3.12012,-0.93601 -5.21509,-0.93601 -2.67433,0 -4.9921,0.7357 -6.95335,2.20634 -1.96121,1.4709 -3.27611,3.40987 -3.94462,5.81678 h -0.13414 c -0.57975,-2.54071 -1.78306,-4.52416 -3.61048,-5.95053 -1.78297,-1.4709 -4.0116,-2.16182 -6.68597,-2.07268 -1.33719,0 -2.60748,0.24556 -3.81096,0.73566 -1.15895,0.44647 -2.22829,1.09205 -3.20883,1.93897 -0.98062,0.84696 -1.80548,1.80472 -2.39612,2.9418 -0.6187,1.50163 -0.79129,2.3855 -0.79141,3.75374 z"
               id="path2398"
               inkscape:connector-curvature="0"
               sodipodi:nodetypes="cccssscsccscccscccsccscccsscccccscc"
               style="font-style:normal;font-variant:normal;font-weight:100;font-stretch:normal;font-size:medium;line-height:100%;font-family:'Helvetica Neue';-inkscape-font-specification:'Helvetica Neue, Thin';font-variant-ligatures:normal;font-variant-caps:normal;font-variant-numeric:normal;font-feature-settings:normal;text-align:start;letter-spacing:0px;word-spacing:0px;writing-mode:lr-tb;text-anchor:start;fill:#000080;fill-opacity:1;stroke:#000080;stroke-width:2.53281;stroke-linecap:butt;stroke-linejoin:miter;stroke-miterlimit:4;stroke-dasharray:none;stroke-opacity:1" />
          </g>
          <g
             id="g2404"
             transform="matrix(1.28,0,0,1.28,19.237501,-159.91282)">
            <path
               d="m 173.34454,349.02422 c 0.53471,-1.73836 1.27029,-3.25383 2.20634,-4.54645 0.98063,-1.33719 2.16178,-2.38463 3.54354,-3.14236 1.3818,-0.802 2.91959,-1.20352 4.6133,-1.20352 1.91668,0 3.47672,0.31156 4.6802,0.93606 1.20347,0.62424 2.13944,1.4709 2.80808,2.54066 0.66941,1.06977 1.11434,2.31782 1.33723,3.74414 0.26742,1.42633 0.40156,2.9418 0.40156,4.54645 v 22.0641 l 1.33719,-4.7e-4 v -21.79621 c 0,-1.60461 0.24513,-3.12008 0.73566,-4.54645 0.49014,-1.47089 1.20348,-2.76351 2.13953,-3.87781 0.93602,-1.11433 2.07264,-1.98353 3.40978,-2.60756 1.33723,-0.66919 2.83042,-1.00291 4.47964,-1.00291 1.87207,0 3.40986,0.26742 4.61325,0.80218 1.24809,0.53475 2.22868,1.29261 2.94184,2.27324 0.75765,0.98058 1.27033,2.16182 1.53775,3.54353 0.31156,1.38176 0.4685,2.91956 0.4685,4.6133 v 22.59852 h 1.3371 v -22.59852 c 0,-1.87207 -0.1787,-3.56586 -0.53475,-5.08133 -0.35656,-1.56003 -0.95834,-2.87493 -1.80522,-3.94466 -0.84696,-1.11438 -1.96116,-1.98354 -3.34296,-2.60756 -1.38176,-0.62411 -3.12012,-0.93601 -5.21509,-0.93601 -2.67433,0 -4.9921,0.7357 -6.95335,2.20634 -1.96121,1.4709 -3.27611,3.40987 -3.94462,5.81678 h -0.13414 c -0.57975,-2.54071 -1.78306,-4.52416 -3.61048,-5.95053 -1.78297,-1.4709 -4.0116,-2.16182 -6.68597,-2.07268 -1.33719,0 -2.60748,0.24556 -3.81096,0.73566 -1.15895,0.44647 -2.22829,1.09205 -3.20883,1.93897 -0.98062,0.84696 -1.92525,1.78405 -2.47428,2.9418 -0.67052,1.41394 -0.72675,3.05502 -0.8698,4.6133 z"
               id="path2402"
               inkscape:connector-curvature="0"
               sodipodi:nodetypes="cccssscsccscccscccsccscccsscccccsac"
               style="font-style:normal;font-variant:normal;font-weight:100;font-stretch:normal;font-size:medium;line-height:100%;font-family:'Helvetica Neue';-inkscape-font-specification:'Helvetica Neue, Thin';font-variant-ligatures:normal;font-variant-caps:normal;font-variant-numeric:normal;font-feature-settings:normal;text-align:start;letter-spacing:0px;word-spacing:0px;writing-mode:lr-tb;text-anchor:start;fill:#00ced1;fill-opacity:1;stroke:#00ced1;stroke-width:2.53652;stroke-linecap:butt;stroke-linejoin:miter;stroke-miterlimit:4;stroke-dasharray:none;stroke-opacity:1" />
          </g>
        </g>
      </g>
      <path
         inkscape:connector-curvature="0"
         id="path1467"
         style="font-style:normal;font-variant:normal;font-weight:100;font-stretch:normal;font-size:medium;line-height:100%;font-family:'Helvetica Neue';-inkscape-font-specification:'Helvetica Neue, Thin';font-variant-ligatures:normal;font-variant-caps:normal;font-variant-numeric:normal;font-feature-settings:normal;text-align:start;letter-spacing:0px;word-spacing:0px;writing-mode:lr-tb;text-anchor:start;fill:#00ced1;fill-opacity:1;stroke:#00ced1;stroke-width:2.37911;stroke-linecap:butt;stroke-linejoin:miter;stroke-miterlimit:4;stroke-dasharray:none;stroke-opacity:1"
         d="m 171.13153,334.78651 v 45.12538 h 1.75874 v -45.12538 z" />
      <g
         id="g2394"
         transform="matrix(0.98408003,0,0,0.98408003,26.297538,0.51295147)">
        <g
           id="g2392">
          <g
             id="g2386"
             transform="matrix(1.28,0,0,1.28,16.362549,-156.46555)"
             style="fill:#000080;fill-opacity:1;stroke:#000080;stroke-width:2.53281;stroke-miterlimit:4;stroke-dasharray:none;stroke-opacity:1">
            <path
               d="m 173.50113,348.16466 c 0.53471,-1.73836 1.1137,-2.39427 2.04975,-3.68689 0.98063,-1.33719 2.16178,-2.38463 3.54354,-3.14236 1.3818,-0.802 2.91959,-1.20352 4.6133,-1.20352 1.91668,0 3.47672,0.31156 4.6802,0.93606 1.20347,0.62424 2.13944,1.4709 2.80808,2.54066 0.66941,1.06977 1.11434,2.31782 1.33723,3.74414 0.26742,1.42633 0.40156,2.9418 0.40156,4.54645 v 19.32967 l 1.33719,-4.7e-4 v -19.06178 c 0,-1.60461 0.24513,-3.12008 0.73566,-4.54645 0.49014,-1.47089 1.20348,-2.76351 2.13953,-3.87781 0.93602,-1.11433 2.07264,-1.98353 3.40978,-2.60756 1.33723,-0.66919 2.83042,-1.00291 4.47964,-1.00291 1.87207,0 3.40986,0.26742 4.61325,0.80218 1.24809,0.53475 2.22868,1.29261 2.94184,2.27324 0.75765,0.98058 1.27033,2.16182 1.53775,3.54353 0.31156,1.38176 0.4685,2.91956 0.4685,4.6133 v 19.86409 h 1.3371 v -19.86409 c 0,-1.87207 -0.1787,-3.56586 -0.53475,-5.08133 -0.35656,-1.56003 -0.95834,-2.87493 -1.80522,-3.94466 -0.84696,-1.11438 -1.96116,-1.98354 -3.34296,-2.60756 -1.38176,-0.62411 -3.12012,-0.93601 -5.21509,-0.93601 -2.67433,0 -4.9921,0.7357 -6.95335,2.20634 -1.96121,1.4709 -3.27611,3.40987 -3.94462,5.81678 h -0.13414 c -0.57975,-2.54071 -1.78306,-4.52416 -3.61048,-5.95053 -1.78297,-1.4709 -4.0116,-2.16182 -6.68597,-2.07268 -1.33719,0 -2.60748,0.24556 -3.81096,0.73566 -1.15895,0.44647 -2.22829,1.09205 -3.20883,1.93897 -0.98062,0.84696 -1.80548,1.80472 -2.39612,2.9418 -0.6187,1.50163 -0.79129,2.3855 -0.79141,3.75374 z"
               id="path2384"
               inkscape:connector-curvature="0"
               sodipodi:nodetypes="cccssscsccscccscccsccscccsscccccscc"
               style="font-style:normal;font-variant:normal;font-weight:100;font-stretch:normal;font-size:medium;line-height:100%;font-family:'Helvetica Neue';-inkscape-font-specification:'Helvetica Neue, Thin';font-variant-ligatures:normal;font-variant-caps:normal;font-variant-numeric:normal;font-feature-settings:normal;text-align:start;letter-spacing:0px;word-spacing:0px;writing-mode:lr-tb;text-anchor:start;fill:#000080;fill-opacity:1;stroke:#000080;stroke-width:2.53281;stroke-linecap:butt;stroke-linejoin:miter;stroke-miterlimit:4;stroke-dasharray:none;stroke-opacity:1" />
          </g>
          <g
             id="g2390"
             transform="matrix(1.28,0,0,1.28,19.237501,-159.91282)">
            <path
               d="m 173.34454,349.02422 c 0.53471,-1.73836 1.27029,-3.25383 2.20634,-4.54645 0.98063,-1.33719 2.16178,-2.38463 3.54354,-3.14236 1.3818,-0.802 2.91959,-1.20352 4.6133,-1.20352 1.91668,0 3.47672,0.31156 4.6802,0.93606 1.20347,0.62424 2.13944,1.4709 2.80808,2.54066 0.66941,1.06977 1.11434,2.31782 1.33723,3.74414 0.26742,1.42633 0.40156,2.9418 0.40156,4.54645 v 22.0641 l 1.33719,-4.7e-4 v -21.79621 c 0,-1.60461 0.24513,-3.12008 0.73566,-4.54645 0.49014,-1.47089 1.20348,-2.76351 2.13953,-3.87781 0.93602,-1.11433 2.07264,-1.98353 3.40978,-2.60756 1.33723,-0.66919 2.83042,-1.00291 4.47964,-1.00291 1.87207,0 3.40986,0.26742 4.61325,0.80218 1.24809,0.53475 2.22868,1.29261 2.94184,2.27324 0.75765,0.98058 1.27033,2.16182 1.53775,3.54353 0.31156,1.38176 0.4685,2.91956 0.4685,4.6133 v 22.59852 h 1.3371 v -22.59852 c 0,-1.87207 -0.1787,-3.56586 -0.53475,-5.08133 -0.35656,-1.56003 -0.95834,-2.87493 -1.80522,-3.94466 -0.84696,-1.11438 -1.96116,-1.98354 -3.34296,-2.60756 -1.38176,-0.62411 -3.12012,-0.93601 -5.21509,-0.93601 -2.67433,0 -4.9921,0.7357 -6.95335,2.20634 -1.96121,1.4709 -3.27611,3.40987 -3.94462,5.81678 h -0.13414 c -0.57975,-2.54071 -1.78306,-4.52416 -3.61048,-5.95053 -1.78297,-1.4709 -4.0116,-2.16182 -6.68597,-2.07268 -1.33719,0 -2.60748,0.24556 -3.81096,0.73566 -1.15895,0.44647 -2.22829,1.09205 -3.20883,1.93897 -0.98062,0.84696 -1.92525,1.78405 -2.47428,2.9418 -0.67052,1.41394 -0.72675,3.05502 -0.8698,4.6133 z"
               id="path2388"
               inkscape:connector-curvature="0"
               sodipodi:nodetypes="cccssscsccscccscccsccscccsscccccsac"
               style="font-style:normal;font-variant:normal;font-weight:100;font-stretch:normal;font-size:medium;line-height:100%;font-family:'Helvetica Neue';-inkscape-font-specification:'Helvetica Neue, Thin';font-variant-ligatures:normal;font-variant-caps:normal;font-variant-numeric:normal;font-feature-settings:normal;text-align:start;letter-spacing:0px;word-spacing:0px;writing-mode:lr-tb;text-anchor:start;fill:#00ced1;fill-opacity:1;stroke:#00ced1;stroke-width:2.53652;stroke-linecap:butt;stroke-linejoin:miter;stroke-miterlimit:4;stroke-dasharray:none;stroke-opacity:1" />
          </g>
        </g>
      </g>
      <g
         id="g2360"
         transform="matrix(0.98408003,0,0,0.98408003,-36.502658,0.51295147)">
        <g
           id="g2343">
          <g
             id="g2298"
             transform="matrix(1.28,0,0,1.28,16.362549,-156.46555)"
             style="fill:#000080;fill-opacity:1;stroke:#000080;stroke-width:2.53281;stroke-miterlimit:4;stroke-dasharray:none;stroke-opacity:1">
            <path
               d="m 173.50113,348.16466 c 0.53471,-1.73836 1.1137,-2.39427 2.04975,-3.68689 0.98063,-1.33719 2.16178,-2.38463 3.54354,-3.14236 1.3818,-0.802 2.91959,-1.20352 4.6133,-1.20352 1.91668,0 3.47672,0.31156 4.6802,0.93606 1.20347,0.62424 2.13944,1.4709 2.80808,2.54066 0.66941,1.06977 1.11434,2.31782 1.33723,3.74414 0.26742,1.42633 0.40156,2.9418 0.40156,4.54645 v 19.32967 l 1.33719,-4.7e-4 v -19.06178 c 0,-1.60461 0.24513,-3.12008 0.73566,-4.54645 0.49014,-1.47089 1.20348,-2.76351 2.13953,-3.87781 0.93602,-1.11433 2.07264,-1.98353 3.40978,-2.60756 1.33723,-0.66919 2.83042,-1.00291 4.47964,-1.00291 1.87207,0 3.40986,0.26742 4.61325,0.80218 1.24809,0.53475 2.22868,1.29261 2.94184,2.27324 0.75765,0.98058 1.27033,2.16182 1.53775,3.54353 0.31156,1.38176 0.4685,2.91956 0.4685,4.6133 v 19.86409 h 1.3371 v -19.86409 c 0,-1.87207 -0.1787,-3.56586 -0.53475,-5.08133 -0.35656,-1.56003 -0.95834,-2.87493 -1.80522,-3.94466 -0.84696,-1.11438 -1.96116,-1.98354 -3.34296,-2.60756 -1.38176,-0.62411 -3.12012,-0.93601 -5.21509,-0.93601 -2.67433,0 -4.9921,0.7357 -6.95335,2.20634 -1.96121,1.4709 -3.27611,3.40987 -3.94462,5.81678 h -0.13414 c -0.57975,-2.54071 -1.78306,-4.52416 -3.61048,-5.95053 -1.78297,-1.4709 -4.0116,-2.16182 -6.68597,-2.07268 -1.33719,0 -2.60748,0.24556 -3.81096,0.73566 -1.15895,0.44647 -2.22829,1.09205 -3.20883,1.93897 -0.98062,0.84696 -1.80548,1.80472 -2.39612,2.9418 -0.6187,1.50163 -0.79129,2.3855 -0.79141,3.75374 z"
               id="path2296"
               inkscape:connector-curvature="0"
               sodipodi:nodetypes="cccssscsccscccscccsccscccsscccccscc"
               style="font-style:normal;font-variant:normal;font-weight:100;font-stretch:normal;font-size:medium;line-height:100%;font-family:'Helvetica Neue';-inkscape-font-specification:'Helvetica Neue, Thin';font-variant-ligatures:normal;font-variant-caps:normal;font-variant-numeric:normal;font-feature-settings:normal;text-align:start;letter-spacing:0px;word-spacing:0px;writing-mode:lr-tb;text-anchor:start;fill:#000080;fill-opacity:1;stroke:#000080;stroke-width:2.53281;stroke-linecap:butt;stroke-linejoin:miter;stroke-miterlimit:4;stroke-dasharray:none;stroke-opacity:1" />
          </g>
          <g
             id="g1334"
             transform="matrix(1.28,0,0,1.28,19.237501,-159.91282)">
            <path
               d="m 173.34454,349.02422 c 0.53471,-1.73836 1.27029,-3.25383 2.20634,-4.54645 0.98063,-1.33719 2.16178,-2.38463 3.54354,-3.14236 1.3818,-0.802 2.91959,-1.20352 4.6133,-1.20352 1.91668,0 3.47672,0.31156 4.6802,0.93606 1.20347,0.62424 2.13944,1.4709 2.80808,2.54066 0.66941,1.06977 1.11434,2.31782 1.33723,3.74414 0.26742,1.42633 0.40156,2.9418 0.40156,4.54645 v 22.0641 l 1.33719,-4.7e-4 v -21.79621 c 0,-1.60461 0.24513,-3.12008 0.73566,-4.54645 0.49014,-1.47089 1.20348,-2.76351 2.13953,-3.87781 0.93602,-1.11433 2.07264,-1.98353 3.40978,-2.60756 1.33723,-0.66919 2.83042,-1.00291 4.47964,-1.00291 1.87207,0 3.40986,0.26742 4.61325,0.80218 1.24809,0.53475 2.22868,1.29261 2.94184,2.27324 0.75765,0.98058 1.27033,2.16182 1.53775,3.54353 0.31156,1.38176 0.4685,2.91956 0.4685,4.6133 v 22.59852 h 1.3371 v -22.59852 c 0,-1.87207 -0.1787,-3.56586 -0.53475,-5.08133 -0.35656,-1.56003 -0.95834,-2.87493 -1.80522,-3.94466 -0.84696,-1.11438 -1.96116,-1.98354 -3.34296,-2.60756 -1.38176,-0.62411 -3.12012,-0.93601 -5.21509,-0.93601 -2.67433,0 -4.9921,0.7357 -6.95335,2.20634 -1.96121,1.4709 -3.27611,3.40987 -3.94462,5.81678 h -0.13414 c -0.57975,-2.54071 -1.78306,-4.52416 -3.61048,-5.95053 -1.78297,-1.4709 -4.0116,-2.16182 -6.68597,-2.07268 -1.33719,0 -2.60748,0.24556 -3.81096,0.73566 -1.15895,0.44647 -2.22829,1.09205 -3.20883,1.93897 -0.98062,0.84696 -1.92525,1.78405 -2.47428,2.9418 -0.67052,1.41394 -0.72675,3.05502 -0.8698,4.6133 z"
               id="path1737"
               inkscape:connector-curvature="0"
               sodipodi:nodetypes="cccssscsccscccscccsccscccsscccccsac"
               style="font-style:normal;font-variant:normal;font-weight:100;font-stretch:normal;font-size:medium;line-height:100%;font-family:'Helvetica Neue';-inkscape-font-specification:'Helvetica Neue, Thin';font-variant-ligatures:normal;font-variant-caps:normal;font-variant-numeric:normal;font-feature-settings:normal;text-align:start;letter-spacing:0px;word-spacing:0px;writing-mode:lr-tb;text-anchor:start;fill:#00ced1;fill-opacity:1;stroke:#00ced1;stroke-width:2.53652;stroke-linecap:butt;stroke-linejoin:miter;stroke-miterlimit:4;stroke-dasharray:none;stroke-opacity:1" />
          </g>
        </g>
      </g>
      <path
         inkscape:connector-curvature="0"
         id="path1743"
         style="font-style:normal;font-variant:normal;font-weight:100;font-stretch:normal;font-size:medium;line-height:100%;font-family:'Helvetica Neue';-inkscape-font-specification:'Helvetica Neue, Thin';font-variant-ligatures:normal;font-variant-caps:normal;font-variant-numeric:normal;font-feature-settings:normal;text-align:start;letter-spacing:0px;word-spacing:0px;writing-mode:lr-tb;text-anchor:start;fill:#00ced1;fill-opacity:1;stroke:#00ced1;stroke-width:2.3791;stroke-linecap:butt;stroke-linejoin:miter;stroke-miterlimit:4;stroke-dasharray:none;stroke-opacity:1"
         d="m 187.78618,269.48196 v 45.12519 h 1.75873 v -45.12519 z" />
      <path
         d="m 124.87226,301.30432 c 0.67354,2.18968 1.60008,4.09861 2.77917,5.72682 1.23521,1.68434 2.72302,3.00372 4.46351,3.95819 1.74054,1.01021 3.67758,1.51598 5.81101,1.51598 2.4143,0 4.37935,-0.39246 5.89529,-1.17909 1.51593,-0.7863 2.69489,-1.85277 3.53713,-3.20028 0.84319,-1.34749 1.40363,-2.91957 1.68441,-4.71621 0.33684,-1.79662 0.5058,-3.70554 0.5058,-5.72679 V 269.8905 l 1.68435,5.9e-4 v 27.455 c 0,2.0212 0.30878,3.93011 0.92666,5.72679 0.6174,1.85279 1.51592,3.481 2.69501,4.88458 1.17901,1.40366 2.61072,2.49851 4.29503,3.28455 1.6844,0.84293 3.56525,1.2633 5.64264,1.2633 2.3581,0 4.29516,-0.33687 5.81097,-1.01045 1.57212,-0.67359 2.80728,-1.62821 3.70561,-2.86342 0.95434,-1.23518 1.60013,-2.72308 1.93698,-4.46352 0.39245,-1.74048 0.59013,-3.67754 0.59013,-5.81102 v -28.46559 h 1.68425 v 28.46559 c 0,2.3581 -0.22511,4.49163 -0.6736,6.40055 -0.44913,1.96507 -1.20715,3.62135 -2.27388,4.96879 -1.06685,1.4037 -2.47034,2.49851 -4.21088,3.28455 -1.7405,0.78614 -3.93018,1.17902 -6.56904,1.17902 -3.36864,0 -6.28815,-0.9267 -8.75861,-2.77917 -2.47038,-1.85277 -4.12666,-4.29514 -4.96872,-7.32693 h -0.16897 c -0.73027,3.20032 -2.24597,5.69873 -4.54783,7.49542 -2.24587,1.85278 -5.0531,2.72308 -8.42181,2.6108 -1.68436,0 -3.28443,-0.30933 -4.80036,-0.92667 -1.45984,-0.56238 -2.8068,-1.37557 -4.04191,-2.44236 -1.23523,-1.06685 -2.42511,-2.24723 -3.11666,-3.70555 -0.84461,-1.78104 -0.91543,-3.84818 -1.09562,-5.81103 z"
         id="path1745"
         inkscape:connector-curvature="0"
         sodipodi:nodetypes="cccssscsccscccscccsccscccsscccccsac"
         style="font-style:normal;font-variant:normal;font-weight:100;font-stretch:normal;font-size:medium;line-height:100%;font-family:'Helvetica Neue';-inkscape-font-specification:'Helvetica Neue, Thin';font-variant-ligatures:normal;font-variant-caps:normal;font-variant-numeric:normal;font-feature-settings:normal;text-align:start;letter-spacing:0px;word-spacing:0px;writing-mode:lr-tb;text-anchor:start;fill:#000080;fill-opacity:1;stroke:#000080;stroke-width:3.19506;stroke-linecap:butt;stroke-linejoin:miter;stroke-miterlimit:4;stroke-dasharray:none;stroke-opacity:1" />
      <g
         aria-label="C"
         transform="scale(0.90744828,1.1019912)"
         id="text1765"
         style="font-size:57.2162px;line-height:1.25;font-family:sans-serif;fill:#00ced1;fill-opacity:1;stroke:none;stroke-width:1.62188;stroke-miterlimit:4;stroke-dasharray:none;stroke-opacity:1">
        <path
           d="m 84.716036,282.79753 q -1.536567,0.6705 -2.793759,1.25719 -1.229255,0.58669 -3.240762,1.22925 -1.704193,0.53082 -3.7157,0.89401 -1.98357,0.39112 -4.386203,0.39112 -4.525891,0 -8.241592,-1.25719 -3.687763,-1.28513 -6.425648,-3.99507 -2.682009,-2.65408 -4.190639,-6.73297 -1.508631,-4.10682 -1.508631,-9.52672 0,-5.14052 1.452755,-9.19147 1.452756,-4.05095 4.19064,-6.84471 2.654072,-2.70995 6.39771,-4.13476 3.771576,-1.42482 8.353342,-1.42482 3.352512,0 6.677086,0.81019 3.352512,0.81019 7.431401,2.84963 v 6.56534 h -0.419063 q -3.436325,-2.87757 -6.816775,-4.19064 -3.380449,-1.31307 -7.235838,-1.31307 -3.156948,0 -5.69927,1.03369 -2.514384,1.00576 -4.497953,3.15695 -1.927694,2.09532 -3.017261,5.30815 -1.061628,3.18488 -1.061628,7.37552 0,4.38621 1.173379,7.54315 1.201316,3.15695 3.073136,5.14052 1.955631,2.06739 4.553828,3.07314 2.626134,0.97781 5.531645,0.97781 3.995076,0 7.487276,-1.36894 3.4922,-1.36894 6.537398,-4.10682 h 0.391126 z"
           style="fill:#00ced1;fill-opacity:1;stroke:none;stroke-width:1.62188;stroke-miterlimit:4;stroke-dasharray:none;stroke-opacity:1"
           id="path934" />
      </g>
      <path
         inkscape:connector-curvature="0"
         id="path1759"
         style="font-style:normal;font-variant:normal;font-weight:100;font-stretch:normal;font-size:medium;line-height:100%;font-family:'Helvetica Neue';-inkscape-font-specification:'Helvetica Neue, Thin';font-variant-ligatures:normal;font-variant-caps:normal;font-variant-numeric:normal;font-feature-settings:normal;text-align:start;letter-spacing:0px;word-spacing:0px;writing-mode:lr-tb;text-anchor:start;fill:#000080;fill-opacity:1;stroke:#00ced1;stroke-width:2.43602;stroke-linecap:butt;stroke-linejoin:miter;stroke-miterlimit:4;stroke-dasharray:none;stroke-opacity:1"
         d="m 83.214388,259.79362 v 54.78503 h 1.518789 v -54.78503 z" />
      <g
         id="g5302"
         transform="matrix(0.98408003,0,0,0.98408003,-128.44987,65.817808)">
        <g
           id="g5300">
          <g
             id="g5298">
            <g
               id="g5292"
               transform="matrix(1.28,0,0,1.28,16.362549,-156.46555)"
               style="fill:#000080;fill-opacity:1;stroke:#000080;stroke-width:2.53281;stroke-miterlimit:4;stroke-dasharray:none;stroke-opacity:1">
              <path
                 d="m 173.50113,348.16466 c 0.53471,-1.73836 1.1137,-2.39427 2.04975,-3.68689 0.98063,-1.33719 2.16178,-2.38463 3.54354,-3.14236 1.3818,-0.802 2.91959,-1.20352 4.6133,-1.20352 1.91668,0 3.47672,0.31156 4.6802,0.93606 1.20347,0.62424 2.13944,1.4709 2.80808,2.54066 0.66941,1.06977 1.11434,2.31782 1.33723,3.74414 0.26742,1.42633 0.40156,2.9418 0.40156,4.54645 v 19.32967 l 1.33719,-4.7e-4 v -19.06178 c 0,-1.60461 0.24513,-3.12008 0.73566,-4.54645 0.49014,-1.47089 1.20348,-2.76351 2.13953,-3.87781 0.93602,-1.11433 2.07264,-1.98353 3.40978,-2.60756 1.33723,-0.66919 2.83042,-1.00291 4.47964,-1.00291 1.87207,0 3.40986,0.26742 4.61325,0.80218 1.24809,0.53475 2.22868,1.29261 2.94184,2.27324 0.75765,0.98058 1.27033,2.16182 1.53775,3.54353 0.31156,1.38176 0.4685,2.91956 0.4685,4.6133 v 19.86409 h 1.3371 v -19.86409 c 0,-1.87207 -0.1787,-3.56586 -0.53475,-5.08133 -0.35656,-1.56003 -0.95834,-2.87493 -1.80522,-3.94466 -0.84696,-1.11438 -1.96116,-1.98354 -3.34296,-2.60756 -1.38176,-0.62411 -3.12012,-0.93601 -5.21509,-0.93601 -2.67433,0 -4.9921,0.7357 -6.95335,2.20634 -1.96121,1.4709 -3.27611,3.40987 -3.94462,5.81678 h -0.13414 c -0.57975,-2.54071 -1.78306,-4.52416 -3.61048,-5.95053 -1.78297,-1.4709 -4.0116,-2.16182 -6.68597,-2.07268 -1.33719,0 -2.60748,0.24556 -3.81096,0.73566 -1.15895,0.44647 -2.22829,1.09205 -3.20883,1.93897 -0.98062,0.84696 -1.80548,1.80472 -2.39612,2.9418 -0.6187,1.50163 -0.79129,2.3855 -0.79141,3.75374 z"
                 id="path5290"
                 inkscape:connector-curvature="0"
                 sodipodi:nodetypes="cccssscsccscccscccsccscccsscccccscc"
                 style="font-style:normal;font-variant:normal;font-weight:100;font-stretch:normal;font-size:medium;line-height:100%;font-family:'Helvetica Neue';-inkscape-font-specification:'Helvetica Neue, Thin';font-variant-ligatures:normal;font-variant-caps:normal;font-variant-numeric:normal;font-feature-settings:normal;text-align:start;letter-spacing:0px;word-spacing:0px;writing-mode:lr-tb;text-anchor:start;fill:#000080;fill-opacity:1;stroke:#000080;stroke-width:2.53281;stroke-linecap:butt;stroke-linejoin:miter;stroke-miterlimit:4;stroke-dasharray:none;stroke-opacity:1" />
            </g>
            <g
               id="g5296"
               transform="matrix(1.28,0,0,1.28,19.237501,-159.91282)">
              <path
                 d="m 173.34454,349.02422 c 0.53471,-1.73836 1.27029,-3.25383 2.20634,-4.54645 0.98063,-1.33719 2.16178,-2.38463 3.54354,-3.14236 1.3818,-0.802 2.91959,-1.20352 4.6133,-1.20352 1.91668,0 3.47672,0.31156 4.6802,0.93606 1.20347,0.62424 2.13944,1.4709 2.80808,2.54066 0.66941,1.06977 1.11434,2.31782 1.33723,3.74414 0.26742,1.42633 0.40156,2.9418 0.40156,4.54645 v 22.0641 l 1.33719,-4.7e-4 v -21.79621 c 0,-1.60461 0.24513,-3.12008 0.73566,-4.54645 0.49014,-1.47089 1.20348,-2.76351 2.13953,-3.87781 0.93602,-1.11433 2.07264,-1.98353 3.40978,-2.60756 1.33723,-0.66919 2.83042,-1.00291 4.47964,-1.00291 1.87207,0 3.40986,0.26742 4.61325,0.80218 1.24809,0.53475 2.22868,1.29261 2.94184,2.27324 0.75765,0.98058 1.27033,2.16182 1.53775,3.54353 0.31156,1.38176 0.4685,2.91956 0.4685,4.6133 v 22.59852 h 1.3371 v -22.59852 c 0,-1.87207 -0.1787,-3.56586 -0.53475,-5.08133 -0.35656,-1.56003 -0.95834,-2.87493 -1.80522,-3.94466 -0.84696,-1.11438 -1.96116,-1.98354 -3.34296,-2.60756 -1.38176,-0.62411 -3.12012,-0.93601 -5.21509,-0.93601 -2.67433,0 -4.9921,0.7357 -6.95335,2.20634 -1.96121,1.4709 -3.27611,3.40987 -3.94462,5.81678 h -0.13414 c -0.57975,-2.54071 -1.78306,-4.52416 -3.61048,-5.95053 -1.78297,-1.4709 -4.0116,-2.16182 -6.68597,-2.07268 -1.33719,0 -2.60748,0.24556 -3.81096,0.73566 -1.15895,0.44647 -2.22829,1.09205 -3.20883,1.93897 -0.98062,0.84696 -1.92525,1.78405 -2.47428,2.9418 -0.67052,1.41394 -0.72675,3.05502 -0.8698,4.6133 z"
                 id="path5294"
                 inkscape:connector-curvature="0"
                 sodipodi:nodetypes="cccssscsccscccscccsccscccsscccccsac"
                 style="font-style:normal;font-variant:normal;font-weight:100;font-stretch:normal;font-size:medium;line-height:100%;font-family:'Helvetica Neue';-inkscape-font-specification:'Helvetica Neue, Thin';font-variant-ligatures:normal;font-variant-caps:normal;font-variant-numeric:normal;font-feature-settings:normal;text-align:start;letter-spacing:0px;word-spacing:0px;writing-mode:lr-tb;text-anchor:start;fill:#00ced1;fill-opacity:1;stroke:#00ced1;stroke-width:2.53652;stroke-linecap:butt;stroke-linejoin:miter;stroke-miterlimit:4;stroke-dasharray:none;stroke-opacity:1" />
            </g>
          </g>
        </g>
      </g>
      <path
         inkscape:connector-curvature="0"
         id="path5304"
         style="font-style:normal;font-variant:normal;font-weight:100;font-stretch:normal;font-size:medium;line-height:100%;font-family:'Helvetica Neue';-inkscape-font-specification:'Helvetica Neue, Thin';font-variant-ligatures:normal;font-variant-caps:normal;font-variant-numeric:normal;font-feature-settings:normal;text-align:start;letter-spacing:0px;word-spacing:0px;writing-mode:lr-tb;text-anchor:start;fill:#000080;fill-opacity:1;stroke:#000080;stroke-width:2.37911;stroke-linecap:butt;stroke-linejoin:miter;stroke-miterlimit:4;stroke-dasharray:none;stroke-opacity:1"
         d="m 171.13153,334.78651 v 45.12538 h 1.75874 v -45.12538 z" />
      <g
         id="g5330"
         transform="matrix(0.98408003,0,0,0.98408003,26.297538,0.51295147)">
        <g
           id="g5328">
          <g
             id="g5326">
            <g
               id="g5320"
               transform="matrix(1.28,0,0,1.28,16.362549,-156.46555)"
               style="fill:#000080;fill-opacity:1;stroke:#000080;stroke-width:2.53281;stroke-miterlimit:4;stroke-dasharray:none;stroke-opacity:1">
              <path
                 d="m 173.50113,348.16466 c 0.53471,-1.73836 1.1137,-2.39427 2.04975,-3.68689 0.98063,-1.33719 2.16178,-2.38463 3.54354,-3.14236 1.3818,-0.802 2.91959,-1.20352 4.6133,-1.20352 1.91668,0 3.47672,0.31156 4.6802,0.93606 1.20347,0.62424 2.13944,1.4709 2.80808,2.54066 0.66941,1.06977 1.11434,2.31782 1.33723,3.74414 0.26742,1.42633 0.40156,2.9418 0.40156,4.54645 v 19.32967 l 1.33719,-4.7e-4 v -19.06178 c 0,-1.60461 0.24513,-3.12008 0.73566,-4.54645 0.49014,-1.47089 1.20348,-2.76351 2.13953,-3.87781 0.93602,-1.11433 2.07264,-1.98353 3.40978,-2.60756 1.33723,-0.66919 2.83042,-1.00291 4.47964,-1.00291 1.87207,0 3.40986,0.26742 4.61325,0.80218 1.24809,0.53475 2.22868,1.29261 2.94184,2.27324 0.75765,0.98058 1.27033,2.16182 1.53775,3.54353 0.31156,1.38176 0.4685,2.91956 0.4685,4.6133 v 19.86409 h 1.3371 v -19.86409 c 0,-1.87207 -0.1787,-3.56586 -0.53475,-5.08133 -0.35656,-1.56003 -0.95834,-2.87493 -1.80522,-3.94466 -0.84696,-1.11438 -1.96116,-1.98354 -3.34296,-2.60756 -1.38176,-0.62411 -3.12012,-0.93601 -5.21509,-0.93601 -2.67433,0 -4.9921,0.7357 -6.95335,2.20634 -1.96121,1.4709 -3.27611,3.40987 -3.94462,5.81678 h -0.13414 c -0.57975,-2.54071 -1.78306,-4.52416 -3.61048,-5.95053 -1.78297,-1.4709 -4.0116,-2.16182 -6.68597,-2.07268 -1.33719,0 -2.60748,0.24556 -3.81096,0.73566 -1.15895,0.44647 -2.22829,1.09205 -3.20883,1.93897 -0.98062,0.84696 -1.80548,1.80472 -2.39612,2.9418 -0.6187,1.50163 -0.79129,2.3855 -0.79141,3.75374 z"
                 id="path5318"
                 inkscape:connector-curvature="0"
                 sodipodi:nodetypes="cccssscsccscccscccsccscccsscccccscc"
                 style="font-style:normal;font-variant:normal;font-weight:100;font-stretch:normal;font-size:medium;line-height:100%;font-family:'Helvetica Neue';-inkscape-font-specification:'Helvetica Neue, Thin';font-variant-ligatures:normal;font-variant-caps:normal;font-variant-numeric:normal;font-feature-settings:normal;text-align:start;letter-spacing:0px;word-spacing:0px;writing-mode:lr-tb;text-anchor:start;fill:#000080;fill-opacity:1;stroke:#000080;stroke-width:2.53281;stroke-linecap:butt;stroke-linejoin:miter;stroke-miterlimit:4;stroke-dasharray:none;stroke-opacity:1" />
            </g>
            <g
               id="g5324"
               transform="matrix(1.28,0,0,1.28,19.237501,-159.91282)">
              <path
                 d="m 173.34454,349.02422 c 0.53471,-1.73836 1.27029,-3.25383 2.20634,-4.54645 0.98063,-1.33719 2.16178,-2.38463 3.54354,-3.14236 1.3818,-0.802 2.91959,-1.20352 4.6133,-1.20352 1.91668,0 3.47672,0.31156 4.6802,0.93606 1.20347,0.62424 2.13944,1.4709 2.80808,2.54066 0.66941,1.06977 1.11434,2.31782 1.33723,3.74414 0.26742,1.42633 0.40156,2.9418 0.40156,4.54645 v 22.0641 l 1.33719,-4.7e-4 v -21.79621 c 0,-1.60461 0.24513,-3.12008 0.73566,-4.54645 0.49014,-1.47089 1.20348,-2.76351 2.13953,-3.87781 0.93602,-1.11433 2.07264,-1.98353 3.40978,-2.60756 1.33723,-0.66919 2.83042,-1.00291 4.47964,-1.00291 1.87207,0 3.40986,0.26742 4.61325,0.80218 1.24809,0.53475 2.22868,1.29261 2.94184,2.27324 0.75765,0.98058 1.27033,2.16182 1.53775,3.54353 0.31156,1.38176 0.4685,2.91956 0.4685,4.6133 v 22.59852 h 1.3371 v -22.59852 c 0,-1.87207 -0.1787,-3.56586 -0.53475,-5.08133 -0.35656,-1.56003 -0.95834,-2.87493 -1.80522,-3.94466 -0.84696,-1.11438 -1.96116,-1.98354 -3.34296,-2.60756 -1.38176,-0.62411 -3.12012,-0.93601 -5.21509,-0.93601 -2.67433,0 -4.9921,0.7357 -6.95335,2.20634 -1.96121,1.4709 -3.27611,3.40987 -3.94462,5.81678 h -0.13414 c -0.57975,-2.54071 -1.78306,-4.52416 -3.61048,-5.95053 -1.78297,-1.4709 -4.0116,-2.16182 -6.68597,-2.07268 -1.33719,0 -2.60748,0.24556 -3.81096,0.73566 -1.15895,0.44647 -2.22829,1.09205 -3.20883,1.93897 -0.98062,0.84696 -1.92525,1.78405 -2.47428,2.9418 -0.67052,1.41394 -0.72675,3.05502 -0.8698,4.6133 z"
                 id="path5322"
                 inkscape:connector-curvature="0"
                 sodipodi:nodetypes="cccssscsccscccscccsccscccsscccccsac"
                 style="font-style:normal;font-variant:normal;font-weight:100;font-stretch:normal;font-size:medium;line-height:100%;font-family:'Helvetica Neue';-inkscape-font-specification:'Helvetica Neue, Thin';font-variant-ligatures:normal;font-variant-caps:normal;font-variant-numeric:normal;font-feature-settings:normal;text-align:start;letter-spacing:0px;word-spacing:0px;writing-mode:lr-tb;text-anchor:start;fill:#00ced1;fill-opacity:1;stroke:#00ced1;stroke-width:2.53652;stroke-linecap:butt;stroke-linejoin:miter;stroke-miterlimit:4;stroke-dasharray:none;stroke-opacity:1" />
            </g>
          </g>
        </g>
      </g>
      <g
         id="g5358"
         transform="matrix(0.98408003,0,0,0.98408003,-36.502658,0.51295147)">
        <g
           id="g5356">
          <g
             id="g5354">
            <g
               id="g5348"
               transform="matrix(1.28,0,0,1.28,16.362549,-156.46555)"
               style="fill:#000080;fill-opacity:1;stroke:#000080;stroke-width:2.53281;stroke-miterlimit:4;stroke-dasharray:none;stroke-opacity:1">
              <path
                 d="m 173.50113,348.16466 c 0.53471,-1.73836 1.1137,-2.39427 2.04975,-3.68689 0.98063,-1.33719 2.16178,-2.38463 3.54354,-3.14236 1.3818,-0.802 2.91959,-1.20352 4.6133,-1.20352 1.91668,0 3.47672,0.31156 4.6802,0.93606 1.20347,0.62424 2.13944,1.4709 2.80808,2.54066 0.66941,1.06977 1.11434,2.31782 1.33723,3.74414 0.26742,1.42633 0.40156,2.9418 0.40156,4.54645 v 19.32967 l 1.33719,-4.7e-4 v -19.06178 c 0,-1.60461 0.24513,-3.12008 0.73566,-4.54645 0.49014,-1.47089 1.20348,-2.76351 2.13953,-3.87781 0.93602,-1.11433 2.07264,-1.98353 3.40978,-2.60756 1.33723,-0.66919 2.83042,-1.00291 4.47964,-1.00291 1.87207,0 3.40986,0.26742 4.61325,0.80218 1.24809,0.53475 2.22868,1.29261 2.94184,2.27324 0.75765,0.98058 1.27033,2.16182 1.53775,3.54353 0.31156,1.38176 0.4685,2.91956 0.4685,4.6133 v 19.86409 h 1.3371 v -19.86409 c 0,-1.87207 -0.1787,-3.56586 -0.53475,-5.08133 -0.35656,-1.56003 -0.95834,-2.87493 -1.80522,-3.94466 -0.84696,-1.11438 -1.96116,-1.98354 -3.34296,-2.60756 -1.38176,-0.62411 -3.12012,-0.93601 -5.21509,-0.93601 -2.67433,0 -4.9921,0.7357 -6.95335,2.20634 -1.96121,1.4709 -3.27611,3.40987 -3.94462,5.81678 h -0.13414 c -0.57975,-2.54071 -1.78306,-4.52416 -3.61048,-5.95053 -1.78297,-1.4709 -4.0116,-2.16182 -6.68597,-2.07268 -1.33719,0 -2.60748,0.24556 -3.81096,0.73566 -1.15895,0.44647 -2.22829,1.09205 -3.20883,1.93897 -0.98062,0.84696 -1.80548,1.80472 -2.39612,2.9418 -0.6187,1.50163 -0.79129,2.3855 -0.79141,3.75374 z"
                 id="path5346"
                 inkscape:connector-curvature="0"
                 sodipodi:nodetypes="cccssscsccscccscccsccscccsscccccscc"
                 style="font-style:normal;font-variant:normal;font-weight:100;font-stretch:normal;font-size:medium;line-height:100%;font-family:'Helvetica Neue';-inkscape-font-specification:'Helvetica Neue, Thin';font-variant-ligatures:normal;font-variant-caps:normal;font-variant-numeric:normal;font-feature-settings:normal;text-align:start;letter-spacing:0px;word-spacing:0px;writing-mode:lr-tb;text-anchor:start;fill:#000080;fill-opacity:1;stroke:#000080;stroke-width:2.53281;stroke-linecap:butt;stroke-linejoin:miter;stroke-miterlimit:4;stroke-dasharray:none;stroke-opacity:1" />
            </g>
            <g
               id="g5352"
               transform="matrix(1.28,0,0,1.28,19.237501,-159.91282)">
              <path
                 d="m 173.34454,349.02422 c 0.53471,-1.73836 1.27029,-3.25383 2.20634,-4.54645 0.98063,-1.33719 2.16178,-2.38463 3.54354,-3.14236 1.3818,-0.802 2.91959,-1.20352 4.6133,-1.20352 1.91668,0 3.47672,0.31156 4.6802,0.93606 1.20347,0.62424 2.13944,1.4709 2.80808,2.54066 0.66941,1.06977 1.11434,2.31782 1.33723,3.74414 0.26742,1.42633 0.40156,2.9418 0.40156,4.54645 v 22.0641 l 1.33719,-4.7e-4 v -21.79621 c 0,-1.60461 0.24513,-3.12008 0.73566,-4.54645 0.49014,-1.47089 1.20348,-2.76351 2.13953,-3.87781 0.93602,-1.11433 2.07264,-1.98353 3.40978,-2.60756 1.33723,-0.66919 2.83042,-1.00291 4.47964,-1.00291 1.87207,0 3.40986,0.26742 4.61325,0.80218 1.24809,0.53475 2.22868,1.29261 2.94184,2.27324 0.75765,0.98058 1.27033,2.16182 1.53775,3.54353 0.31156,1.38176 0.4685,2.91956 0.4685,4.6133 v 22.59852 h 1.3371 v -22.59852 c 0,-1.87207 -0.1787,-3.56586 -0.53475,-5.08133 -0.35656,-1.56003 -0.95834,-2.87493 -1.80522,-3.94466 -0.84696,-1.11438 -1.96116,-1.98354 -3.34296,-2.60756 -1.38176,-0.62411 -3.12012,-0.93601 -5.21509,-0.93601 -2.67433,0 -4.9921,0.7357 -6.95335,2.20634 -1.96121,1.4709 -3.27611,3.40987 -3.94462,5.81678 h -0.13414 c -0.57975,-2.54071 -1.78306,-4.52416 -3.61048,-5.95053 -1.78297,-1.4709 -4.0116,-2.16182 -6.68597,-2.07268 -1.33719,0 -2.60748,0.24556 -3.81096,0.73566 -1.15895,0.44647 -2.22829,1.09205 -3.20883,1.93897 -0.98062,0.84696 -1.92525,1.78405 -2.47428,2.9418 -0.67052,1.41394 -0.72675,3.05502 -0.8698,4.6133 z"
                 id="path5350"
                 inkscape:connector-curvature="0"
                 sodipodi:nodetypes="cccssscsccscccscccsccscccsscccccsac"
                 style="font-style:normal;font-variant:normal;font-weight:100;font-stretch:normal;font-size:medium;line-height:100%;font-family:'Helvetica Neue';-inkscape-font-specification:'Helvetica Neue, Thin';font-variant-ligatures:normal;font-variant-caps:normal;font-variant-numeric:normal;font-feature-settings:normal;text-align:start;letter-spacing:0px;word-spacing:0px;writing-mode:lr-tb;text-anchor:start;fill:#00ced1;fill-opacity:1;stroke:#00ced1;stroke-width:2.53652;stroke-linecap:butt;stroke-linejoin:miter;stroke-miterlimit:4;stroke-dasharray:none;stroke-opacity:1" />
            </g>
          </g>
        </g>
      </g>
      <path
         inkscape:connector-curvature="0"
         id="path5360"
         style="font-style:normal;font-variant:normal;font-weight:100;font-stretch:normal;font-size:medium;line-height:100%;font-family:'Helvetica Neue';-inkscape-font-specification:'Helvetica Neue, Thin';font-variant-ligatures:normal;font-variant-caps:normal;font-variant-numeric:normal;font-feature-settings:normal;text-align:start;letter-spacing:0px;word-spacing:0px;writing-mode:lr-tb;text-anchor:start;fill:#000080;fill-opacity:1;stroke:#000080;stroke-width:2.3791;stroke-linecap:butt;stroke-linejoin:miter;stroke-miterlimit:4;stroke-dasharray:none;stroke-opacity:1"
         d="m 187.78618,269.48196 v 45.12519 h 1.75873 v -45.12519 z" />
      <g
         aria-label="C"
         transform="scale(0.90744828,1.1019912)"
         id="text5366"
         style="font-size:57.2162px;line-height:1.25;font-family:sans-serif;fill:#000080;fill-opacity:1;stroke:none;stroke-width:1.62188;stroke-miterlimit:4;stroke-dasharray:none;stroke-opacity:1">
        <path
           d="m 84.716036,282.79753 q -1.536567,0.6705 -2.793759,1.25719 -1.229255,0.58669 -3.240762,1.22925 -1.704193,0.53082 -3.7157,0.89401 -1.98357,0.39112 -4.386203,0.39112 -4.525891,0 -8.241592,-1.25719 -3.687763,-1.28513 -6.425648,-3.99507 -2.682009,-2.65408 -4.190639,-6.73297 -1.508631,-4.10682 -1.508631,-9.52672 0,-5.14052 1.452755,-9.19147 1.452756,-4.05095 4.19064,-6.84471 2.654072,-2.70995 6.39771,-4.13476 3.771576,-1.42482 8.353342,-1.42482 3.352512,0 6.677086,0.81019 3.352512,0.81019 7.431401,2.84963 v 6.56534 h -0.419063 q -3.436325,-2.87757 -6.816775,-4.19064 -3.380449,-1.31307 -7.235838,-1.31307 -3.156948,0 -5.69927,1.03369 -2.514384,1.00576 -4.497953,3.15695 -1.927694,2.09532 -3.017261,5.30815 -1.061628,3.18488 -1.061628,7.37552 0,4.38621 1.173379,7.54315 1.201316,3.15695 3.073136,5.14052 1.955631,2.06739 4.553828,3.07314 2.626134,0.97781 5.531645,0.97781 3.995076,0 7.487276,-1.36894 3.4922,-1.36894 6.537398,-4.10682 h 0.391126 z"
           style="fill:#000080;fill-opacity:1;stroke:none;stroke-width:1.62188;stroke-miterlimit:4;stroke-dasharray:none;stroke-opacity:1"
           id="path937" />
      </g>
    </g>
  </g>
</svg>
