<?xml version="1.0" encoding="UTF-8" standalone="no"?>
<svg
   xmlns:dc="http://purl.org/dc/elements/1.1/"
   xmlns:cc="http://creativecommons.org/ns#"
   xmlns:rdf="http://www.w3.org/1999/02/22-rdf-syntax-ns#"
   xmlns:svg="http://www.w3.org/2000/svg"
   xmlns="http://www.w3.org/2000/svg"
   xmlns:sodipodi="http://sodipodi.sourceforge.net/DTD/sodipodi-0.dtd"
   xmlns:inkscape="http://www.inkscape.org/namespaces/inkscape"
   width="1360"
   height="260"
   viewBox="0 0 359.83334 68.791671"
   version="1.1"
   id="svg8"
   inkscape:version="1.0.1 (c497b03c, 2020-09-10)"
   sodipodi:docname="schwim_logo_banner.svg"
   inkscape:export-filename="/Users/neuneu/moniana-logo.png"
   inkscape:export-xdpi="150.01875"
   inkscape:export-ydpi="150.01875">
  <defs
     id="defs2">
    <rect
       x="12.295913"
       y="216.34821"
       width="123.96288"
       height="30.11244"
       id="rect875" />
    <inkscape:path-effect
       effect="spiro"
       id="path-effect1243"
       is_visible="true"
       lpeversion="0" />
    <inkscape:path-effect
       is_visible="true"
       id="path-effect1131"
       effect="spiro"
       lpeversion="0" />
    <inkscape:path-effect
       is_visible="true"
       id="path-effect1032"
       effect="spiro"
       lpeversion="0" />
    <inkscape:path-effect
       effect="spiro"
       id="path-effect1028"
       is_visible="true"
       lpeversion="0" />
    <inkscape:path-effect
       effect="spiro"
       id="path-effect1005"
       is_visible="true"
       lpeversion="0" />
    <inkscape:path-effect
       is_visible="true"
       id="path-effect1147"
       effect="spiro"
       lpeversion="0" />
    <inkscape:path-effect
       effect="spiro"
       id="path-effect1024"
       is_visible="true"
       lpeversion="0" />
    <inkscape:path-effect
       is_visible="true"
       id="path-effect1019"
       effect="spiro"
       lpeversion="0" />
    <inkscape:path-effect
       is_visible="true"
       id="path-effect1015"
       effect="spiro"
       lpeversion="0" />
    <inkscape:path-effect
       effect="spiro"
       id="path-effect1021"
       is_visible="true"
       lpeversion="0" />
    <inkscape:path-effect
       effect="spiro"
       id="path-effect902"
       is_visible="true"
       lpeversion="0" />
  </defs>
  <sodipodi:namedview
     id="base"
     pagecolor="#ffffff"
     bordercolor="#666666"
     borderopacity="1.0"
     inkscape:pageopacity="0.0"
     inkscape:pageshadow="2"
     inkscape:zoom="0.40036176"
     inkscape:cx="439.55091"
     inkscape:cy="-82.108479"
     inkscape:document-units="mm"
     inkscape:current-layer="layer1"
     showgrid="false"
     inkscape:window-width="1440"
     inkscape:window-height="847"
     inkscape:window-x="0"
     inkscape:window-y="25"
     inkscape:window-maximized="1"
     units="px"
     showborder="true"
     inkscape:document-rotation="0"
     showguides="true"
     inkscape:guide-bbox="true">
    <sodipodi:guide
       position="23.953959,-350.20951"
       orientation="0,-1"
       id="guide1405" />
    <sodipodi:guide
       position="13.687977,518.97701"
       orientation="0,-1"
       id="guide1407" />
    <sodipodi:guide
       position="-24.574329,-36.920135"
       orientation="1,0"
       id="guide986" />
    <sodipodi:guide
       position="40.723173,174.41909"
       orientation="0,-1"
       id="guide1032" />
  </sodipodi:namedview>
  <metadata
     id="metadata5">
    <rdf:RDF>
      <cc:Work
         rdf:about="">
        <dc:format>image/svg+xml</dc:format>
        <dc:type
           rdf:resource="http://purl.org/dc/dcmitype/StillImage" />
        <dc:title />
      </cc:Work>
    </rdf:RDF>
  </metadata>
  <g
     inkscape:label="Ebene 1"
     inkscape:groupmode="layer"
     id="layer1"
     transform="translate(0,-256.99999)">
    <text
       xml:space="preserve"
       id="text873"
       style="font-size:14.11110000000000042px;line-height:1.25;font-family:sans-serif;white-space:pre;shape-inside:url(#rect875);" />
    <g
       id="g908"
       transform="matrix(5.8614991,0,0,7.4807591,-130.99289,-1346.6965)"
       style="fill:#0000ff;stroke:none;stroke-opacity:1"
       inkscape:transform-center-x="1.8329092"
       inkscape:transform-center-y="43.531594" />
    <g
       id="g997">
      <text
         xml:space="preserve"
         style="font-size:10.59370000000000012px;line-height:1.25;font-family:sans-serif;fill:#00ced2;fill-opacity:1;stroke:none;stroke-width:0;stroke-linecap:square;stroke-miterlimit:4;stroke-dasharray:none;stroke-opacity:1;paint-order:fill markers stroke;"
         x="40.919975"
         y="285.22253"
         id="text1086"
         transform="scale(1.0008822,0.99911859)"><tspan
           sodipodi:role="line"
           id="tspan1084"
           x="40.919975"
           y="285.22253"
           style="fill:#00ced2;fill-opacity:1;stroke:none;stroke-width:0;stroke-linecap:square;stroke-miterlimit:4;stroke-dasharray:none;stroke-opacity:1;paint-order:fill markers stroke;">t</tspan></text>
      <path
         d="m 30.120541,280.72234 c 0.09025,-0.29339 0.214396,-0.54917 0.372382,-0.76733 0.165508,-0.22569 0.364859,-0.40247 0.598068,-0.53036 0.233216,-0.13536 0.492761,-0.20313 0.778619,-0.20313 0.323494,0 0.586791,0.0526 0.789912,0.15799 0.20312,0.10535 0.36109,0.24825 0.473941,0.4288 0.11298,0.18056 0.188074,0.3912 0.225694,0.63193 0.04513,0.24073 0.06777,0.49651 0.06777,0.76734 v 3.72391 l 0.225687,-8e-5 v -3.6787 c 0,-0.27082 0.04137,-0.5266 0.124163,-0.76734 0.08273,-0.24825 0.20312,-0.46642 0.361105,-0.65448 0.157977,-0.18808 0.349813,-0.33478 0.575493,-0.4401 0.225695,-0.11294 0.477709,-0.16927 0.75606,-0.16927 0.315963,0 0.575509,0.0451 0.778614,0.13539 0.210649,0.0902 0.376148,0.21816 0.496515,0.38367 0.127872,0.1655 0.214403,0.36487 0.259537,0.59807 0.05258,0.23321 0.07907,0.49276 0.07907,0.77862 v 3.81411 h 0.225671 v -3.81411 c 0,-0.31596 -0.03016,-0.60184 -0.09025,-0.85762 -0.06018,-0.26329 -0.161746,-0.48522 -0.304678,-0.66576 -0.142948,-0.18808 -0.331001,-0.33478 -0.564218,-0.4401 -0.233209,-0.10533 -0.526605,-0.15798 -0.880187,-0.15798 -0.451365,0 -0.842552,0.12417 -1.173568,0.37238 -0.331008,0.24826 -0.552933,0.57551 -0.665762,0.98175 h -0.02264 c -0.09785,-0.42882 -0.300938,-0.76358 -0.609365,-1.00432 -0.300925,-0.24825 -0.677067,-0.36487 -1.128441,-0.34982 -0.225688,0 -0.440082,0.0414 -0.643202,0.12416 -0.195604,0.0754 -0.376085,0.18431 -0.541577,0.32726 -0.165508,0.14295 -0.32494,0.30111 -0.417603,0.4965 -0.113168,0.23865 -0.122658,0.51562 -0.146802,0.77862 z"
         id="path1088"
         inkscape:connector-curvature="0"
         sodipodi:nodetypes="cccssscsccscccscccsccscccsscccccsac"
         style="font-style:normal;font-variant:normal;font-weight:100;font-stretch:normal;font-size:medium;line-height:100%;font-family:'Helvetica Neue';-inkscape-font-specification:'Helvetica Neue, Thin';font-variant-ligatures:normal;font-variant-caps:normal;font-variant-numeric:normal;font-feature-settings:normal;text-align:start;letter-spacing:0px;word-spacing:0px;writing-mode:lr-tb;text-anchor:start;fill:#00ced1;fill-opacity:0.5;stroke:#00ced1;stroke-width:0.30118;stroke-linecap:butt;stroke-linejoin:miter;stroke-miterlimit:4;stroke-dasharray:none;stroke-opacity:1" />
      <path
         inkscape:connector-curvature="0"
         id="path1092"
         style="font-style:normal;font-variant:normal;font-weight:100;font-stretch:normal;font-size:medium;line-height:100%;font-family:'Helvetica Neue';-inkscape-font-specification:'Helvetica Neue, Thin';font-variant-ligatures:normal;font-variant-caps:normal;font-variant-numeric:normal;font-feature-settings:normal;text-align:start;letter-spacing:0px;word-spacing:0px;writing-mode:lr-tb;text-anchor:start;fill:#00ced2;fill-opacity:0.50196081;stroke:#00ced1;stroke-width:0.30118;stroke-linecap:butt;stroke-linejoin:miter;stroke-miterlimit:4;stroke-dasharray:none;stroke-opacity:1"
         d="m 38.899274,278.93991 v 6.04634 h 0.235653 v -6.04634 z" />
      <g
         id="g1104"
         transform="matrix(0.25782489,0,0,0.25782489,239.79242,190.28208)">
        <text
           xml:space="preserve"
           style="font-size:40.8546px;line-height:1.25;font-family:sans-serif;fill:#00ced2;fill-opacity:0.968627;stroke:none;stroke-width:1.39473;stroke-linecap:square;stroke-miterlimit:4;stroke-dasharray:none;stroke-opacity:1;paint-order:fill markers stroke"
           x="332.86975"
           y="367.55475"
           id="text1098"
           transform="scale(1.0008822,0.99911858)"><tspan
             sodipodi:role="line"
             id="tspan1096"
             x="332.86975"
             y="367.55475"
             style="fill:#00ced2;fill-opacity:0.968627;stroke:none;stroke-width:1.39473;stroke-linecap:square;stroke-miterlimit:4;stroke-dasharray:none;stroke-opacity:1;paint-order:fill markers stroke">t</tspan></text>
        <path
           d="m 291.37607,350.84533 c 0.34804,-1.13148 0.82682,-2.1179 1.43609,-2.95925 0.63829,-0.87036 1.40709,-1.55214 2.30646,-2.04533 0.8994,-0.52202 1.90034,-0.78336 3.00275,-0.78336 1.24756,0 2.26297,0.20279 3.04631,0.60927 0.78333,0.40632 1.39254,0.95739 1.82775,1.6537 0.43571,0.6963 0.72531,1.50864 0.8704,2.43702 0.17406,0.92839 0.26136,1.91479 0.26136,2.95925 v 14.36132 l 0.87037,-3e-4 v -14.18696 c 0,-1.04443 0.15956,-2.03083 0.47883,-2.95925 0.31903,-0.95738 0.78333,-1.79874 1.39261,-2.52403 0.60924,-0.72531 1.34906,-1.29106 2.21939,-1.69723 0.87039,-0.43558 1.84229,-0.65279 2.91576,-0.65279 1.21851,0 2.21945,0.17406 3.00273,0.52213 0.81236,0.34806 1.45062,0.84135 1.91481,1.47963 0.49314,0.63825 0.82685,1.40711 1.00091,2.30646 0.20279,0.89937 0.30494,1.90031 0.30494,3.00275 v 14.70918 h 0.87031 v -14.70918 c 0,-1.21851 -0.11632,-2.32099 -0.34807,-3.30739 -0.23208,-1.01541 -0.62378,-1.87127 -1.175,-2.56755 -0.55127,-0.72534 -1.27651,-1.29106 -2.17591,-1.69724 -0.89937,-0.40622 -2.03085,-0.60924 -3.39444,-0.60924 -1.7407,0 -3.24932,0.47887 -4.52588,1.43609 -1.27654,0.9574 -2.1324,2.21945 -2.56752,3.78609 h -0.0873 c -0.37736,-1.65373 -1.16057,-2.94473 -2.35003,-3.87315 -1.16051,-0.95739 -2.61111,-1.40711 -4.35184,-1.34908 -0.87037,0 -1.69718,0.15983 -2.48051,0.47883 -0.75436,0.29061 -1.45038,0.7108 -2.0886,1.26206 -0.63829,0.55128 -1.25314,1.16123 -1.61049,1.91479 -0.43644,0.92032 -0.47304,1.98849 -0.56615,3.00276 z"
           id="path1100"
           inkscape:connector-curvature="0"
           sodipodi:nodetypes="cccssscsccscccscccsccscccsscccccsac"
           style="font-style:normal;font-variant:normal;font-weight:100;font-stretch:normal;font-size:medium;line-height:100%;font-family:'Helvetica Neue';-inkscape-font-specification:'Helvetica Neue, Thin';font-variant-ligatures:normal;font-variant-caps:normal;font-variant-numeric:normal;font-feature-settings:normal;text-align:start;letter-spacing:0px;word-spacing:0px;writing-mode:lr-tb;text-anchor:start;fill:#00ced1;fill-opacity:1;stroke:#00ced1;stroke-width:1.651;stroke-linecap:butt;stroke-linejoin:miter;stroke-miterlimit:4;stroke-dasharray:none;stroke-opacity:1" />
        <path
           inkscape:connector-curvature="0"
           id="path1102"
           style="font-style:normal;font-variant:normal;font-weight:100;font-stretch:normal;font-size:medium;line-height:100%;font-family:'Helvetica Neue';-inkscape-font-specification:'Helvetica Neue, Thin';font-variant-ligatures:normal;font-variant-caps:normal;font-variant-numeric:normal;font-feature-settings:normal;text-align:start;letter-spacing:0px;word-spacing:0px;writing-mode:lr-tb;text-anchor:start;fill:#00ced1;fill-opacity:1;stroke:#00ced1;stroke-width:1.22936;stroke-linecap:butt;stroke-linejoin:miter;stroke-miterlimit:4;stroke-dasharray:none;stroke-opacity:1"
           d="m 325.23134,343.97134 v 23.31778 h 0.9088 v -23.31778 z" />
      </g>
      <text
         xml:space="preserve"
         style="font-size:8.42666px;line-height:1.25;font-family:sans-serif;fill:#00ced2;fill-opacity:0.968627;stroke:none;stroke-width:0.287676;stroke-linecap:square;stroke-miterlimit:4;stroke-dasharray:none;stroke-opacity:1;paint-order:fill markers stroke"
         x="194.31358"
         y="273.48294"
         id="text1130"
         transform="scale(1.0008822,0.99911858)"><tspan
           sodipodi:role="line"
           id="tspan1128"
           x="194.31358"
           y="273.48294"
           style="fill:#00ced2;fill-opacity:0.968627;stroke:none;stroke-width:0.287676;stroke-linecap:square;stroke-miterlimit:4;stroke-dasharray:none;stroke-opacity:1;paint-order:fill markers stroke">t</tspan></text>
      <path
         d="m 185.86596,269.86222 c 0.0718,-0.23338 0.17054,-0.43683 0.29621,-0.61037 0.13165,-0.17952 0.29022,-0.32014 0.47573,-0.42187 0.18551,-0.10767 0.39196,-0.16158 0.61935,-0.16158 0.25732,0 0.46675,0.0418 0.62832,0.12567 0.16157,0.0838 0.28723,0.19747 0.377,0.34109 0.0899,0.14362 0.1496,0.31118 0.17953,0.50266 0.0359,0.19149 0.0539,0.39495 0.0539,0.61038 v 2.96216 l 0.17953,-6e-5 v -2.92621 c 0,-0.21541 0.0329,-0.41887 0.0988,-0.61037 0.0658,-0.19747 0.16157,-0.371 0.28724,-0.5206 0.12566,-0.1496 0.27825,-0.2663 0.45777,-0.35008 0.17953,-0.0898 0.37999,-0.13464 0.6014,-0.13464 0.25133,0 0.45778,0.0359 0.61935,0.1077 0.16755,0.0718 0.2992,0.17353 0.39494,0.30519 0.10172,0.13164 0.17055,0.29023 0.20645,0.47572 0.0418,0.18551 0.0629,0.39196 0.0629,0.61935 v 3.03391 h 0.17951 v -3.03391 c 0,-0.25133 -0.024,-0.47873 -0.0718,-0.68218 -0.0479,-0.20944 -0.12866,-0.38597 -0.24236,-0.52958 -0.11371,-0.14961 -0.26329,-0.2663 -0.4488,-0.35007 -0.18551,-0.0838 -0.41889,-0.12567 -0.70014,-0.12567 -0.35903,0 -0.6702,0.0988 -0.93351,0.29621 -0.26329,0.19748 -0.43982,0.45778 -0.52957,0.78092 h -0.018 c -0.0778,-0.34109 -0.23938,-0.60738 -0.48471,-0.79887 -0.23937,-0.19748 -0.53857,-0.29023 -0.89762,-0.27827 -0.17952,0 -0.35005,0.033 -0.51163,0.0988 -0.15559,0.0599 -0.29915,0.14661 -0.43079,0.26031 -0.13165,0.11371 -0.25847,0.23951 -0.33218,0.39494 -0.09,0.18983 -0.0976,0.41015 -0.11677,0.61935 z"
         id="path1132"
         inkscape:connector-curvature="0"
         sodipodi:nodetypes="cccssscsccscccscccsccscccsscccccsac"
         style="font-style:normal;font-variant:normal;font-weight:100;font-stretch:normal;font-size:medium;line-height:100%;font-family:'Helvetica Neue';-inkscape-font-specification:'Helvetica Neue, Thin';font-variant-ligatures:normal;font-variant-caps:normal;font-variant-numeric:normal;font-feature-settings:normal;text-align:start;letter-spacing:0px;word-spacing:0px;writing-mode:lr-tb;text-anchor:start;fill:#00ced1;fill-opacity:1;stroke:#00ced1;stroke-width:0.340537;stroke-linecap:butt;stroke-linejoin:miter;stroke-miterlimit:4;stroke-dasharray:none;stroke-opacity:1" />
      <path
         inkscape:connector-curvature="0"
         id="path1134"
         style="font-style:normal;font-variant:normal;font-weight:100;font-stretch:normal;font-size:medium;line-height:100%;font-family:'Helvetica Neue';-inkscape-font-specification:'Helvetica Neue, Thin';font-variant-ligatures:normal;font-variant-caps:normal;font-variant-numeric:normal;font-feature-settings:normal;text-align:start;letter-spacing:0px;word-spacing:0px;writing-mode:lr-tb;text-anchor:start;fill:#00ced1;fill-opacity:1;stroke:#00ced1;stroke-width:0.253568;stroke-linecap:butt;stroke-linejoin:miter;stroke-miterlimit:4;stroke-dasharray:none;stroke-opacity:1"
         d="m 192.84894,268.4444 v 4.80951 h 0.18745 v -4.80951 z" />
      <text
         xml:space="preserve"
         style="font-size:15.5056px;line-height:1.25;font-family:sans-serif;fill:#00ced2;fill-opacity:0.968627;stroke:none;stroke-width:0.529342;stroke-linecap:square;stroke-miterlimit:4;stroke-dasharray:none;stroke-opacity:1;paint-order:fill markers stroke"
         x="89.99221"
         y="310.8428"
         id="text1140"
         transform="scale(1.0008822,0.99911858)"><tspan
           sodipodi:role="line"
           id="tspan1138"
           x="89.99221"
           y="310.8428"
           style="fill:#00ced2;fill-opacity:0.968627;stroke:none;stroke-width:0.529342;stroke-linecap:square;stroke-miterlimit:4;stroke-dasharray:none;stroke-opacity:1;paint-order:fill markers stroke">t</tspan></text>
      <path
         d="m 74.211996,304.35002 c 0.132097,-0.42944 0.313805,-0.80381 0.545047,-1.12313 0.242247,-0.33033 0.53403,-0.58909 0.875372,-0.77627 0.341348,-0.19812 0.721233,-0.29731 1.139635,-0.29731 0.47349,0 0.858871,0.077 1.156169,0.23123 0.297297,0.15422 0.528514,0.36336 0.693695,0.62764 0.165362,0.26426 0.275275,0.57258 0.330338,0.92493 0.06606,0.35235 0.09919,0.72672 0.09919,1.12312 v 5.45058 l 0.330331,-1.2e-4 v -5.3844 c 0,-0.39639 0.06055,-0.77076 0.181738,-1.12312 0.121081,-0.36336 0.297298,-0.68268 0.528534,-0.95795 0.23123,-0.27528 0.512007,-0.49 0.842332,-0.64416 0.330343,-0.16531 0.699211,-0.24775 1.10662,-0.24775 0.46246,0 0.842351,0.0661 1.13963,0.19816 0.308321,0.13211 0.550556,0.31932 0.726736,0.56157 0.18716,0.24224 0.313811,0.53404 0.379872,0.87537 0.07697,0.34135 0.115739,0.72123 0.115739,1.13964 v 5.5826 h 0.330306 v -5.5826 c 0,-0.46246 -0.04416,-0.88089 -0.132104,-1.25526 -0.08808,-0.38538 -0.236744,-0.7102 -0.445946,-0.97446 -0.209226,-0.27529 -0.484476,-0.49 -0.82583,-0.64415 -0.341343,-0.15418 -0.770775,-0.23123 -1.288297,-0.23123 -0.66065,0 -1.233222,0.18174 -1.71771,0.54504 -0.484489,0.36336 -0.809311,0.84235 -0.974455,1.43694 h -0.03316 c -0.143221,-0.62764 -0.440475,-1.11762 -0.891911,-1.46998 -0.440456,-0.36337 -0.990999,-0.53404 -1.651661,-0.51202 -0.330331,0 -0.644136,0.0607 -0.941434,0.18173 -0.286298,0.11029 -0.550462,0.26977 -0.792691,0.47899 -0.242247,0.20923 -0.475601,0.44072 -0.611226,0.72673 -0.165641,0.34928 -0.179534,0.75468 -0.214872,1.13964 z"
         id="path1142"
         inkscape:connector-curvature="0"
         sodipodi:nodetypes="cccssscsccscccscccsccscccsscccccsac"
         style="font-style:normal;font-variant:normal;font-weight:100;font-stretch:normal;font-size:medium;line-height:100%;font-family:'Helvetica Neue';-inkscape-font-specification:'Helvetica Neue, Thin';font-variant-ligatures:normal;font-variant-caps:normal;font-variant-numeric:normal;font-feature-settings:normal;text-align:start;letter-spacing:0px;word-spacing:0px;writing-mode:lr-tb;text-anchor:start;fill:#00ced1;fill-opacity:1;stroke:#00ced1;stroke-width:0.62661;stroke-linecap:butt;stroke-linejoin:miter;stroke-miterlimit:4;stroke-dasharray:none;stroke-opacity:1" />
      <path
         inkscape:connector-curvature="0"
         id="path1144"
         style="font-style:normal;font-variant:normal;font-weight:100;font-stretch:normal;font-size:medium;line-height:100%;font-family:'Helvetica Neue';-inkscape-font-specification:'Helvetica Neue, Thin';font-variant-ligatures:normal;font-variant-caps:normal;font-variant-numeric:normal;font-feature-settings:normal;text-align:start;letter-spacing:0px;word-spacing:0px;writing-mode:lr-tb;text-anchor:start;fill:#00ced1;fill-opacity:1;stroke:#00ced1;stroke-width:0.466582;stroke-linecap:butt;stroke-linejoin:miter;stroke-miterlimit:4;stroke-dasharray:none;stroke-opacity:1"
         d="m 87.06114,301.74112 v 8.84983 h 0.34492 v -8.84983 z" />
      <text
         xml:space="preserve"
         style="font-size:8.46966px;line-height:1.25;font-family:sans-serif;fill:#00ced2;fill-opacity:0.968627;stroke:none;stroke-width:0.289144;stroke-linecap:square;stroke-miterlimit:4;stroke-dasharray:none;stroke-opacity:1;paint-order:fill markers stroke"
         x="87.624794"
         y="273.51312"
         id="text1160"
         transform="scale(1.0008822,0.99911858)"><tspan
           sodipodi:role="line"
           id="tspan1158"
           x="87.624794"
           y="273.51312"
           style="fill:#00ced2;fill-opacity:0.968627;stroke:none;stroke-width:0.289144;stroke-linecap:square;stroke-miterlimit:4;stroke-dasharray:none;stroke-opacity:1;paint-order:fill markers stroke">t</tspan></text>
      <path
         d="m 79.039028,269.87513 c 0.07217,-0.23458 0.171409,-0.43907 0.297714,-0.61349 0.132328,-0.18044 0.291709,-0.32178 0.478159,-0.42403 0.186458,-0.10822 0.393972,-0.1624 0.622515,-0.1624 0.258633,0 0.469132,0.0421 0.631533,0.12631 0.162392,0.0842 0.288688,0.19848 0.378923,0.34283 0.09032,0.14436 0.150363,0.31277 0.180444,0.50523 0.03609,0.19247 0.05418,0.39697 0.05418,0.61349 v 2.97729 l 0.180435,-6e-5 v -2.94114 c 0,-0.21653 0.0331,-0.42102 0.09928,-0.61349 0.0662,-0.19848 0.162392,-0.3729 0.288706,-0.52327 0.126296,-0.15036 0.279671,-0.26765 0.460106,-0.35186 0.180444,-0.0903 0.381926,-0.13533 0.604472,-0.13533 0.252618,0 0.460124,0.0361 0.622507,0.10825 0.168415,0.0722 0.300726,0.17442 0.396967,0.30674 0.102229,0.13232 0.171418,0.29172 0.207496,0.47816 0.04206,0.18645 0.06322,0.39396 0.06322,0.62251 v 3.0494 h 0.180427 v -3.0494 c 0,-0.25261 -0.02415,-0.48117 -0.07217,-0.68567 -0.04812,-0.2105 -0.129317,-0.38793 -0.243593,-0.53228 -0.114293,-0.15038 -0.264638,-0.26765 -0.451097,-0.35186 -0.18645,-0.0842 -0.421025,-0.1263 -0.703716,-0.1263 -0.360862,0 -0.673626,0.0993 -0.938273,0.29772 -0.264639,0.19848 -0.442071,0.46012 -0.53228,0.78491 h -0.01809 c -0.07823,-0.34284 -0.240598,-0.61049 -0.487184,-0.80296 -0.240598,-0.19847 -0.541324,-0.29171 -0.902204,-0.27968 -0.180435,0 -0.351845,0.0332 -0.514237,0.0993 -0.156386,0.0602 -0.300681,0.14736 -0.433001,0.26163 -0.132319,0.11429 -0.259792,0.24074 -0.333871,0.39697 -0.09048,0.1908 -0.09807,0.41224 -0.117367,0.62251 z"
         id="path1162"
         inkscape:connector-curvature="0"
         sodipodi:nodetypes="cccssscsccscccscccsccscccsscccccsac"
         style="font-style:normal;font-variant:normal;font-weight:100;font-stretch:normal;font-size:medium;line-height:100%;font-family:'Helvetica Neue';-inkscape-font-specification:'Helvetica Neue, Thin';font-variant-ligatures:normal;font-variant-caps:normal;font-variant-numeric:normal;font-feature-settings:normal;text-align:start;letter-spacing:0px;word-spacing:0px;writing-mode:lr-tb;text-anchor:start;fill:#00ced1;fill-opacity:1;stroke:#00ced1;stroke-width:0.342273;stroke-linecap:butt;stroke-linejoin:miter;stroke-miterlimit:4;stroke-dasharray:none;stroke-opacity:1" />
      <path
         inkscape:connector-curvature="0"
         id="path1164"
         style="font-style:normal;font-variant:normal;font-weight:100;font-stretch:normal;font-size:medium;line-height:100%;font-family:'Helvetica Neue';-inkscape-font-specification:'Helvetica Neue, Thin';font-variant-ligatures:normal;font-variant-caps:normal;font-variant-numeric:normal;font-feature-settings:normal;text-align:start;letter-spacing:0px;word-spacing:0px;writing-mode:lr-tb;text-anchor:start;fill:#00ced1;fill-opacity:1;stroke:#00ced1;stroke-width:0.254863;stroke-linecap:butt;stroke-linejoin:miter;stroke-miterlimit:4;stroke-dasharray:none;stroke-opacity:1"
         d="m 86.05766,268.45006 v 4.83408 h 0.188408 v -4.83408 z" />
      <text
         xml:space="preserve"
         style="font-size:10.5937px;line-height:1.25;font-family:sans-serif;fill:#00ced2;fill-opacity:0.968627;stroke:none;stroke-width:0;stroke-linecap:square;stroke-miterlimit:4;stroke-dasharray:none;stroke-opacity:1;paint-order:fill markers stroke"
         x="135.74019"
         y="292.10782"
         id="text1687"
         transform="scale(1.0008822,0.99911859)"><tspan
           sodipodi:role="line"
           id="tspan1685"
           x="135.74019"
           y="292.10782"
           style="fill:#00ced2;fill-opacity:0.968627;stroke:none;stroke-width:0;stroke-linecap:square;stroke-miterlimit:4;stroke-dasharray:none;stroke-opacity:1;paint-order:fill markers stroke">t</tspan></text>
      <path
         d="m 125.02441,287.60155 c 0.0902,-0.29339 0.2144,-0.54917 0.37238,-0.76733 0.16551,-0.22569 0.36486,-0.40247 0.59807,-0.53036 0.23322,-0.13536 0.49276,-0.20313 0.77862,-0.20313 0.32349,0 0.58679,0.0526 0.78991,0.15799 0.20312,0.10535 0.36109,0.24825 0.47394,0.4288 0.11298,0.18056 0.18808,0.3912 0.2257,0.63193 0.0451,0.24073 0.0678,0.49651 0.0678,0.76734 v 3.72391 l 0.22569,-8e-5 v -3.6787 c 0,-0.27082 0.0414,-0.5266 0.12416,-0.76734 0.0827,-0.24825 0.20312,-0.46642 0.3611,-0.65448 0.15798,-0.18808 0.34982,-0.33478 0.5755,-0.4401 0.22569,-0.11294 0.47771,-0.16927 0.75606,-0.16927 0.31596,0 0.57551,0.0451 0.77861,0.13539 0.21065,0.0902 0.37615,0.21816 0.49652,0.38367 0.12787,0.1655 0.2144,0.36487 0.25953,0.59807 0.0526,0.23321 0.0791,0.49276 0.0791,0.77862 v 3.81411 h 0.22567 v -3.81411 c 0,-0.31596 -0.0302,-0.60184 -0.0903,-0.85762 -0.0602,-0.26329 -0.16174,-0.48522 -0.30468,-0.66576 -0.14294,-0.18808 -0.331,-0.33478 -0.56421,-0.4401 -0.23321,-0.10533 -0.52661,-0.15798 -0.88019,-0.15798 -0.45137,0 -0.84255,0.12417 -1.17357,0.37238 -0.33101,0.24826 -0.55293,0.57551 -0.66576,0.98175 h -0.0226 c -0.0979,-0.42882 -0.30094,-0.76358 -0.60937,-1.00432 -0.30092,-0.24825 -0.67706,-0.36487 -1.12844,-0.34982 -0.22568,0 -0.44008,0.0414 -0.6432,0.12416 -0.1956,0.0754 -0.37608,0.18431 -0.54158,0.32726 -0.1655,0.14295 -0.32494,0.30111 -0.4176,0.4965 -0.11317,0.23865 -0.12266,0.51562 -0.1468,0.77862 z"
         id="path1689"
         inkscape:connector-curvature="0"
         sodipodi:nodetypes="cccssscsccscccscccsccscccsscccccsac"
         style="font-style:normal;font-variant:normal;font-weight:100;font-stretch:normal;font-size:medium;line-height:100%;font-family:'Helvetica Neue';-inkscape-font-specification:'Helvetica Neue, Thin';font-variant-ligatures:normal;font-variant-caps:normal;font-variant-numeric:normal;font-feature-settings:normal;text-align:start;letter-spacing:0px;word-spacing:0px;writing-mode:lr-tb;text-anchor:start;fill:#00ced1;fill-opacity:1;stroke:#00ced1;stroke-width:0.30118;stroke-linecap:butt;stroke-linejoin:miter;stroke-miterlimit:4;stroke-dasharray:none;stroke-opacity:1" />
      <path
         style="font-style:normal;font-variant:normal;font-weight:100;font-stretch:normal;font-size:medium;line-height:100%;font-family:'Helvetica Neue';-inkscape-font-specification:'Helvetica Neue, Thin';font-variant-ligatures:normal;font-variant-caps:normal;font-variant-numeric:normal;font-feature-settings:normal;text-align:start;letter-spacing:0px;word-spacing:0px;writing-mode:lr-tb;text-anchor:start;fill:#00ced1;fill-opacity:1;stroke:none;stroke-width:0.30118;stroke-linecap:butt;stroke-linejoin:miter;stroke-miterlimit:4;stroke-dasharray:none;stroke-opacity:1"
         sodipodi:nodetypes="cccssscsccscccscccsccscccsscccccsac"
         inkscape:connector-curvature="0"
         id="path1691"
         d="m 125.02441,287.60155 c 0.0902,-0.29339 0.2144,-0.54917 0.37238,-0.76733 0.16551,-0.22569 0.36486,-0.40247 0.59807,-0.53036 0.23322,-0.13536 0.49276,-0.20313 0.77862,-0.20313 0.32349,0 0.58679,0.0526 0.78991,0.15799 0.20312,0.10535 0.36109,0.24825 0.47394,0.4288 0.11298,0.18056 0.18808,0.3912 0.2257,0.63193 0.0451,0.24073 0.0678,0.49651 0.0678,0.76734 v -0.003 h 0.22569 v 0 c 0,0 0.0414,-0.4787 0.12416,-0.71944 0.0827,-0.24825 0.20312,-0.46643 0.3611,-0.65448 0.15798,-0.18807 0.34982,-0.33478 0.5755,-0.4401 0.22569,-0.11294 0.47771,-0.16927 0.75606,-0.16927 0.31596,0 0.57551,0.0451 0.77861,0.13539 0.21065,0.0903 0.37615,0.21816 0.49652,0.38367 0.12787,0.1655 0.2144,0.36487 0.25953,0.59807 0.0526,0.23321 0.0791,0.49275 0.0791,0.77862 v 3.81412 h 0.22567 v -3.81412 c 0,-0.31596 -0.0302,-0.60183 -0.0903,-0.85761 -0.0602,-0.2633 -0.16174,-0.48522 -0.30468,-0.66577 -0.14294,-0.18808 -0.331,-0.33477 -0.56421,-0.44009 -0.23321,-0.10534 -0.52661,-0.15799 -0.88019,-0.15799 -0.45137,0 -0.84255,0.12418 -1.17357,0.37239 -0.33101,0.24825 -0.55293,0.57551 -0.66576,0.98174 h -0.0226 c -0.0979,-0.42881 -0.30094,-0.76358 -0.60937,-1.00431 -0.30092,-0.24826 -0.67706,-0.36487 -1.12844,-0.34983 -0.22568,0 -0.44008,0.0414 -0.6432,0.12417 -0.1956,0.0754 -0.37608,0.18431 -0.54158,0.32725 -0.1655,0.14294 -0.32494,0.3011 -0.4176,0.49651 -0.11317,0.23863 -0.12266,0.51562 -0.1468,0.77862 z" />
      <path
         inkscape:connector-curvature="0"
         id="path1693"
         style="font-style:normal;font-variant:normal;font-weight:100;font-stretch:normal;font-size:medium;line-height:100%;font-family:'Helvetica Neue';-inkscape-font-specification:'Helvetica Neue, Thin';font-variant-ligatures:normal;font-variant-caps:normal;font-variant-numeric:normal;font-feature-settings:normal;text-align:start;letter-spacing:0px;word-spacing:0px;writing-mode:lr-tb;text-anchor:start;fill:#00ced1;fill-opacity:1;stroke:#00ced1;stroke-width:0.30118;stroke-linecap:butt;stroke-linejoin:miter;stroke-miterlimit:4;stroke-dasharray:none;stroke-opacity:1"
         d="m 133.80314,285.81912 v 6.04634 h 0.23566 v -6.04634 z" />
      <text
         xml:space="preserve"
         style="font-size:10.5937px;line-height:1.25;font-family:sans-serif;fill:#00ced2;fill-opacity:0.968627;stroke:none;stroke-width:0;stroke-linecap:square;stroke-miterlimit:4;stroke-dasharray:none;stroke-opacity:1;paint-order:fill markers stroke"
         x="254.26546"
         y="292.10782"
         id="text2400"
         transform="scale(1.0008822,0.99911859)"><tspan
           sodipodi:role="line"
           id="tspan2398"
           x="254.26546"
           y="292.10782"
           style="fill:#00ced2;fill-opacity:0.968627;stroke:none;stroke-width:0;stroke-linecap:square;stroke-miterlimit:4;stroke-dasharray:none;stroke-opacity:1;paint-order:fill markers stroke">t</tspan></text>
      <path
         d="m 243.65424,287.60155 c 0.0903,-0.29339 0.2144,-0.54917 0.37238,-0.76733 0.16551,-0.22569 0.36486,-0.40247 0.59807,-0.53036 0.23322,-0.13536 0.49276,-0.20313 0.77862,-0.20313 0.32349,0 0.58679,0.0526 0.78991,0.15799 0.20312,0.10535 0.36109,0.24825 0.47394,0.4288 0.11298,0.18056 0.18808,0.3912 0.2257,0.63193 0.0451,0.24073 0.0678,0.49651 0.0678,0.76734 v 3.72391 l 0.22569,-8e-5 v -3.6787 c 0,-0.27082 0.0414,-0.5266 0.12416,-0.76734 0.0827,-0.24825 0.20312,-0.46642 0.3611,-0.65448 0.15798,-0.18808 0.34982,-0.33478 0.5755,-0.4401 0.22569,-0.11294 0.47771,-0.16927 0.75606,-0.16927 0.31596,0 0.57551,0.0451 0.77861,0.13539 0.21065,0.0902 0.37615,0.21816 0.49652,0.38367 0.12787,0.1655 0.2144,0.36487 0.25953,0.59807 0.0526,0.23321 0.0791,0.49276 0.0791,0.77862 v 3.81411 h 0.22567 v -3.81411 c 0,-0.31596 -0.0302,-0.60184 -0.0903,-0.85762 -0.0602,-0.26329 -0.16174,-0.48522 -0.30468,-0.66576 -0.14294,-0.18808 -0.331,-0.33478 -0.56421,-0.4401 -0.23321,-0.10533 -0.52661,-0.15798 -0.88019,-0.15798 -0.45137,0 -0.84255,0.12417 -1.17357,0.37238 -0.33101,0.24826 -0.55293,0.57551 -0.66576,0.98175 h -0.0226 c -0.0979,-0.42882 -0.30094,-0.76358 -0.60937,-1.00432 -0.30092,-0.24825 -0.67706,-0.36487 -1.12844,-0.34982 -0.22568,0 -0.44008,0.0414 -0.6432,0.12416 -0.1956,0.0754 -0.37608,0.18431 -0.54158,0.32726 -0.1655,0.14295 -0.32494,0.30111 -0.4176,0.4965 -0.11317,0.23865 -0.12266,0.51562 -0.1468,0.77862 z"
         id="path2402"
         inkscape:connector-curvature="0"
         sodipodi:nodetypes="cccssscsccscccscccsccscccsscccccsac"
         style="font-style:normal;font-variant:normal;font-weight:100;font-stretch:normal;font-size:medium;line-height:100%;font-family:'Helvetica Neue';-inkscape-font-specification:'Helvetica Neue, Thin';font-variant-ligatures:normal;font-variant-caps:normal;font-variant-numeric:normal;font-feature-settings:normal;text-align:start;letter-spacing:0px;word-spacing:0px;writing-mode:lr-tb;text-anchor:start;fill:#00ced1;fill-opacity:1;stroke:#00ced1;stroke-width:0.30118;stroke-linecap:butt;stroke-linejoin:miter;stroke-miterlimit:4;stroke-dasharray:none;stroke-opacity:1" />
      <path
         style="font-style:normal;font-variant:normal;font-weight:100;font-stretch:normal;font-size:medium;line-height:100%;font-family:'Helvetica Neue';-inkscape-font-specification:'Helvetica Neue, Thin';font-variant-ligatures:normal;font-variant-caps:normal;font-variant-numeric:normal;font-feature-settings:normal;text-align:start;letter-spacing:0px;word-spacing:0px;writing-mode:lr-tb;text-anchor:start;fill:#00ced1;fill-opacity:1;stroke:none;stroke-width:0.30118;stroke-linecap:butt;stroke-linejoin:miter;stroke-miterlimit:4;stroke-dasharray:none;stroke-opacity:1"
         sodipodi:nodetypes="cccssscsccscccscccsccscccsscccccsac"
         inkscape:connector-curvature="0"
         id="path2404"
         d="m 243.65424,287.60155 c 0.0903,-0.29339 0.2144,-0.54917 0.37238,-0.76733 0.16551,-0.22569 0.36486,-0.40247 0.59807,-0.53036 0.23322,-0.13536 0.49276,-0.20313 0.77862,-0.20313 0.32349,0 0.58679,0.0526 0.78991,0.15799 0.20312,0.10535 0.36109,0.24825 0.47394,0.4288 0.11298,0.18056 0.18808,0.3912 0.2257,0.63193 0.0451,0.24073 0.0678,0.49651 0.0678,0.76734 v -0.003 h 0.22569 v 0 c 0,0 0.0414,-0.4787 0.12416,-0.71944 0.0827,-0.24825 0.20312,-0.46643 0.3611,-0.65448 0.15798,-0.18807 0.34982,-0.33478 0.5755,-0.4401 0.22569,-0.11294 0.47771,-0.16927 0.75606,-0.16927 0.31596,0 0.57551,0.0451 0.77861,0.13539 0.21065,0.0903 0.37615,0.21816 0.49652,0.38367 0.12787,0.1655 0.2144,0.36487 0.25953,0.59807 0.0526,0.23321 0.0791,0.49275 0.0791,0.77862 v 3.81412 h 0.22567 v -3.81412 c 0,-0.31596 -0.0302,-0.60183 -0.0903,-0.85761 -0.0602,-0.2633 -0.16174,-0.48522 -0.30468,-0.66577 -0.14294,-0.18808 -0.331,-0.33477 -0.56421,-0.44009 -0.23321,-0.10534 -0.52661,-0.15799 -0.88019,-0.15799 -0.45137,0 -0.84255,0.12418 -1.17357,0.37239 -0.33101,0.24825 -0.55293,0.57551 -0.66576,0.98174 h -0.0226 c -0.0979,-0.42881 -0.30094,-0.76358 -0.60937,-1.00431 -0.30092,-0.24826 -0.67706,-0.36487 -1.12844,-0.34983 -0.22568,0 -0.44008,0.0414 -0.6432,0.12417 -0.1956,0.0754 -0.37608,0.18431 -0.54158,0.32725 -0.1655,0.14294 -0.32494,0.3011 -0.4176,0.49651 -0.11317,0.23863 -0.12266,0.51562 -0.1468,0.77862 z" />
      <path
         inkscape:connector-curvature="0"
         id="path2406"
         style="font-style:normal;font-variant:normal;font-weight:100;font-stretch:normal;font-size:medium;line-height:100%;font-family:'Helvetica Neue';-inkscape-font-specification:'Helvetica Neue, Thin';font-variant-ligatures:normal;font-variant-caps:normal;font-variant-numeric:normal;font-feature-settings:normal;text-align:start;letter-spacing:0px;word-spacing:0px;writing-mode:lr-tb;text-anchor:start;fill:#00ced1;fill-opacity:1;stroke:#00ced1;stroke-width:0.30118;stroke-linecap:butt;stroke-linejoin:miter;stroke-miterlimit:4;stroke-dasharray:none;stroke-opacity:1"
         d="m 252.43297,285.81912 v 6.04634 h 0.23566 v -6.04634 z" />
      <text
         xml:space="preserve"
         style="font-size:15.4489px;line-height:1.25;font-family:sans-serif;fill:#00ced2;fill-opacity:0.968627;stroke:none;stroke-width:0.527406;stroke-linecap:square;stroke-miterlimit:4;stroke-dasharray:none;stroke-opacity:1;paint-order:fill markers stroke"
         x="196.68614"
         y="310.84375"
         id="text2412"
         transform="scale(1.0008822,0.99911858)"><tspan
           sodipodi:role="line"
           id="tspan2410"
           x="196.68614"
           y="310.84375"
           style="fill:#00ced2;fill-opacity:0.968627;stroke:none;stroke-width:0.527406;stroke-linecap:square;stroke-miterlimit:4;stroke-dasharray:none;stroke-opacity:1;paint-order:fill markers stroke">t</tspan></text>
      <path
         d="m 181.05805,304.37368 c 0.13161,-0.42786 0.31266,-0.80086 0.54305,-1.11902 0.24137,-0.32912 0.53208,-0.58693 0.87217,-0.77343 0.34011,-0.19739 0.71861,-0.29622 1.13547,-0.29622 0.47176,0 0.85573,0.0767 1.15194,0.23038 0.29622,0.15365 0.52659,0.36204 0.69116,0.62534 0.16476,0.26331 0.27427,0.5705 0.32913,0.92155 0.0658,0.35106 0.0988,0.72406 0.0988,1.11902 v 5.43065 l 0.32913,-1.1e-4 v -5.36472 c 0,-0.39494 0.0603,-0.76795 0.18106,-1.11903 0.12065,-0.36202 0.29621,-0.68017 0.52661,-0.95444 0.23038,-0.27427 0.51013,-0.4882 0.83925,-0.6418 0.32914,-0.1647 0.69664,-0.24684 1.10258,-0.24684 0.46077,0 0.83926,0.0658 1.13546,0.19744 0.30719,0.13162 0.54854,0.31815 0.72408,0.55951 0.18648,0.24135 0.31266,0.53209 0.37847,0.87217 0.0767,0.3401 0.11532,0.71859 0.11532,1.13548 v 5.56218 h 0.3291 v -5.56218 c 0,-0.46077 -0.044,-0.87767 -0.13162,-1.25067 -0.0877,-0.38397 -0.23587,-0.70761 -0.44431,-0.9709 -0.20847,-0.27429 -0.48271,-0.48821 -0.82281,-0.6418 -0.3401,-0.15362 -0.76795,-0.23039 -1.28359,-0.23039 -0.65824,0 -1.2287,0.18109 -1.71144,0.54305 -0.48271,0.36204 -0.80635,0.83927 -0.97089,1.43169 h -0.033 c -0.14269,-0.62535 -0.43886,-1.11354 -0.88864,-1.46461 -0.43885,-0.36203 -0.98739,-0.53209 -1.64562,-0.51015 -0.32913,0 -0.64178,0.0604 -0.93801,0.18108 -0.28524,0.10988 -0.54844,0.26878 -0.78978,0.47723 -0.24136,0.20847 -0.47387,0.43911 -0.609,0.72407 -0.16503,0.34801 -0.17888,0.75194 -0.21407,1.13547 z"
         id="path2414"
         inkscape:connector-curvature="0"
         sodipodi:nodetypes="cccssscsccscccscccsccscccsscccccsac"
         style="font-style:normal;font-variant:normal;font-weight:100;font-stretch:normal;font-size:medium;line-height:100%;font-family:'Helvetica Neue';-inkscape-font-specification:'Helvetica Neue, Thin';font-variant-ligatures:normal;font-variant-caps:normal;font-variant-numeric:normal;font-feature-settings:normal;text-align:start;letter-spacing:0px;word-spacing:0px;writing-mode:lr-tb;text-anchor:start;fill:#00ced1;fill-opacity:1;stroke:#00ced1;stroke-width:0.624315;stroke-linecap:butt;stroke-linejoin:miter;stroke-miterlimit:4;stroke-dasharray:none;stroke-opacity:1" />
      <path
         inkscape:connector-curvature="0"
         id="path2416"
         style="font-style:normal;font-variant:normal;font-weight:100;font-stretch:normal;font-size:medium;line-height:100%;font-family:'Helvetica Neue';-inkscape-font-specification:'Helvetica Neue, Thin';font-variant-ligatures:normal;font-variant-caps:normal;font-variant-numeric:normal;font-feature-settings:normal;text-align:start;letter-spacing:0px;word-spacing:0px;writing-mode:lr-tb;text-anchor:start;fill:#00ced1;fill-opacity:1;stroke:#00ced1;stroke-width:0.464877;stroke-linecap:butt;stroke-linejoin:miter;stroke-miterlimit:4;stroke-dasharray:none;stroke-opacity:1"
         d="m 193.86021,301.77433 v 8.81747 h 0.34366 v -8.81747 z" />
      <text
         xml:space="preserve"
         style="font-size:15.4489px;line-height:1.25;font-family:sans-serif;fill:#00ced2;fill-opacity:0.968627;stroke:none;stroke-width:0.527406;stroke-linecap:square;stroke-miterlimit:4;stroke-dasharray:none;stroke-opacity:1;paint-order:fill markers stroke"
         x="291.50638"
         y="310.84375"
         id="text2422"
         transform="scale(1.0008822,0.99911858)"><tspan
           sodipodi:role="line"
           id="tspan2420"
           x="291.50638"
           y="310.84375"
           style="fill:#00ced2;fill-opacity:0.968627;stroke:none;stroke-width:0.527406;stroke-linecap:square;stroke-miterlimit:4;stroke-dasharray:none;stroke-opacity:1;paint-order:fill markers stroke">t</tspan></text>
      <path
         d="m 275.96194,304.37368 c 0.13161,-0.42786 0.31266,-0.80086 0.54305,-1.11902 0.24136,-0.32912 0.53208,-0.58693 0.87217,-0.77343 0.34011,-0.19739 0.71861,-0.29622 1.13547,-0.29622 0.47176,0 0.85573,0.0767 1.15194,0.23038 0.29622,0.15365 0.52659,0.36204 0.69116,0.62534 0.16476,0.26331 0.27427,0.5705 0.32913,0.92155 0.0658,0.35106 0.0988,0.72406 0.0988,1.11902 v 5.43065 l 0.32912,-1.1e-4 v -5.36472 c 0,-0.39494 0.0603,-0.76795 0.18107,-1.11903 0.12064,-0.36202 0.29621,-0.68017 0.52661,-0.95444 0.23038,-0.27427 0.51013,-0.4882 0.83925,-0.6418 0.32914,-0.1647 0.69664,-0.24684 1.10258,-0.24684 0.46077,0 0.83926,0.0658 1.13546,0.19744 0.30719,0.13162 0.54854,0.31815 0.72408,0.55951 0.18648,0.24135 0.31266,0.53209 0.37847,0.87217 0.0767,0.3401 0.11532,0.71859 0.11532,1.13548 v 5.56218 h 0.3291 v -5.56218 c 0,-0.46077 -0.044,-0.87767 -0.13162,-1.25067 -0.0878,-0.38397 -0.23587,-0.70761 -0.44431,-0.9709 -0.20847,-0.27429 -0.48271,-0.48821 -0.82281,-0.6418 -0.3401,-0.15362 -0.76795,-0.23039 -1.28359,-0.23039 -0.65824,0 -1.2287,0.18109 -1.71144,0.54305 -0.48271,0.36204 -0.80635,0.83927 -0.97089,1.43169 h -0.033 c -0.14269,-0.62535 -0.43886,-1.11354 -0.88864,-1.46461 -0.43885,-0.36203 -0.98739,-0.53209 -1.64563,-0.51015 -0.32912,0 -0.64177,0.0604 -0.938,0.18108 -0.28524,0.10988 -0.54844,0.26878 -0.78978,0.47723 -0.24136,0.20847 -0.47388,0.43911 -0.609,0.72407 -0.16504,0.34801 -0.17888,0.75194 -0.21407,1.13547 z"
         id="path2424"
         inkscape:connector-curvature="0"
         sodipodi:nodetypes="cccssscsccscccscccsccscccsscccccsac"
         style="font-style:normal;font-variant:normal;font-weight:100;font-stretch:normal;font-size:medium;line-height:100%;font-family:'Helvetica Neue';-inkscape-font-specification:'Helvetica Neue, Thin';font-variant-ligatures:normal;font-variant-caps:normal;font-variant-numeric:normal;font-feature-settings:normal;text-align:start;letter-spacing:0px;word-spacing:0px;writing-mode:lr-tb;text-anchor:start;fill:#00ced1;fill-opacity:1;stroke:#00ced1;stroke-width:0.624315;stroke-linecap:butt;stroke-linejoin:miter;stroke-miterlimit:4;stroke-dasharray:none;stroke-opacity:1" />
      <path
         inkscape:connector-curvature="0"
         id="path2426"
         style="font-style:normal;font-variant:normal;font-weight:100;font-stretch:normal;font-size:medium;line-height:100%;font-family:'Helvetica Neue';-inkscape-font-specification:'Helvetica Neue, Thin';font-variant-ligatures:normal;font-variant-caps:normal;font-variant-numeric:normal;font-feature-settings:normal;text-align:start;letter-spacing:0px;word-spacing:0px;writing-mode:lr-tb;text-anchor:start;fill:#00ced1;fill-opacity:1;stroke:#00ced1;stroke-width:0.464877;stroke-linecap:butt;stroke-linejoin:miter;stroke-miterlimit:4;stroke-dasharray:none;stroke-opacity:1"
         d="m 288.7641,301.77433 v 8.81747 h 0.34366 v -8.81747 z" />
      <text
         xml:space="preserve"
         style="font-size:8.42666px;line-height:1.25;font-family:sans-serif;fill:#00ced2;fill-opacity:0.968627;stroke:none;stroke-width:0.287676;stroke-linecap:square;stroke-miterlimit:4;stroke-dasharray:none;stroke-opacity:1;paint-order:fill markers stroke"
         x="289.13382"
         y="275.05328"
         id="text2432"
         transform="scale(1.0008822,0.99911858)"><tspan
           sodipodi:role="line"
           id="tspan2430"
           x="289.13382"
           y="275.05328"
           style="fill:#00ced2;fill-opacity:0.968627;stroke:none;stroke-width:0.287676;stroke-linecap:square;stroke-miterlimit:4;stroke-dasharray:none;stroke-opacity:1;paint-order:fill markers stroke">t</tspan></text>
      <path
         d="m 280.76985,271.43118 c 0.0718,-0.23338 0.17054,-0.43683 0.29621,-0.61037 0.13165,-0.17952 0.29022,-0.32014 0.47573,-0.42187 0.18551,-0.10767 0.39196,-0.16158 0.61935,-0.16158 0.25732,0 0.46675,0.0418 0.62832,0.12567 0.16157,0.0838 0.28723,0.19747 0.377,0.34109 0.0899,0.14362 0.1496,0.31118 0.17953,0.50266 0.0359,0.19149 0.0539,0.39495 0.0539,0.61038 v 2.96216 l 0.17953,-6e-5 v -2.92621 c 0,-0.21541 0.0329,-0.41887 0.0988,-0.61037 0.0658,-0.19747 0.16157,-0.371 0.28724,-0.5206 0.12566,-0.1496 0.27825,-0.2663 0.45777,-0.35008 0.17953,-0.0898 0.37999,-0.13464 0.6014,-0.13464 0.25133,0 0.45778,0.0359 0.61935,0.1077 0.16755,0.0718 0.2992,0.17353 0.39494,0.30519 0.10172,0.13164 0.17055,0.29023 0.20645,0.47572 0.0418,0.18551 0.0629,0.39196 0.0629,0.61935 v 3.03391 h 0.17951 v -3.03391 c 0,-0.25133 -0.024,-0.47873 -0.0718,-0.68218 -0.0479,-0.20944 -0.12866,-0.38597 -0.24236,-0.52958 -0.11371,-0.14961 -0.26329,-0.2663 -0.4488,-0.35007 -0.18551,-0.0838 -0.41889,-0.12567 -0.70014,-0.12567 -0.35903,0 -0.6702,0.0988 -0.93351,0.29621 -0.26329,0.19748 -0.43982,0.45778 -0.52957,0.78092 h -0.018 c -0.0778,-0.34109 -0.23938,-0.60738 -0.48471,-0.79887 -0.23937,-0.19748 -0.53857,-0.29023 -0.89762,-0.27827 -0.17952,0 -0.35005,0.033 -0.51163,0.0988 -0.15559,0.0599 -0.29915,0.14661 -0.43079,0.26031 -0.13165,0.11371 -0.25847,0.23951 -0.33218,0.39494 -0.09,0.18983 -0.0976,0.41015 -0.11677,0.61935 z"
         id="path2434"
         inkscape:connector-curvature="0"
         sodipodi:nodetypes="cccssscsccscccscccsccscccsscccccsac"
         style="font-style:normal;font-variant:normal;font-weight:100;font-stretch:normal;font-size:medium;line-height:100%;font-family:'Helvetica Neue';-inkscape-font-specification:'Helvetica Neue, Thin';font-variant-ligatures:normal;font-variant-caps:normal;font-variant-numeric:normal;font-feature-settings:normal;text-align:start;letter-spacing:0px;word-spacing:0px;writing-mode:lr-tb;text-anchor:start;fill:#00ced1;fill-opacity:1;stroke:#00ced1;stroke-width:0.340537;stroke-linecap:butt;stroke-linejoin:miter;stroke-miterlimit:4;stroke-dasharray:none;stroke-opacity:1" />
      <path
         inkscape:connector-curvature="0"
         id="path2436"
         style="font-style:normal;font-variant:normal;font-weight:100;font-stretch:normal;font-size:medium;line-height:100%;font-family:'Helvetica Neue';-inkscape-font-specification:'Helvetica Neue, Thin';font-variant-ligatures:normal;font-variant-caps:normal;font-variant-numeric:normal;font-feature-settings:normal;text-align:start;letter-spacing:0px;word-spacing:0px;writing-mode:lr-tb;text-anchor:start;fill:#00ced1;fill-opacity:1;stroke:#00ced1;stroke-width:0.253568;stroke-linecap:butt;stroke-linejoin:miter;stroke-miterlimit:4;stroke-dasharray:none;stroke-opacity:1"
         d="m 287.75283,270.01336 v 4.80951 h 0.18745 v -4.80951 z" />
    </g>
  </g>
</svg>
