<?xml version="1.0" encoding="UTF-8" standalone="no"?>
<svg
   xmlns:dc="http://purl.org/dc/elements/1.1/"
   xmlns:cc="http://creativecommons.org/ns#"
   xmlns:rdf="http://www.w3.org/1999/02/22-rdf-syntax-ns#"
   xmlns:svg="http://www.w3.org/2000/svg"
   xmlns="http://www.w3.org/2000/svg"
   xmlns:sodipodi="http://sodipodi.sourceforge.net/DTD/sodipodi-0.dtd"
   xmlns:inkscape="http://www.inkscape.org/namespaces/inkscape"
   width="17mm"
   height="20mm"
   viewBox="0 0 16.999999 20.000002"
   version="1.1"
   id="svg8"
   inkscape:version="1.0.1 (c497b03c, 2020-09-10)"
   sodipodi:docname="schwimmmit_icon.svg"
   inkscape:export-filename="/Users/neuneu/swimmmit_icon.png"
   inkscape:export-xdpi="1000"
   inkscape:export-ydpi="1000">
  <defs
     id="defs2">
    <rect
       x="12.295913"
       y="216.34821"
       width="123.96288"
       height="30.11244"
       id="rect875" />
    <inkscape:path-effect
       effect="spiro"
       id="path-effect1243"
       is_visible="true"
       lpeversion="0" />
    <inkscape:path-effect
       is_visible="true"
       id="path-effect1131"
       effect="spiro"
       lpeversion="0" />
    <inkscape:path-effect
       is_visible="true"
       id="path-effect1032"
       effect="spiro"
       lpeversion="0" />
    <inkscape:path-effect
       effect="spiro"
       id="path-effect1028"
       is_visible="true"
       lpeversion="0" />
    <inkscape:path-effect
       effect="spiro"
       id="path-effect1005"
       is_visible="true"
       lpeversion="0" />
    <inkscape:path-effect
       is_visible="true"
       id="path-effect1147"
       effect="spiro"
       lpeversion="0" />
    <inkscape:path-effect
       effect="spiro"
       id="path-effect1024"
       is_visible="true"
       lpeversion="0" />
    <inkscape:path-effect
       is_visible="true"
       id="path-effect1019"
       effect="spiro"
       lpeversion="0" />
    <inkscape:path-effect
       is_visible="true"
       id="path-effect1015"
       effect="spiro"
       lpeversion="0" />
    <inkscape:path-effect
       effect="spiro"
       id="path-effect1021"
       is_visible="true"
       lpeversion="0" />
    <inkscape:path-effect
       effect="spiro"
       id="path-effect902"
       is_visible="true"
       lpeversion="0" />
  </defs>
  <sodipodi:namedview
     id="base"
     pagecolor="#ffffff"
     bordercolor="#666666"
     borderopacity="1.0"
     inkscape:pageopacity="0.0"
     inkscape:pageshadow="2"
     inkscape:zoom="3.1163232"
     inkscape:cx="37.534863"
     inkscape:cy="60.684202"
     inkscape:document-units="mm"
     inkscape:current-layer="layer1"
     showgrid="false"
     inkscape:window-width="1440"
     inkscape:window-height="847"
     inkscape:window-x="0"
     inkscape:window-y="25"
     inkscape:window-maximized="1"
     units="mm"
     showborder="true"
     inkscape:document-rotation="0"
     showguides="true"
     inkscape:guide-bbox="true">
    <sodipodi:guide
       position="32.645128,-86.194818"
       orientation="0,-1"
       id="guide1405" />
    <sodipodi:guide
       position="15.918229,-8.349607"
       orientation="0,-1"
       id="guide1407" />
  </sodipodi:namedview>
  <metadata
     id="metadata5">
    <rdf:RDF>
      <cc:Work
         rdf:about="">
        <dc:format>image/svg+xml</dc:format>
        <dc:type
           rdf:resource="http://purl.org/dc/dcmitype/StillImage" />
        <dc:title />
      </cc:Work>
    </rdf:RDF>
  </metadata>
  <g
     inkscape:label="Ebene 1"
     inkscape:groupmode="layer"
     id="layer1"
     transform="translate(0,-256.99999)">
    <g
       id="g2382"
       transform="matrix(2.1111104,0,0,2.1111104,-43.414358,-341.79643)"
       inkscape:export-filename="/Users/neuneu/swimmmit_icon.png"
       inkscape:export-xdpi="150"
       inkscape:export-ydpi="150">
      <g
         id="g1207"
         transform="matrix(0.35539843,0,0,0.33652118,-3.55326,181.52752)"
         style="fill:#000080;stroke:none;stroke-width:0;stroke-miterlimit:4;stroke-dasharray:none">
        <g
           aria-label="S"
           id="text1205"
           style="font-size:28.4056px;line-height:1.25;font-family:'Helvetica Neue';-inkscape-font-specification:'Helvetica Neue';fill:#000080;fill-opacity:1;stroke:none;stroke-width:0;stroke-miterlimit:4;stroke-dasharray:none;stroke-opacity:1">
          <path
             d="m 83.934523,313.32311 h 2.556504 q -0.05681,-1.67593 -0.653329,-2.86897 -0.568112,-1.22144 -1.590714,-2.01679 -0.994196,-0.79536 -2.329259,-1.16463 -1.335063,-0.36928 -2.897371,-0.36928 -1.391874,0 -2.726938,0.36928 -1.306657,0.34086 -2.357664,1.07941 -1.022602,0.71014 -1.647525,1.84636 -0.624923,1.10782 -0.624923,2.64173 0,1.39187 0.539706,2.32925 0.568112,0.90898 1.477091,1.5055 0.937385,0.56811 2.102015,0.93739 1.164629,0.34086 2.357664,0.62492 1.221441,0.25565 2.386071,0.5113 1.164629,0.25565 2.073609,0.68173 0.937384,0.39768 1.477091,1.05101 0.568112,0.65333 0.568112,1.70434 0,1.10782 -0.45449,1.81796 -0.454489,0.71014 -1.193035,1.13622 -0.738546,0.39768 -1.67593,0.56811 -0.90898,0.17044 -1.817959,0.17044 -1.136224,0 -2.215637,-0.28406 -1.079412,-0.28406 -1.903175,-0.88057 -0.795357,-0.59652 -1.306657,-1.5055 -0.482895,-0.93739 -0.482895,-2.21564 h -2.556504 q 0,1.84637 0.653328,3.20984 0.681735,1.33506 1.817959,2.21563 1.164629,0.85217 2.670126,1.27825 1.533902,0.42609 3.238238,0.42609 1.391875,0 2.783749,-0.34087 1.42028,-0.31246 2.556504,-1.0226 1.136224,-0.73855 1.846364,-1.87477 0.738546,-1.16463 0.738546,-2.78375 0,-1.5055 -0.568112,-2.49969 -0.539707,-0.9942 -1.477091,-1.64753 -0.90898,-0.65333 -2.073609,-1.0226 -1.16463,-0.39768 -2.386071,-0.68173 -1.193035,-0.28406 -2.357664,-0.5113 -1.16463,-0.25565 -2.102015,-0.62493 -0.908979,-0.36927 -1.477091,-0.93738 -0.539706,-0.59652 -0.539706,-1.5339 0,-0.9942 0.369272,-1.64753 0.397679,-0.68173 1.022602,-1.07941 0.653329,-0.39768 1.477091,-0.56811 0.823763,-0.17044 1.675931,-0.17044 2.102014,0 3.437077,0.9942 1.363469,0.96579 1.590714,3.15302 z"
             style="fill:#000080;fill-opacity:1;stroke:none;stroke-width:0;stroke-miterlimit:4;stroke-dasharray:none;stroke-opacity:1"
             id="path925" />
        </g>
      </g>
      <g
         id="g1213"
         transform="matrix(0.461041,0,0,0.42414851,-11.91918,153.70471)"
         style="fill:#00ced1;fill-opacity:1;stroke:none;stroke-width:0.852166;stroke-miterlimit:4;stroke-dasharray:none">
        <g
           aria-label="S"
           id="text1211"
           style="font-size:28.4056px;line-height:1.25;font-family:'Helvetica Neue';-inkscape-font-specification:'Helvetica Neue';fill:#00ced1;fill-opacity:1;stroke:none;stroke-width:0.852166;stroke-miterlimit:4;stroke-dasharray:none;stroke-opacity:1">
          <path
             d="m 83.934523,313.32311 h 2.556504 q -0.05681,-1.67593 -0.653329,-2.86897 -0.568112,-1.22144 -1.590714,-2.01679 -0.994196,-0.79536 -2.329259,-1.16463 -1.335063,-0.36928 -2.897371,-0.36928 -1.391874,0 -2.726938,0.36928 -1.306657,0.34086 -2.357664,1.07941 -1.022602,0.71014 -1.647525,1.84636 -0.624923,1.10782 -0.624923,2.64173 0,1.39187 0.539706,2.32925 0.568112,0.90898 1.477091,1.5055 0.937385,0.56811 2.102015,0.93739 1.164629,0.34086 2.357664,0.62492 1.221441,0.25565 2.386071,0.5113 1.164629,0.25565 2.073609,0.68173 0.937384,0.39768 1.477091,1.05101 0.568112,0.65333 0.568112,1.70434 0,1.10782 -0.45449,1.81796 -0.454489,0.71014 -1.193035,1.13622 -0.738546,0.39768 -1.67593,0.56811 -0.90898,0.17044 -1.817959,0.17044 -1.136224,0 -2.215637,-0.28406 -1.079412,-0.28406 -1.903175,-0.88057 -0.795357,-0.59652 -1.306657,-1.5055 -0.482895,-0.93739 -0.482895,-2.21564 h -2.556504 q 0,1.84637 0.653328,3.20984 0.681735,1.33506 1.817959,2.21563 1.164629,0.85217 2.670126,1.27825 1.533902,0.42609 3.238238,0.42609 1.391875,0 2.783749,-0.34087 1.42028,-0.31246 2.556504,-1.0226 1.136224,-0.73855 1.846364,-1.87477 0.738546,-1.16463 0.738546,-2.78375 0,-1.5055 -0.568112,-2.49969 -0.539707,-0.9942 -1.477091,-1.64753 -0.90898,-0.65333 -2.073609,-1.0226 -1.16463,-0.39768 -2.386071,-0.68173 -1.193035,-0.28406 -2.357664,-0.5113 -1.16463,-0.25565 -2.102015,-0.62493 -0.908979,-0.36927 -1.477091,-0.93738 -0.539706,-0.59652 -0.539706,-1.5339 0,-0.9942 0.369272,-1.64753 0.397679,-0.68173 1.022602,-1.07941 0.653329,-0.39768 1.477091,-0.56811 0.823763,-0.17044 1.675931,-0.17044 2.102014,0 3.437077,0.9942 1.363469,0.96579 1.590714,3.15302 z"
             style="fill:#00ced1;fill-opacity:1;stroke:none;stroke-width:0.852166;stroke-miterlimit:4;stroke-dasharray:none;stroke-opacity:1"
             id="path928" />
        </g>
      </g>
    </g>
    <text
       xml:space="preserve"
       id="text873"
       style="font-size:14.11110000000000042px;line-height:1.25;font-family:sans-serif;white-space:pre;shape-inside:url(#rect875);" />
    <g
       id="g908"
       transform="matrix(5.8614991,0,0,7.4807591,-130.99289,-1346.6965)"
       style="fill:#0000ff;stroke:none;stroke-opacity:1"
       inkscape:transform-center-x="1.8329092"
       inkscape:transform-center-y="43.531594" />
  </g>
</svg>
