<?xml version="1.0" encoding="UTF-8" standalone="no"?>
<svg
   xmlns:dc="http://purl.org/dc/elements/1.1/"
   xmlns:cc="http://creativecommons.org/ns#"
   xmlns:rdf="http://www.w3.org/1999/02/22-rdf-syntax-ns#"
   xmlns:svg="http://www.w3.org/2000/svg"
   xmlns="http://www.w3.org/2000/svg"
   xmlns:sodipodi="http://sodipodi.sourceforge.net/DTD/sodipodi-0.dtd"
   xmlns:inkscape="http://www.inkscape.org/namespaces/inkscape"
   width="1310"
   height="534"
   viewBox="0 0 346.60417 141.2875"
   version="1.1"
   id="svg8"
   inkscape:version="1.0.1 (c497b03c, 2020-09-10)"
   sodipodi:docname="schwim_logo_home.svg"
   inkscape:export-filename="/Users/neuneu/moniana-logo.png"
   inkscape:export-xdpi="150.01875"
   inkscape:export-ydpi="150.01875">
  <defs
     id="defs2">
    <rect
       x="12.295913"
       y="216.34821"
       width="123.96288"
       height="30.11244"
       id="rect875" />
    <inkscape:path-effect
       effect="spiro"
       id="path-effect1243"
       is_visible="true"
       lpeversion="0" />
    <inkscape:path-effect
       is_visible="true"
       id="path-effect1131"
       effect="spiro"
       lpeversion="0" />
    <inkscape:path-effect
       is_visible="true"
       id="path-effect1032"
       effect="spiro"
       lpeversion="0" />
    <inkscape:path-effect
       effect="spiro"
       id="path-effect1028"
       is_visible="true"
       lpeversion="0" />
    <inkscape:path-effect
       effect="spiro"
       id="path-effect1005"
       is_visible="true"
       lpeversion="0" />
    <inkscape:path-effect
       is_visible="true"
       id="path-effect1147"
       effect="spiro"
       lpeversion="0" />
    <inkscape:path-effect
       effect="spiro"
       id="path-effect1024"
       is_visible="true"
       lpeversion="0" />
    <inkscape:path-effect
       is_visible="true"
       id="path-effect1019"
       effect="spiro"
       lpeversion="0" />
    <inkscape:path-effect
       is_visible="true"
       id="path-effect1015"
       effect="spiro"
       lpeversion="0" />
    <inkscape:path-effect
       effect="spiro"
       id="path-effect1021"
       is_visible="true"
       lpeversion="0" />
    <inkscape:path-effect
       effect="spiro"
       id="path-effect902"
       is_visible="true"
       lpeversion="0" />
  </defs>
  <sodipodi:namedview
     id="base"
     pagecolor="#ffffff"
     bordercolor="#666666"
     borderopacity="1.0"
     inkscape:pageopacity="0.0"
     inkscape:pageshadow="2"
     inkscape:zoom="0.43332432"
     inkscape:cx="447.54051"
     inkscape:cy="-41.745685"
     inkscape:document-units="mm"
     inkscape:current-layer="layer1"
     showgrid="false"
     inkscape:window-width="1440"
     inkscape:window-height="847"
     inkscape:window-x="0"
     inkscape:window-y="25"
     inkscape:window-maximized="1"
     units="px"
     showborder="true"
     inkscape:document-rotation="0"
     showguides="true"
     inkscape:guide-bbox="true">
    <sodipodi:guide
       position="23.953959,-350.20951"
       orientation="0,-1"
       id="guide1405" />
    <sodipodi:guide
       position="13.687977,518.97701"
       orientation="0,-1"
       id="guide1407" />
  </sodipodi:namedview>
  <metadata
     id="metadata5">
    <rdf:RDF>
      <cc:Work
         rdf:about="">
        <dc:format>image/svg+xml</dc:format>
        <dc:type
           rdf:resource="http://purl.org/dc/dcmitype/StillImage" />
        <dc:title></dc:title>
      </cc:Work>
    </rdf:RDF>
  </metadata>
  <g
     inkscape:label="Ebene 1"
     inkscape:groupmode="layer"
     id="layer1"
     transform="translate(0,-256.99999)">
    <rect
       style="opacity:0.8;fill:#f9f9f9;fill-opacity:0.89999998;stroke-width:0.101695;stroke-linecap:square;paint-order:fill markers stroke"
       id="rect3970"
       width="346.60416"
       height="141.28751"
       x="5.0862632e-06"
       y="257"
       ry="40" />
    <text
       xml:space="preserve"
       id="text873"
       style="font-size:14.11110000000000042px;line-height:1.25;font-family:sans-serif;white-space:pre;shape-inside:url(#rect875);" />
    <g
       id="g908"
       transform="matrix(5.8614991,0,0,7.4807591,-130.99289,-1346.6965)"
       style="fill:#0000ff;stroke:none;stroke-opacity:1"
       inkscape:transform-center-x="1.8329092"
       inkscape:transform-center-y="43.531594" />
    <g
       id="g952"
       transform="translate(13.229166,7.8052083)">
      <g
         id="g2461"
         transform="matrix(0.98408003,0,0,0.98408003,-30.735411,0.51295147)">
        <g
           id="g2410"
           transform="translate(-99.295233,66.361327)">
          <g
             id="g2408">
            <g
               id="g2406">
              <g
                 id="g2400"
                 transform="matrix(1.28,0,0,1.28,16.362549,-156.46555)"
                 style="fill:#000080;fill-opacity:1;stroke:#000080;stroke-width:2.53281;stroke-miterlimit:4;stroke-dasharray:none;stroke-opacity:1">
                <path
                   d="m 173.50113,348.16466 c 0.53471,-1.73836 1.1137,-2.39427 2.04975,-3.68689 0.98063,-1.33719 2.16178,-2.38463 3.54354,-3.14236 1.3818,-0.802 2.91959,-1.20352 4.6133,-1.20352 1.91668,0 3.47672,0.31156 4.6802,0.93606 1.20347,0.62424 2.13944,1.4709 2.80808,2.54066 0.66941,1.06977 1.11434,2.31782 1.33723,3.74414 0.26742,1.42633 0.40156,2.9418 0.40156,4.54645 v 19.32967 l 1.33719,-4.7e-4 v -19.06178 c 0,-1.60461 0.24513,-3.12008 0.73566,-4.54645 0.49014,-1.47089 1.20348,-2.76351 2.13953,-3.87781 0.93602,-1.11433 2.07264,-1.98353 3.40978,-2.60756 1.33723,-0.66919 2.83042,-1.00291 4.47964,-1.00291 1.87207,0 3.40986,0.26742 4.61325,0.80218 1.24809,0.53475 2.22868,1.29261 2.94184,2.27324 0.75765,0.98058 1.27033,2.16182 1.53775,3.54353 0.31156,1.38176 0.4685,2.91956 0.4685,4.6133 v 19.86409 h 1.3371 v -19.86409 c 0,-1.87207 -0.1787,-3.56586 -0.53475,-5.08133 -0.35656,-1.56003 -0.95834,-2.87493 -1.80522,-3.94466 -0.84696,-1.11438 -1.96116,-1.98354 -3.34296,-2.60756 -1.38176,-0.62411 -3.12012,-0.93601 -5.21509,-0.93601 -2.67433,0 -4.9921,0.7357 -6.95335,2.20634 -1.96121,1.4709 -3.27611,3.40987 -3.94462,5.81678 h -0.13414 c -0.57975,-2.54071 -1.78306,-4.52416 -3.61048,-5.95053 -1.78297,-1.4709 -4.0116,-2.16182 -6.68597,-2.07268 -1.33719,0 -2.60748,0.24556 -3.81096,0.73566 -1.15895,0.44647 -2.22829,1.09205 -3.20883,1.93897 -0.98062,0.84696 -1.80548,1.80472 -2.39612,2.9418 -0.6187,1.50163 -0.79129,2.3855 -0.79141,3.75374 z"
                   id="path2398"
                   inkscape:connector-curvature="0"
                   sodipodi:nodetypes="cccssscsccscccscccsccscccsscccccscc"
                   style="font-style:normal;font-variant:normal;font-weight:100;font-stretch:normal;font-size:medium;line-height:100%;font-family:'Helvetica Neue';-inkscape-font-specification:'Helvetica Neue, Thin';font-variant-ligatures:normal;font-variant-caps:normal;font-variant-numeric:normal;font-feature-settings:normal;text-align:start;letter-spacing:0px;word-spacing:0px;writing-mode:lr-tb;text-anchor:start;fill:#000080;fill-opacity:1;stroke:#000080;stroke-width:2.53281;stroke-linecap:butt;stroke-linejoin:miter;stroke-miterlimit:4;stroke-dasharray:none;stroke-opacity:1" />
              </g>
              <g
                 id="g2404"
                 transform="matrix(1.28,0,0,1.28,19.237501,-159.91282)">
                <path
                   d="m 173.34454,349.02422 c 0.53471,-1.73836 1.27029,-3.25383 2.20634,-4.54645 0.98063,-1.33719 2.16178,-2.38463 3.54354,-3.14236 1.3818,-0.802 2.91959,-1.20352 4.6133,-1.20352 1.91668,0 3.47672,0.31156 4.6802,0.93606 1.20347,0.62424 2.13944,1.4709 2.80808,2.54066 0.66941,1.06977 1.11434,2.31782 1.33723,3.74414 0.26742,1.42633 0.40156,2.9418 0.40156,4.54645 v 22.0641 l 1.33719,-4.7e-4 v -21.79621 c 0,-1.60461 0.24513,-3.12008 0.73566,-4.54645 0.49014,-1.47089 1.20348,-2.76351 2.13953,-3.87781 0.93602,-1.11433 2.07264,-1.98353 3.40978,-2.60756 1.33723,-0.66919 2.83042,-1.00291 4.47964,-1.00291 1.87207,0 3.40986,0.26742 4.61325,0.80218 1.24809,0.53475 2.22868,1.29261 2.94184,2.27324 0.75765,0.98058 1.27033,2.16182 1.53775,3.54353 0.31156,1.38176 0.4685,2.91956 0.4685,4.6133 v 22.59852 h 1.3371 v -22.59852 c 0,-1.87207 -0.1787,-3.56586 -0.53475,-5.08133 -0.35656,-1.56003 -0.95834,-2.87493 -1.80522,-3.94466 -0.84696,-1.11438 -1.96116,-1.98354 -3.34296,-2.60756 -1.38176,-0.62411 -3.12012,-0.93601 -5.21509,-0.93601 -2.67433,0 -4.9921,0.7357 -6.95335,2.20634 -1.96121,1.4709 -3.27611,3.40987 -3.94462,5.81678 h -0.13414 c -0.57975,-2.54071 -1.78306,-4.52416 -3.61048,-5.95053 -1.78297,-1.4709 -4.0116,-2.16182 -6.68597,-2.07268 -1.33719,0 -2.60748,0.24556 -3.81096,0.73566 -1.15895,0.44647 -2.22829,1.09205 -3.20883,1.93897 -0.98062,0.84696 -1.92525,1.78405 -2.47428,2.9418 -0.67052,1.41394 -0.72675,3.05502 -0.8698,4.6133 z"
                   id="path2402"
                   inkscape:connector-curvature="0"
                   sodipodi:nodetypes="cccssscsccscccscccsccscccsscccccsac"
                   style="font-style:normal;font-variant:normal;font-weight:100;font-stretch:normal;font-size:medium;line-height:100%;font-family:'Helvetica Neue';-inkscape-font-specification:'Helvetica Neue, Thin';font-variant-ligatures:normal;font-variant-caps:normal;font-variant-numeric:normal;font-feature-settings:normal;text-align:start;letter-spacing:0px;word-spacing:0px;writing-mode:lr-tb;text-anchor:start;fill:#00ced1;fill-opacity:1;stroke:#00ced1;stroke-width:2.53652;stroke-linecap:butt;stroke-linejoin:miter;stroke-miterlimit:4;stroke-dasharray:none;stroke-opacity:1" />
              </g>
            </g>
          </g>
        </g>
        <path
           inkscape:connector-curvature="0"
           id="path1467"
           style="font-style:normal;font-variant:normal;font-weight:100;font-stretch:normal;font-size:medium;line-height:100%;font-family:'Helvetica Neue';-inkscape-font-specification:'Helvetica Neue, Thin';font-variant-ligatures:normal;font-variant-caps:normal;font-variant-numeric:normal;font-feature-settings:normal;text-align:start;letter-spacing:0px;word-spacing:0px;writing-mode:lr-tb;text-anchor:start;fill:#00ced1;fill-opacity:1;stroke:#00ced1;stroke-width:2.4176;stroke-linecap:butt;stroke-linejoin:miter;stroke-miterlimit:4;stroke-dasharray:none;stroke-opacity:1"
           d="m 205.13265,339.68127 v 45.8554 h 1.78719 v -45.8554 z" />
        <g
           id="g1477"
           transform="matrix(1.2060188,0,0,1.2060188,8.4442459,-7.2688186)">
          <g
             aria-label="t"
             transform="matrix(4.2893623,0,0,4.2818042,-826.17821,-882.48235)"
             id="g1471"
             style="font-size:14.6461px;line-height:1.25;font-family:sans-serif;fill:#000080;fill-opacity:1;stroke:none;stroke-width:0.5;stroke-linecap:square;stroke-miterlimit:4;stroke-dasharray:none;stroke-opacity:1;paint-order:fill markers stroke">
            <path
               d="m 239.35673,281.29178 c -0.23087,0.0614 -0.48352,0.1111 -0.75799,0.1503 -0.27008,0.0393 -0.51187,0.059 -0.72534,0.059 -0.74493,0 -1.31126,-0.2004 -1.69895,-0.60118 -0.3877,-0.40078 -0.58159,-1.04335 -0.58159,-1.92769 v -3.88153 -1.03244 1.03244 -1.03244 -2.09757 h 1.22848 v 2.09757 c 0,1.03244 0,0 0,1.03244 v 3.32611 c 0,0.38335 0.01,0.68394 0.0259,0.90177 0.0173,0.21345 0.0786,0.41383 0.18296,0.60116 0.0959,0.17427 0.22651,0.30277 0.39209,0.38553 0.16985,0.0786 0.42692,0.11763 0.77107,0.11763 0.20037,0 0.40947,-0.0283 0.62731,-0.0849 0.2178,-0.0612 0.37464,-0.11108 0.47047,-0.15029 h 0.0652 z"
               style="fill:#000080;fill-opacity:1;stroke:none;stroke-width:0.45687;stroke-linecap:square;stroke-miterlimit:4;stroke-dasharray:none;stroke-opacity:1;paint-order:fill markers stroke"
               id="path1469"
               sodipodi:nodetypes="ccsssccccccccscccscccc" />
          </g>
          <g
             aria-label="t"
             transform="scale(1.0008822,0.99911858)"
             id="text1475"
             style="font-size:62.7671px;line-height:1.25;font-family:sans-serif;fill:#00ced2;fill-opacity:0.968627;stroke:none;stroke-width:2.14279;stroke-linecap:square;stroke-miterlimit:4;stroke-dasharray:none;stroke-opacity:1;paint-order:fill markers stroke">
            <path
               d="m 198.50881,326.01408 q -1.62434,0.42907 -3.55516,0.7049 -1.90018,0.27583 -3.40193,0.27583 -5.24081,0 -7.96848,-2.81961 -2.72767,-2.81962 -2.72767,-9.04116 v -18.20491 h -3.8923 v -4.84239 h 3.8923 v -9.83801 h 5.76182 v 9.83801 h 11.89142 v 4.84239 h -11.89142 v 15.59983 q 0,2.69702 0.12259,4.22942 0.12259,1.50175 0.85815,2.81962 0.67425,1.22592 1.83888,1.80823 1.19527,0.55166 3.61646,0.55166 1.40981,0 2.94221,-0.39842 1.5324,-0.42907 2.20665,-0.70491 h 0.30648 z"
               style="fill:#00ced2;fill-opacity:0.968627;stroke:none;stroke-width:2.14279;stroke-linecap:square;stroke-miterlimit:4;stroke-dasharray:none;stroke-opacity:1;paint-order:fill markers stroke"
               id="path897" />
          </g>
        </g>
      </g>
      <g
         id="g2396"
         transform="matrix(0.98408003,0,0,0.98408003,26.297538,0.51295147)">
        <g
           id="g2394">
          <g
             id="g2392">
            <g
               id="g2386"
               transform="matrix(1.28,0,0,1.28,16.362549,-156.46555)"
               style="fill:#000080;fill-opacity:1;stroke:#000080;stroke-width:2.53281;stroke-miterlimit:4;stroke-dasharray:none;stroke-opacity:1">
              <path
                 d="m 173.50113,348.16466 c 0.53471,-1.73836 1.1137,-2.39427 2.04975,-3.68689 0.98063,-1.33719 2.16178,-2.38463 3.54354,-3.14236 1.3818,-0.802 2.91959,-1.20352 4.6133,-1.20352 1.91668,0 3.47672,0.31156 4.6802,0.93606 1.20347,0.62424 2.13944,1.4709 2.80808,2.54066 0.66941,1.06977 1.11434,2.31782 1.33723,3.74414 0.26742,1.42633 0.40156,2.9418 0.40156,4.54645 v 19.32967 l 1.33719,-4.7e-4 v -19.06178 c 0,-1.60461 0.24513,-3.12008 0.73566,-4.54645 0.49014,-1.47089 1.20348,-2.76351 2.13953,-3.87781 0.93602,-1.11433 2.07264,-1.98353 3.40978,-2.60756 1.33723,-0.66919 2.83042,-1.00291 4.47964,-1.00291 1.87207,0 3.40986,0.26742 4.61325,0.80218 1.24809,0.53475 2.22868,1.29261 2.94184,2.27324 0.75765,0.98058 1.27033,2.16182 1.53775,3.54353 0.31156,1.38176 0.4685,2.91956 0.4685,4.6133 v 19.86409 h 1.3371 v -19.86409 c 0,-1.87207 -0.1787,-3.56586 -0.53475,-5.08133 -0.35656,-1.56003 -0.95834,-2.87493 -1.80522,-3.94466 -0.84696,-1.11438 -1.96116,-1.98354 -3.34296,-2.60756 -1.38176,-0.62411 -3.12012,-0.93601 -5.21509,-0.93601 -2.67433,0 -4.9921,0.7357 -6.95335,2.20634 -1.96121,1.4709 -3.27611,3.40987 -3.94462,5.81678 h -0.13414 c -0.57975,-2.54071 -1.78306,-4.52416 -3.61048,-5.95053 -1.78297,-1.4709 -4.0116,-2.16182 -6.68597,-2.07268 -1.33719,0 -2.60748,0.24556 -3.81096,0.73566 -1.15895,0.44647 -2.22829,1.09205 -3.20883,1.93897 -0.98062,0.84696 -1.80548,1.80472 -2.39612,2.9418 -0.6187,1.50163 -0.79129,2.3855 -0.79141,3.75374 z"
                 id="path2384"
                 inkscape:connector-curvature="0"
                 sodipodi:nodetypes="cccssscsccscccscccsccscccsscccccscc"
                 style="font-style:normal;font-variant:normal;font-weight:100;font-stretch:normal;font-size:medium;line-height:100%;font-family:'Helvetica Neue';-inkscape-font-specification:'Helvetica Neue, Thin';font-variant-ligatures:normal;font-variant-caps:normal;font-variant-numeric:normal;font-feature-settings:normal;text-align:start;letter-spacing:0px;word-spacing:0px;writing-mode:lr-tb;text-anchor:start;fill:#000080;fill-opacity:1;stroke:#000080;stroke-width:2.53281;stroke-linecap:butt;stroke-linejoin:miter;stroke-miterlimit:4;stroke-dasharray:none;stroke-opacity:1" />
            </g>
            <g
               id="g2390"
               transform="matrix(1.28,0,0,1.28,19.237501,-159.91282)">
              <path
                 d="m 173.34454,349.02422 c 0.53471,-1.73836 1.27029,-3.25383 2.20634,-4.54645 0.98063,-1.33719 2.16178,-2.38463 3.54354,-3.14236 1.3818,-0.802 2.91959,-1.20352 4.6133,-1.20352 1.91668,0 3.47672,0.31156 4.6802,0.93606 1.20347,0.62424 2.13944,1.4709 2.80808,2.54066 0.66941,1.06977 1.11434,2.31782 1.33723,3.74414 0.26742,1.42633 0.40156,2.9418 0.40156,4.54645 v 22.0641 l 1.33719,-4.7e-4 v -21.79621 c 0,-1.60461 0.24513,-3.12008 0.73566,-4.54645 0.49014,-1.47089 1.20348,-2.76351 2.13953,-3.87781 0.93602,-1.11433 2.07264,-1.98353 3.40978,-2.60756 1.33723,-0.66919 2.83042,-1.00291 4.47964,-1.00291 1.87207,0 3.40986,0.26742 4.61325,0.80218 1.24809,0.53475 2.22868,1.29261 2.94184,2.27324 0.75765,0.98058 1.27033,2.16182 1.53775,3.54353 0.31156,1.38176 0.4685,2.91956 0.4685,4.6133 v 22.59852 h 1.3371 v -22.59852 c 0,-1.87207 -0.1787,-3.56586 -0.53475,-5.08133 -0.35656,-1.56003 -0.95834,-2.87493 -1.80522,-3.94466 -0.84696,-1.11438 -1.96116,-1.98354 -3.34296,-2.60756 -1.38176,-0.62411 -3.12012,-0.93601 -5.21509,-0.93601 -2.67433,0 -4.9921,0.7357 -6.95335,2.20634 -1.96121,1.4709 -3.27611,3.40987 -3.94462,5.81678 h -0.13414 c -0.57975,-2.54071 -1.78306,-4.52416 -3.61048,-5.95053 -1.78297,-1.4709 -4.0116,-2.16182 -6.68597,-2.07268 -1.33719,0 -2.60748,0.24556 -3.81096,0.73566 -1.15895,0.44647 -2.22829,1.09205 -3.20883,1.93897 -0.98062,0.84696 -1.92525,1.78405 -2.47428,2.9418 -0.67052,1.41394 -0.72675,3.05502 -0.8698,4.6133 z"
                 id="path2388"
                 inkscape:connector-curvature="0"
                 sodipodi:nodetypes="cccssscsccscccscccsccscccsscccccsac"
                 style="font-style:normal;font-variant:normal;font-weight:100;font-stretch:normal;font-size:medium;line-height:100%;font-family:'Helvetica Neue';-inkscape-font-specification:'Helvetica Neue, Thin';font-variant-ligatures:normal;font-variant-caps:normal;font-variant-numeric:normal;font-feature-settings:normal;text-align:start;letter-spacing:0px;word-spacing:0px;writing-mode:lr-tb;text-anchor:start;fill:#00ced1;fill-opacity:1;stroke:#00ced1;stroke-width:2.53652;stroke-linecap:butt;stroke-linejoin:miter;stroke-miterlimit:4;stroke-dasharray:none;stroke-opacity:1" />
            </g>
          </g>
        </g>
      </g>
      <g
         id="g1322"
         transform="matrix(1.2596224,0,0,1.2596224,-17.571417,-156.85406)">
        <g
           id="g1207"
           transform="matrix(1.523089,0,0,1.442189,-89.506852,-101.96691)"
           style="fill:#000080;stroke:none;stroke-width:0;stroke-miterlimit:4;stroke-dasharray:none">
          <g
             aria-label="S"
             id="text1205"
             style="font-size:28.4056px;line-height:1.25;font-family:'Helvetica Neue';-inkscape-font-specification:'Helvetica Neue';fill:#000080;fill-opacity:1;stroke:none;stroke-width:0;stroke-miterlimit:4;stroke-dasharray:none;stroke-opacity:1">
            <path
               d="m 83.934523,313.32311 h 2.556504 q -0.05681,-1.67593 -0.653329,-2.86897 -0.568112,-1.22144 -1.590714,-2.01679 -0.994196,-0.79536 -2.329259,-1.16463 -1.335063,-0.36928 -2.897371,-0.36928 -1.391874,0 -2.726938,0.36928 -1.306657,0.34086 -2.357664,1.07941 -1.022602,0.71014 -1.647525,1.84636 -0.624923,1.10782 -0.624923,2.64173 0,1.39187 0.539706,2.32925 0.568112,0.90898 1.477091,1.5055 0.937385,0.56811 2.102015,0.93739 1.164629,0.34086 2.357664,0.62492 1.221441,0.25565 2.386071,0.5113 1.164629,0.25565 2.073609,0.68173 0.937384,0.39768 1.477091,1.05101 0.568112,0.65333 0.568112,1.70434 0,1.10782 -0.45449,1.81796 -0.454489,0.71014 -1.193035,1.13622 -0.738546,0.39768 -1.67593,0.56811 -0.90898,0.17044 -1.817959,0.17044 -1.136224,0 -2.215637,-0.28406 -1.079412,-0.28406 -1.903175,-0.88057 -0.795357,-0.59652 -1.306657,-1.5055 -0.482895,-0.93739 -0.482895,-2.21564 h -2.556504 q 0,1.84637 0.653328,3.20984 0.681735,1.33506 1.817959,2.21563 1.164629,0.85217 2.670126,1.27825 1.533902,0.42609 3.238238,0.42609 1.391875,0 2.783749,-0.34087 1.42028,-0.31246 2.556504,-1.0226 1.136224,-0.73855 1.846364,-1.87477 0.738546,-1.16463 0.738546,-2.78375 0,-1.5055 -0.568112,-2.49969 -0.539707,-0.9942 -1.477091,-1.64753 -0.90898,-0.65333 -2.073609,-1.0226 -1.16463,-0.39768 -2.386071,-0.68173 -1.193035,-0.28406 -2.357664,-0.5113 -1.16463,-0.25565 -2.102015,-0.62493 -0.908979,-0.36927 -1.477091,-0.93738 -0.539706,-0.59652 -0.539706,-1.5339 0,-0.9942 0.369272,-1.64753 0.397679,-0.68173 1.022602,-1.07941 0.653329,-0.39768 1.477091,-0.56811 0.823763,-0.17044 1.675931,-0.17044 2.102014,0 3.437077,0.9942 1.363469,0.96579 1.590714,3.15302 z"
               style="fill:#000080;fill-opacity:1;stroke:none;stroke-width:0;stroke-miterlimit:4;stroke-dasharray:none;stroke-opacity:1"
               id="path900" />
          </g>
        </g>
        <g
           id="g1213"
           transform="matrix(1.9758288,0,0,1.8177231,-125.35968,-221.20383)"
           style="fill:#00ced1;fill-opacity:1;stroke:none;stroke-width:0.852166;stroke-miterlimit:4;stroke-dasharray:none">
          <g
             aria-label="S"
             id="text1211"
             style="font-size:28.4056px;line-height:1.25;font-family:'Helvetica Neue';-inkscape-font-specification:'Helvetica Neue';fill:#00ced1;fill-opacity:1;stroke:none;stroke-width:0.852166;stroke-miterlimit:4;stroke-dasharray:none;stroke-opacity:1">
            <path
               d="m 83.934523,313.32311 h 2.556504 q -0.05681,-1.67593 -0.653329,-2.86897 -0.568112,-1.22144 -1.590714,-2.01679 -0.994196,-0.79536 -2.329259,-1.16463 -1.335063,-0.36928 -2.897371,-0.36928 -1.391874,0 -2.726938,0.36928 -1.306657,0.34086 -2.357664,1.07941 -1.022602,0.71014 -1.647525,1.84636 -0.624923,1.10782 -0.624923,2.64173 0,1.39187 0.539706,2.32925 0.568112,0.90898 1.477091,1.5055 0.937385,0.56811 2.102015,0.93739 1.164629,0.34086 2.357664,0.62492 1.221441,0.25565 2.386071,0.5113 1.164629,0.25565 2.073609,0.68173 0.937384,0.39768 1.477091,1.05101 0.568112,0.65333 0.568112,1.70434 0,1.10782 -0.45449,1.81796 -0.454489,0.71014 -1.193035,1.13622 -0.738546,0.39768 -1.67593,0.56811 -0.90898,0.17044 -1.817959,0.17044 -1.136224,0 -2.215637,-0.28406 -1.079412,-0.28406 -1.903175,-0.88057 -0.795357,-0.59652 -1.306657,-1.5055 -0.482895,-0.93739 -0.482895,-2.21564 h -2.556504 q 0,1.84637 0.653328,3.20984 0.681735,1.33506 1.817959,2.21563 1.164629,0.85217 2.670126,1.27825 1.533902,0.42609 3.238238,0.42609 1.391875,0 2.783749,-0.34087 1.42028,-0.31246 2.556504,-1.0226 1.136224,-0.73855 1.846364,-1.87477 0.738546,-1.16463 0.738546,-2.78375 0,-1.5055 -0.568112,-2.49969 -0.539707,-0.9942 -1.477091,-1.64753 -0.90898,-0.65333 -2.073609,-1.0226 -1.16463,-0.39768 -2.386071,-0.68173 -1.193035,-0.28406 -2.357664,-0.5113 -1.16463,-0.25565 -2.102015,-0.62493 -0.908979,-0.36927 -1.477091,-0.93738 -0.539706,-0.59652 -0.539706,-1.5339 0,-0.9942 0.369272,-1.64753 0.397679,-0.68173 1.022602,-1.07941 0.653329,-0.39768 1.477091,-0.56811 0.823763,-0.17044 1.675931,-0.17044 2.102014,0 3.437077,0.9942 1.363469,0.96579 1.590714,3.15302 z"
               style="fill:#00ced1;fill-opacity:1;stroke:none;stroke-width:0.852166;stroke-miterlimit:4;stroke-dasharray:none;stroke-opacity:1"
               id="path903" />
          </g>
        </g>
      </g>
      <g
         id="g2368"
         transform="matrix(0.98408003,0,0,0.98408003,-36.502658,0.51295147)">
        <g
           id="g2360">
          <g
             id="g2343">
            <g
               id="g2298"
               transform="matrix(1.28,0,0,1.28,16.362549,-156.46555)"
               style="fill:#000080;fill-opacity:1;stroke:#000080;stroke-width:2.53281;stroke-miterlimit:4;stroke-dasharray:none;stroke-opacity:1">
              <path
                 d="m 173.50113,348.16466 c 0.53471,-1.73836 1.1137,-2.39427 2.04975,-3.68689 0.98063,-1.33719 2.16178,-2.38463 3.54354,-3.14236 1.3818,-0.802 2.91959,-1.20352 4.6133,-1.20352 1.91668,0 3.47672,0.31156 4.6802,0.93606 1.20347,0.62424 2.13944,1.4709 2.80808,2.54066 0.66941,1.06977 1.11434,2.31782 1.33723,3.74414 0.26742,1.42633 0.40156,2.9418 0.40156,4.54645 v 19.32967 l 1.33719,-4.7e-4 v -19.06178 c 0,-1.60461 0.24513,-3.12008 0.73566,-4.54645 0.49014,-1.47089 1.20348,-2.76351 2.13953,-3.87781 0.93602,-1.11433 2.07264,-1.98353 3.40978,-2.60756 1.33723,-0.66919 2.83042,-1.00291 4.47964,-1.00291 1.87207,0 3.40986,0.26742 4.61325,0.80218 1.24809,0.53475 2.22868,1.29261 2.94184,2.27324 0.75765,0.98058 1.27033,2.16182 1.53775,3.54353 0.31156,1.38176 0.4685,2.91956 0.4685,4.6133 v 19.86409 h 1.3371 v -19.86409 c 0,-1.87207 -0.1787,-3.56586 -0.53475,-5.08133 -0.35656,-1.56003 -0.95834,-2.87493 -1.80522,-3.94466 -0.84696,-1.11438 -1.96116,-1.98354 -3.34296,-2.60756 -1.38176,-0.62411 -3.12012,-0.93601 -5.21509,-0.93601 -2.67433,0 -4.9921,0.7357 -6.95335,2.20634 -1.96121,1.4709 -3.27611,3.40987 -3.94462,5.81678 h -0.13414 c -0.57975,-2.54071 -1.78306,-4.52416 -3.61048,-5.95053 -1.78297,-1.4709 -4.0116,-2.16182 -6.68597,-2.07268 -1.33719,0 -2.60748,0.24556 -3.81096,0.73566 -1.15895,0.44647 -2.22829,1.09205 -3.20883,1.93897 -0.98062,0.84696 -1.80548,1.80472 -2.39612,2.9418 -0.6187,1.50163 -0.79129,2.3855 -0.79141,3.75374 z"
                 id="path2296"
                 inkscape:connector-curvature="0"
                 sodipodi:nodetypes="cccssscsccscccscccsccscccsscccccscc"
                 style="font-style:normal;font-variant:normal;font-weight:100;font-stretch:normal;font-size:medium;line-height:100%;font-family:'Helvetica Neue';-inkscape-font-specification:'Helvetica Neue, Thin';font-variant-ligatures:normal;font-variant-caps:normal;font-variant-numeric:normal;font-feature-settings:normal;text-align:start;letter-spacing:0px;word-spacing:0px;writing-mode:lr-tb;text-anchor:start;fill:#000080;fill-opacity:1;stroke:#000080;stroke-width:2.53281;stroke-linecap:butt;stroke-linejoin:miter;stroke-miterlimit:4;stroke-dasharray:none;stroke-opacity:1" />
            </g>
            <g
               id="g1334"
               transform="matrix(1.28,0,0,1.28,19.237501,-159.91282)">
              <path
                 d="m 173.34454,349.02422 c 0.53471,-1.73836 1.27029,-3.25383 2.20634,-4.54645 0.98063,-1.33719 2.16178,-2.38463 3.54354,-3.14236 1.3818,-0.802 2.91959,-1.20352 4.6133,-1.20352 1.91668,0 3.47672,0.31156 4.6802,0.93606 1.20347,0.62424 2.13944,1.4709 2.80808,2.54066 0.66941,1.06977 1.11434,2.31782 1.33723,3.74414 0.26742,1.42633 0.40156,2.9418 0.40156,4.54645 v 22.0641 l 1.33719,-4.7e-4 v -21.79621 c 0,-1.60461 0.24513,-3.12008 0.73566,-4.54645 0.49014,-1.47089 1.20348,-2.76351 2.13953,-3.87781 0.93602,-1.11433 2.07264,-1.98353 3.40978,-2.60756 1.33723,-0.66919 2.83042,-1.00291 4.47964,-1.00291 1.87207,0 3.40986,0.26742 4.61325,0.80218 1.24809,0.53475 2.22868,1.29261 2.94184,2.27324 0.75765,0.98058 1.27033,2.16182 1.53775,3.54353 0.31156,1.38176 0.4685,2.91956 0.4685,4.6133 v 22.59852 h 1.3371 v -22.59852 c 0,-1.87207 -0.1787,-3.56586 -0.53475,-5.08133 -0.35656,-1.56003 -0.95834,-2.87493 -1.80522,-3.94466 -0.84696,-1.11438 -1.96116,-1.98354 -3.34296,-2.60756 -1.38176,-0.62411 -3.12012,-0.93601 -5.21509,-0.93601 -2.67433,0 -4.9921,0.7357 -6.95335,2.20634 -1.96121,1.4709 -3.27611,3.40987 -3.94462,5.81678 h -0.13414 c -0.57975,-2.54071 -1.78306,-4.52416 -3.61048,-5.95053 -1.78297,-1.4709 -4.0116,-2.16182 -6.68597,-2.07268 -1.33719,0 -2.60748,0.24556 -3.81096,0.73566 -1.15895,0.44647 -2.22829,1.09205 -3.20883,1.93897 -0.98062,0.84696 -1.92525,1.78405 -2.47428,2.9418 -0.67052,1.41394 -0.72675,3.05502 -0.8698,4.6133 z"
                 id="path1737"
                 inkscape:connector-curvature="0"
                 sodipodi:nodetypes="cccssscsccscccscccsccscccsscccccsac"
                 style="font-style:normal;font-variant:normal;font-weight:100;font-stretch:normal;font-size:medium;line-height:100%;font-family:'Helvetica Neue';-inkscape-font-specification:'Helvetica Neue, Thin';font-variant-ligatures:normal;font-variant-caps:normal;font-variant-numeric:normal;font-feature-settings:normal;text-align:start;letter-spacing:0px;word-spacing:0px;writing-mode:lr-tb;text-anchor:start;fill:#00ced1;fill-opacity:1;stroke:#00ced1;stroke-width:2.53652;stroke-linecap:butt;stroke-linejoin:miter;stroke-miterlimit:4;stroke-dasharray:none;stroke-opacity:1" />
            </g>
          </g>
        </g>
      </g>
      <path
         inkscape:connector-curvature="0"
         id="path1743"
         style="font-style:normal;font-variant:normal;font-weight:100;font-stretch:normal;font-size:medium;line-height:100%;font-family:'Helvetica Neue';-inkscape-font-specification:'Helvetica Neue, Thin';font-variant-ligatures:normal;font-variant-caps:normal;font-variant-numeric:normal;font-feature-settings:normal;text-align:start;letter-spacing:0px;word-spacing:0px;writing-mode:lr-tb;text-anchor:start;fill:#00ced1;fill-opacity:1;stroke:#00ced1;stroke-width:2.3791;stroke-linecap:butt;stroke-linejoin:miter;stroke-miterlimit:4;stroke-dasharray:none;stroke-opacity:1"
         d="m 187.78618,269.48196 v 45.12519 h 1.75873 v -45.12519 z" />
      <path
         d="m 124.87226,301.30432 c 0.67354,2.18968 1.60008,4.09861 2.77917,5.72682 1.23521,1.68434 2.72302,3.00372 4.46351,3.95819 1.74054,1.01021 3.67758,1.51598 5.81101,1.51598 2.4143,0 4.37935,-0.39246 5.89529,-1.17909 1.51593,-0.7863 2.69489,-1.85277 3.53713,-3.20028 0.84319,-1.34749 1.40363,-2.91957 1.68441,-4.71621 0.33684,-1.79662 0.5058,-3.70554 0.5058,-5.72679 V 269.8905 l 1.68435,5.9e-4 v 27.455 c 0,2.0212 0.30878,3.93011 0.92666,5.72679 0.6174,1.85279 1.51592,3.481 2.69501,4.88458 1.17901,1.40366 2.61072,2.49851 4.29503,3.28455 1.6844,0.84293 3.56525,1.2633 5.64264,1.2633 2.3581,0 4.29516,-0.33687 5.81097,-1.01045 1.57212,-0.67359 2.80728,-1.62821 3.70561,-2.86342 0.95434,-1.23518 1.60013,-2.72308 1.93698,-4.46352 0.39245,-1.74048 0.59013,-3.67754 0.59013,-5.81102 v -28.46559 h 1.68425 v 28.46559 c 0,2.3581 -0.22511,4.49163 -0.6736,6.40055 -0.44913,1.96507 -1.20715,3.62135 -2.27388,4.96879 -1.06685,1.4037 -2.47034,2.49851 -4.21088,3.28455 -1.7405,0.78614 -3.93018,1.17902 -6.56904,1.17902 -3.36864,0 -6.28815,-0.9267 -8.75861,-2.77917 -2.47038,-1.85277 -4.12666,-4.29514 -4.96872,-7.32693 h -0.16897 c -0.73027,3.20032 -2.24597,5.69873 -4.54783,7.49542 -2.24587,1.85278 -5.0531,2.72308 -8.42181,2.6108 -1.68436,0 -3.28443,-0.30933 -4.80036,-0.92667 -1.45984,-0.56238 -2.8068,-1.37557 -4.04191,-2.44236 -1.23523,-1.06685 -2.42511,-2.24723 -3.11666,-3.70555 -0.84461,-1.78104 -0.91543,-3.84818 -1.09562,-5.81103 z"
         id="path1745"
         inkscape:connector-curvature="0"
         sodipodi:nodetypes="cccssscsccscccscccsccscccsscccccsac"
         style="font-style:normal;font-variant:normal;font-weight:100;font-stretch:normal;font-size:medium;line-height:100%;font-family:'Helvetica Neue';-inkscape-font-specification:'Helvetica Neue, Thin';font-variant-ligatures:normal;font-variant-caps:normal;font-variant-numeric:normal;font-feature-settings:normal;text-align:start;letter-spacing:0px;word-spacing:0px;writing-mode:lr-tb;text-anchor:start;fill:#00ced1;fill-opacity:1;stroke:#00ced1;stroke-width:3.19506;stroke-linecap:butt;stroke-linejoin:miter;stroke-miterlimit:4;stroke-dasharray:none;stroke-opacity:1" />
      <g
         aria-label="C"
         transform="scale(0.90744828,1.1019912)"
         id="text1765"
         style="font-size:57.2162px;line-height:1.25;font-family:sans-serif;fill:#00ced1;fill-opacity:1;stroke:none;stroke-width:1.62188;stroke-miterlimit:4;stroke-dasharray:none;stroke-opacity:1">
        <path
           d="m 84.716036,282.79753 q -1.536567,0.6705 -2.793759,1.25719 -1.229255,0.58669 -3.240762,1.22925 -1.704193,0.53082 -3.7157,0.89401 -1.98357,0.39112 -4.386203,0.39112 -4.525891,0 -8.241592,-1.25719 -3.687763,-1.28513 -6.425648,-3.99507 -2.682009,-2.65408 -4.190639,-6.73297 -1.508631,-4.10682 -1.508631,-9.52672 0,-5.14052 1.452755,-9.19147 1.452756,-4.05095 4.19064,-6.84471 2.654072,-2.70995 6.39771,-4.13476 3.771576,-1.42482 8.353342,-1.42482 3.352512,0 6.677086,0.81019 3.352512,0.81019 7.431401,2.84963 v 6.56534 h -0.419063 q -3.436325,-2.87757 -6.816775,-4.19064 -3.380449,-1.31307 -7.235838,-1.31307 -3.156948,0 -5.69927,1.03369 -2.514384,1.00576 -4.497953,3.15695 -1.927694,2.09532 -3.017261,5.30815 -1.061628,3.18488 -1.061628,7.37552 0,4.38621 1.173379,7.54315 1.201316,3.15695 3.073136,5.14052 1.955631,2.06739 4.553828,3.07314 2.626134,0.97781 5.531645,0.97781 3.995076,0 7.487276,-1.36894 3.4922,-1.36894 6.537398,-4.10682 h 0.391126 z"
           style="fill:#00ced1;fill-opacity:1;stroke:none;stroke-width:1.62188;stroke-miterlimit:4;stroke-dasharray:none;stroke-opacity:1"
           id="path906" />
      </g>
      <g
         id="g2415"
         transform="matrix(0.98408003,0,0,0.98408003,-36.502658,0.51295147)">
        <path
           inkscape:connector-curvature="0"
           id="path1751"
           style="font-style:normal;font-variant:normal;font-weight:100;font-stretch:normal;font-size:medium;line-height:100%;font-family:'Helvetica Neue';-inkscape-font-specification:'Helvetica Neue, Thin';font-variant-ligatures:normal;font-variant-caps:normal;font-variant-numeric:normal;font-feature-settings:normal;text-align:start;letter-spacing:0px;word-spacing:0px;writing-mode:lr-tb;text-anchor:start;fill:#000080;fill-opacity:1;stroke:#000080;stroke-width:3.242;stroke-linecap:butt;stroke-linejoin:miter;stroke-miterlimit:4;stroke-dasharray:none;stroke-opacity:1"
           d="m 125.75183,283.46308 v 36.88634 0 -24.87097 c 0,-2.45012 0.3412,-4.78619 1.02546,-7.00838 0.68356,-2.22214 1.68088,-4.15942 2.99138,-5.81178 1.36749,-1.7093 3.04837,-3.04832 5.04259,-4.01689 1.99421,-1.02519 4.30182,-1.53849 6.92286,-1.53849 1.88023,0 3.64663,0.28525 5.29893,0.85581 1.70935,0.5129 3.19083,1.36737 4.44433,2.56394 1.31051,1.13973 2.33613,2.62105 3.07679,4.44433 0.74099,1.76635 1.11087,3.9315 1.11087,6.49555 v 27.28845 h 1.70942 v -27.54501 c 0,-2.56399 -0.39826,-4.81461 -1.19651,-6.75189 -0.74137,-1.99426 -1.82334,-3.64661 -3.24783,-4.95712 -1.36744,-1.36748 -3.01985,-2.39306 -4.95712,-3.07683 -1.88028,-0.68356 -3.95996,-1.02553 -6.23904,-1.02553 -2.16525,0 -4.13094,0.31377 -5.89729,0.94061 -1.76634,0.57071 -3.33324,1.39596 -4.70067,2.47853 -1.31055,1.08274 -2.42159,2.33613 -3.33324,3.76061 -0.85558,1.42444 -1.48148,2.99138 -1.88028,4.70068 h -0.17115 z"
           sodipodi:nodetypes="cccssccscccsccscccscccccc" />
        <path
           inkscape:connector-curvature="0"
           id="path1759"
           style="font-style:normal;font-variant:normal;font-weight:100;font-stretch:normal;font-size:medium;line-height:100%;font-family:'Helvetica Neue';-inkscape-font-specification:'Helvetica Neue, Thin';font-variant-ligatures:normal;font-variant-caps:normal;font-variant-numeric:normal;font-feature-settings:normal;text-align:start;letter-spacing:0px;word-spacing:0px;writing-mode:lr-tb;text-anchor:start;fill:#00ced1;fill-opacity:1;stroke:#00ced1;stroke-width:2.47543;stroke-linecap:butt;stroke-linejoin:miter;stroke-miterlimit:4;stroke-dasharray:none;stroke-opacity:1"
           d="m 121.65377,263.47519 v 55.67131 h 1.54336 v -55.67131 z" />
        <path
           inkscape:connector-curvature="0"
           id="path2289"
           style="font-style:normal;font-variant:normal;font-weight:100;font-stretch:normal;font-size:medium;line-height:100%;font-family:'Helvetica Neue';-inkscape-font-specification:'Helvetica Neue, Thin';font-variant-ligatures:normal;font-variant-caps:normal;font-variant-numeric:normal;font-feature-settings:normal;text-align:start;letter-spacing:0px;word-spacing:0px;writing-mode:lr-tb;text-anchor:start;fill:#00006d;fill-opacity:0.027451;stroke:#00ced1;stroke-width:3.24247;stroke-linecap:butt;stroke-linejoin:miter;stroke-miterlimit:4;stroke-dasharray:none;stroke-opacity:1"
           d="m 122.04764,281.87557 v 36.88634 0 -24.87097 c 0,-2.45012 0.3412,-4.78619 1.02546,-7.00838 0.68356,-2.22214 1.68088,-4.15942 2.99138,-5.81178 1.36749,-1.7093 3.04837,-3.04832 5.04259,-4.01689 1.99421,-1.02519 4.30182,-1.53849 6.92286,-1.53849 1.88023,0 3.64663,0.28525 5.29893,0.85581 1.70935,0.5129 3.19083,1.36737 4.44433,2.56394 1.31051,1.13973 2.33613,2.62105 3.07679,4.44433 0.74099,1.76635 1.11087,3.9315 1.11087,6.49555 v 28.88798 h 1.70942 v -29.14454 c 0,-2.56399 -0.39826,-4.81461 -1.19651,-6.75189 -0.74137,-1.99426 -1.82334,-3.64661 -3.24783,-4.95712 -1.36744,-1.36748 -3.01985,-2.39306 -4.95712,-3.07683 -1.88028,-0.68356 -3.95996,-1.02553 -6.23904,-1.02553 -2.16525,0 -4.13094,0.31377 -5.89729,0.94061 -1.76634,0.57071 -3.33324,1.39596 -4.70067,2.47853 -1.31055,1.08274 -2.42159,2.33613 -3.33324,3.76061 -0.85558,1.42444 -1.48148,2.99138 -1.88028,4.70068 h -0.17115 z"
           sodipodi:nodetypes="cccssccscccsccscccsccccccc" />
      </g>
    </g>
  </g>
</svg>
