<?xml version="1.0" encoding="UTF-8" standalone="no"?>
<svg
   xmlns:dc="http://purl.org/dc/elements/1.1/"
   xmlns:cc="http://creativecommons.org/ns#"
   xmlns:rdf="http://www.w3.org/1999/02/22-rdf-syntax-ns#"
   xmlns:svg="http://www.w3.org/2000/svg"
   xmlns="http://www.w3.org/2000/svg"
   xmlns:sodipodi="http://sodipodi.sourceforge.net/DTD/sodipodi-0.dtd"
   xmlns:inkscape="http://www.inkscape.org/namespaces/inkscape"
   width="690"
   height="130"
   viewBox="0 0 182.5625 34.395834"
   version="1.1"
   id="svg8"
   inkscape:version="1.0.1 (c497b03c, 2020-09-10)"
   sodipodi:docname="walhai700-200px .svg"
   inkscape:export-filename="/Users/neuneu/TPLAN.png"
   inkscape:export-xdpi="96"
   inkscape:export-ydpi="96">
  <defs
     id="defs2">
    <inkscape:path-effect
       is_visible="true"
       id="path-effect1567"
       effect="spiro"
       lpeversion="0" />
    <inkscape:path-effect
       effect="spiro"
       id="path-effect1547"
       is_visible="true"
       lpeversion="0" />
    <inkscape:path-effect
       is_visible="true"
       id="path-effect1514"
       effect="spiro"
       lpeversion="0" />
    <inkscape:path-effect
       is_visible="true"
       id="path-effect1504"
       effect="spiro"
       lpeversion="0" />
    <inkscape:path-effect
       is_visible="true"
       id="path-effect1500"
       effect="spiro"
       lpeversion="0" />
    <inkscape:path-effect
       is_visible="true"
       id="path-effect1490"
       effect="spiro"
       lpeversion="0" />
    <inkscape:path-effect
       is_visible="true"
       id="path-effect2859"
       effect="spiro"
       lpeversion="0" />
    <inkscape:path-effect
       is_visible="true"
       id="path-effect511"
       effect="spiro"
       lpeversion="0" />
    <inkscape:path-effect
       effect="spiro"
       id="path-effect3077"
       is_visible="true"
       lpeversion="0" />
    <inkscape:path-effect
       is_visible="true"
       id="path-effect3788"
       effect="spiro"
       lpeversion="0" />
    <inkscape:path-effect
       is_visible="true"
       id="path-effect2504"
       effect="spiro"
       lpeversion="0" />
    <inkscape:path-effect
       is_visible="true"
       id="path-effect2215"
       effect="spiro"
       lpeversion="0" />
    <inkscape:path-effect
       is_visible="true"
       id="path-effect2212"
       effect="spiro"
       lpeversion="0" />
    <inkscape:path-effect
       effect="spiro"
       id="path-effect2209"
       is_visible="true"
       lpeversion="0" />
    <inkscape:path-effect
       effect="spiro"
       id="path-effect1170"
       is_visible="true"
       lpeversion="0" />
    <inkscape:path-effect
       is_visible="true"
       id="path-effect1163"
       effect="spiro"
       lpeversion="0" />
    <inkscape:path-effect
       is_visible="true"
       id="path-effect1160"
       effect="spiro"
       lpeversion="0" />
    <inkscape:path-effect
       effect="spiro"
       id="path-effect1157"
       is_visible="true"
       lpeversion="0" />
    <inkscape:path-effect
       is_visible="true"
       id="path-effect1122"
       effect="spiro"
       lpeversion="0" />
    <inkscape:path-effect
       effect="spiro"
       id="path-effect1118"
       is_visible="true"
       lpeversion="0" />
    <inkscape:path-effect
       effect="spiro"
       id="path-effect1114"
       is_visible="true"
       lpeversion="0" />
    <inkscape:path-effect
       effect="spiro"
       id="path-effect817"
       is_visible="true"
       lpeversion="0" />
    <inkscape:path-effect
       is_visible="true"
       id="path-effect1243"
       effect="spiro"
       lpeversion="0" />
    <inkscape:path-effect
       effect="spiro"
       id="path-effect1131"
       is_visible="true"
       lpeversion="0" />
    <inkscape:path-effect
       effect="spiro"
       id="path-effect1032"
       is_visible="true"
       lpeversion="0" />
    <inkscape:path-effect
       is_visible="true"
       id="path-effect1028"
       effect="spiro"
       lpeversion="0" />
    <inkscape:path-effect
       is_visible="true"
       id="path-effect1005"
       effect="spiro"
       lpeversion="0" />
    <inkscape:path-effect
       effect="spiro"
       id="path-effect1147"
       is_visible="true"
       lpeversion="0" />
    <inkscape:path-effect
       is_visible="true"
       id="path-effect1024"
       effect="spiro"
       lpeversion="0" />
    <inkscape:path-effect
       effect="spiro"
       id="path-effect1019"
       is_visible="true"
       lpeversion="0" />
    <inkscape:path-effect
       effect="spiro"
       id="path-effect1015"
       is_visible="true"
       lpeversion="0" />
    <inkscape:path-effect
       is_visible="true"
       id="path-effect1021"
       effect="spiro"
       lpeversion="0" />
    <inkscape:path-effect
       is_visible="true"
       id="path-effect902"
       effect="spiro"
       lpeversion="0" />
  </defs>
  <sodipodi:namedview
     id="base"
     pagecolor="#ffffff"
     bordercolor="#666666"
     borderopacity="1.0"
     inkscape:pageopacity="0.0"
     inkscape:pageshadow="2"
     inkscape:zoom="1.0182703"
     inkscape:cx="344.71013"
     inkscape:cy="156.36807"
     inkscape:document-units="mm"
     inkscape:current-layer="layer1"
     showgrid="false"
     units="px"
     inkscape:window-width="1440"
     inkscape:window-height="847"
     inkscape:window-x="0"
     inkscape:window-y="25"
     inkscape:window-maximized="1"
     showguides="false"
     inkscape:guide-bbox="true"
     inkscape:document-rotation="0" />
  <metadata
     id="metadata5">
    <rdf:RDF>
      <cc:Work
         rdf:about="">
        <dc:format>image/svg+xml</dc:format>
        <dc:type
           rdf:resource="http://purl.org/dc/dcmitype/StillImage" />
        <dc:title></dc:title>
      </cc:Work>
    </rdf:RDF>
  </metadata>
  <g
     inkscape:label="Ebene 1"
     inkscape:groupmode="layer"
     id="layer1"
     transform="translate(0,-2e-5)">
    <g
       id="g978"
       transform="matrix(1.0068866,0,0,1.0068866,0.56940743,-1.4403571)">
      <path
         sodipodi:nodetypes="ccccc"
         inkscape:connector-curvature="0"
         id="path1512"
         d="m 180.09142,15.176995 c -3.90694,4.032458 -8.5921,7.308167 -13.72082,9.59315 -11.96686,5.33156 -25.76868,5.069303 -38.5775,2.318775 C 114.98428,24.338391 102.81728,19.253829 90.383482,15.126836 79.362319,11.46872 68.028051,8.5422922 56.452611,7.6165436 44.87717,6.690795 33.013692,7.822978 22.199446,12.053807 13.889949,15.30471 6.2935076,20.364477 0.091418,26.779319"
         style="fill:#00ccff;fill-opacity:1;fill-rule:evenodd;stroke:none;stroke-width:0.772353;stroke-linecap:square;stroke-linejoin:miter;stroke-miterlimit:4;stroke-dasharray:none;stroke-opacity:1"
         inkscape:original-d="m 180.09142,15.176995 c -137.054236,3.478217 -10.81316,6.81071 -13.72082,9.59315 -2.90768,2.782423 -57.54513,-5.931658 -75.987118,-9.643309 C -41.926576,-14.074493 63.925473,22.661141 22.199446,12.053807 13.475848,9.733757 2.693093,21.67754 0.091418,26.779319"
         inkscape:path-effect="#path-effect1514" />
      <path
         id="ellipse1506"
         style="fill:#f2f2f2;fill-opacity:1;fill-rule:evenodd;stroke:none;stroke-width:1.63868;stroke-linecap:square;stroke-linejoin:round;stroke-miterlimit:4;stroke-dasharray:none;stroke-dashoffset:0;stroke-opacity:1"
         d="M 94.629754,30.31938 A 11.814631,15.819335 88.048084 0 0 110.06153,17.989513 11.814631,15.819335 88.048084 0 0 93.871837,6.7022545 11.814631,15.819335 88.048084 0 0 78.440058,19.032116 11.814631,15.819335 88.048084 0 0 94.629754,30.31938 Z" />
      <path
         id="path884"
         style="fill:#0000ff;fill-opacity:1;fill-rule:evenodd;stroke:none;stroke-width:2.63207;stroke-linecap:square;stroke-linejoin:round;stroke-miterlimit:4;stroke-dasharray:none;stroke-dashoffset:0;stroke-opacity:1"
         d="M 99.755827,1.8985774 A 16.625332,29.003365 88.935269 0 1 129.49645,17.718908 16.625332,29.003365 88.935269 0 1 101.25648,35.123057 16.625332,29.003365 88.935269 0 1 71.515863,19.302736 16.625332,29.003365 88.935269 0 1 99.755827,1.8985774 Z" />
      <path
         id="path886"
         style="fill:#ffffff;fill-opacity:1;fill-rule:evenodd;stroke:none;stroke-width:1.26595;stroke-linecap:square;stroke-linejoin:round;stroke-miterlimit:4;stroke-dasharray:none;stroke-dashoffset:0;stroke-opacity:1"
         d="m 100.51052,27.077332 a 5.6829497,19.627982 89.635024 0 0 19.15168,-5.929372 5.6829497,19.627982 89.635024 0 0 -20.092293,-5.427987 5.6829497,19.627982 89.635024 0 0 -19.151687,5.92937 5.6829497,19.627982 89.635024 0 0 20.0923,5.427989 z" />
      <path
         id="path888"
         style="fill:#ffffff;fill-opacity:1;fill-rule:evenodd;stroke:none;stroke-width:0.510433;stroke-linecap:square;stroke-linejoin:round;stroke-miterlimit:4;stroke-dasharray:none;stroke-dashoffset:0;stroke-opacity:1"
         d="m 123.08659,14.846609 a 2.561496,7.0794741 81.369774 0 0 6.39467,-3.636551 2.561496,7.0794741 81.369774 0 0 -7.57527,-1.3636784 2.561496,7.0794741 81.369774 0 0 -6.39466,3.6365524 2.561496,7.0794741 81.369774 0 0 7.57526,1.363677 z" />
      <path
         id="path890"
         style="fill:#ffffff;fill-opacity:1;fill-rule:evenodd;stroke:none;stroke-width:0.511142;stroke-linecap:square;stroke-linejoin:round;stroke-miterlimit:4;stroke-dasharray:none;stroke-dashoffset:0;stroke-opacity:1"
         d="m 79.874728,14.392896 a 7.0958189,2.5626964 9.5791563 0 0 7.356825,-1.383403 7.0958189,2.5626964 9.5791563 0 0 -6.644805,-3.6940398 7.0958189,2.5626964 9.5791563 0 0 -7.356835,1.3834028 7.0958189,2.5626964 9.5791563 0 0 6.644815,3.69404 z" />
      <path
         id="path892"
         style="fill:#ffffff;fill-opacity:1;fill-rule:evenodd;stroke:none;stroke-width:0.159494;stroke-linecap:square;stroke-linejoin:round;stroke-miterlimit:4;stroke-dasharray:none;stroke-dashoffset:0;stroke-opacity:1"
         d="M 93.871837,7.2035704 A 0.94710957,1.869428 89.212778 0 0 95.695814,6.2153419 0.94710957,1.869428 89.212778 0 0 93.78226,5.3106772 0.94710957,1.869428 89.212778 0 0 91.958284,6.2989055 0.94710957,1.869428 89.212778 0 0 93.871837,7.2035704 Z" />
      <path
         id="path894"
         style="fill:#ffffff;fill-opacity:1;fill-rule:evenodd;stroke:none;stroke-width:0.159494;stroke-linecap:square;stroke-linejoin:round;stroke-miterlimit:4;stroke-dasharray:none;stroke-dashoffset:0;stroke-opacity:1"
         d="m 109.69856,7.2035704 a 0.94710957,1.869428 89.212778 0 0 1.82399,-0.9882285 0.94710957,1.869428 89.212778 0 0 -1.91356,-0.9046647 0.94710957,1.869428 89.212778 0 0 -1.82398,0.9882283 0.94710957,1.869428 89.212778 0 0 1.91355,0.9046649 z" />
      <path
         id="path898"
         style="fill:#ffffff;fill-opacity:1;fill-rule:evenodd;stroke:none;stroke-width:0.203316;stroke-linecap:square;stroke-linejoin:round;stroke-miterlimit:4;stroke-dasharray:none;stroke-dashoffset:0;stroke-opacity:1"
         d="m 107.55005,4.5929173 a 1.2312326,2.3367946 89.157554 0 0 2.27997,-1.2846969 1.2312326,2.3367946 89.157554 0 0 -2.39194,-1.1760641 1.2312326,2.3367946 89.157554 0 0 -2.27996,1.2846967 1.2312326,2.3367946 89.157554 0 0 2.39193,1.1760643 z" />
      <path
         id="path900"
         style="fill:#ffffff;fill-opacity:1;fill-rule:evenodd;stroke:none;stroke-width:0.203316;stroke-linecap:square;stroke-linejoin:round;stroke-miterlimit:4;stroke-dasharray:none;stroke-dashoffset:0;stroke-opacity:1"
         d="M 86.628976,8.0481587 A 1.2312326,2.3367946 89.157554 0 0 88.908945,6.7634618 1.2312326,2.3367946 89.157554 0 0 86.517006,5.5873977 1.2312326,2.3367946 89.157554 0 0 84.237044,6.8720944 1.2312326,2.3367946 89.157554 0 0 86.628976,8.0481587 Z" />
      <path
         id="path902"
         style="fill:#ffffff;fill-opacity:1;fill-rule:evenodd;stroke:none;stroke-width:0.159494;stroke-linecap:square;stroke-linejoin:round;stroke-miterlimit:4;stroke-dasharray:none;stroke-dashoffset:0;stroke-opacity:1"
         d="m 100.91464,9.6741699 a 0.94710957,1.869428 89.212778 0 0 1.82398,-0.9882284 0.94710957,1.869428 89.212778 0 0 -1.91356,-0.9046648 0.94710957,1.869428 89.212778 0 0 -1.823971,0.9882284 0.94710957,1.869428 89.212778 0 0 1.913551,0.9046648 z" />
      <path
         id="path904"
         style="fill:#ffffff;fill-opacity:1;fill-rule:evenodd;stroke:none;stroke-width:0.159494;stroke-linecap:square;stroke-linejoin:round;stroke-miterlimit:4;stroke-dasharray:none;stroke-dashoffset:0;stroke-opacity:1"
         d="m 115.29312,7.9330569 a 0.94710957,1.869428 89.212778 0 0 1.82398,-0.9882284 0.94710957,1.869428 89.212778 0 0 -1.91356,-0.9046647 0.94710957,1.869428 89.212778 0 0 -1.82397,0.9882283 0.94710957,1.869428 89.212778 0 0 1.91355,0.9046648 z" />
      <path
         id="path906"
         style="fill:#ffffff;fill-opacity:1;fill-rule:evenodd;stroke:none;stroke-width:0.203316;stroke-linecap:square;stroke-linejoin:round;stroke-miterlimit:4;stroke-dasharray:none;stroke-dashoffset:0;stroke-opacity:1"
         d="M 95.852644,4.4051564 A 1.2312326,2.3367946 89.157554 0 0 98.132606,3.1204595 1.2312326,2.3367946 89.157554 0 0 95.740674,1.9443953 1.2312326,2.3367946 89.157554 0 0 93.460712,3.2290921 1.2312326,2.3367946 89.157554 0 0 95.852644,4.4051564 Z" />
      <path
         id="path910"
         style="fill:#0000ff;fill-opacity:1;fill-rule:evenodd;stroke:none;stroke-width:0.247373;stroke-linecap:square;stroke-linejoin:round;stroke-miterlimit:4;stroke-dasharray:none;stroke-dashoffset:0;stroke-opacity:1"
         d="M 81.769921,14.184948 A 1.9966476,2.1331407 8.8668552 0 0 83.721425,11.96308 1.9966476,2.1331407 8.8668552 0 0 81.674079,9.9290924 1.9966476,2.1331407 8.8668552 0 0 79.722574,12.15096 1.9966476,2.1331407 8.8668552 0 0 81.769921,14.184948 Z" />
      <path
         id="path912"
         style="fill:#00ccff;fill-opacity:1;fill-rule:evenodd;stroke:none;stroke-width:1.02032;stroke-linecap:square;stroke-linejoin:round;stroke-miterlimit:4;stroke-dasharray:none;stroke-dashoffset:0;stroke-opacity:1"
         d="m 100.91349,24.737925 a 4.2622333,17.000222 89.69103 0 0 16.58778,-4.447029 4.2622333,17.000222 89.69103 0 0 -17.40247,-4.070991 4.2622333,17.000222 89.69103 0 0 -16.587761,4.447028 4.2622333,17.000222 89.69103 0 0 17.402451,4.070992 z" />
      <path
         id="path914"
         style="fill:#0000ff;fill-opacity:1;fill-rule:evenodd;stroke:none;stroke-width:0.247465;stroke-linecap:square;stroke-linejoin:round;stroke-miterlimit:4;stroke-dasharray:none;stroke-dashoffset:0;stroke-opacity:1"
         d="m 121.63826,14.559996 a 1.996684,2.134686 8.7699874 0 0 1.95149,-2.223515 1.996684,2.134686 8.7699874 0 0 -2.04734,-2.035497 1.996684,2.134686 8.7699874 0 0 -1.95151,2.223515 1.996684,2.134686 8.7699874 0 0 2.04736,2.035497 z" />
      <path
         id="path889"
         style="fill:#ffffff;fill-opacity:1;fill-rule:evenodd;stroke:none;stroke-width:0.159494;stroke-linecap:square;stroke-linejoin:round;stroke-miterlimit:4;stroke-dasharray:none;stroke-dashoffset:0;stroke-opacity:1"
         d="m 101.90382,6.1649592 a 0.94710957,1.869428 89.212778 0 0 1.82397,-0.9882284 0.94710957,1.869428 89.212778 0 0 -1.91355,-0.9046648 0.94710957,1.869428 89.212778 0 0 -1.823975,0.9882284 0.94710957,1.869428 89.212778 0 0 1.913555,0.9046648 z" />
    </g>
    <text
       xml:space="preserve"
       style="font-style:normal;font-variant:normal;font-weight:normal;font-stretch:normal;font-size:7.27604px;line-height:100%;font-family:sans-serif;-inkscape-font-specification:'sans-serif, Normal';text-align:start;letter-spacing:0px;word-spacing:0px;writing-mode:lr-tb;text-anchor:start;fill:#000000;fill-opacity:1;stroke:none;stroke-width:0.264583px;stroke-linecap:butt;stroke-linejoin:miter;stroke-opacity:1"
       x="19.831398"
       y="48.172077"
       id="text2535" />
  </g>
</svg>
