<?xml version="1.0" encoding="UTF-8" standalone="no"?>
<svg
   xmlns:dc="http://purl.org/dc/elements/1.1/"
   xmlns:cc="http://creativecommons.org/ns#"
   xmlns:rdf="http://www.w3.org/1999/02/22-rdf-syntax-ns#"
   xmlns:svg="http://www.w3.org/2000/svg"
   xmlns="http://www.w3.org/2000/svg"
   xmlns:xlink="http://www.w3.org/1999/xlink"
   xmlns:sodipodi="http://sodipodi.sourceforge.net/DTD/sodipodi-0.dtd"
   xmlns:inkscape="http://www.inkscape.org/namespaces/inkscape"
   width="170"
   height="90"
   viewBox="0 0 44.979164 23.812501"
   version="1.1"
   id="svg8"
   inkscape:version="1.0.1 (c497b03c, 2020-09-10)"
   sodipodi:docname="walhai.svg"
   inkscape:export-filename="/Users/neuneu/SCHWIMM_MIT_back.PNG"
   inkscape:export-xdpi="1000"
   inkscape:export-ydpi="1000">
  <defs
     id="defs2">
    <linearGradient
       inkscape:collect="always"
       id="linearGradient3551">
      <stop
         style="stop-color:#008080;stop-opacity:1;"
         offset="0"
         id="stop3547" />
      <stop
         style="stop-color:#008080;stop-opacity:0;"
         offset="1"
         id="stop3549" />
    </linearGradient>
    <inkscape:path-effect
       is_visible="true"
       id="path-effect1013"
       effect="spiro"
       lpeversion="0" />
    <inkscape:path-effect
       is_visible="true"
       id="path-effect2924"
       effect="spiro"
       lpeversion="0" />
    <inkscape:path-effect
       is_visible="true"
       id="path-effect2245"
       effect="spiro"
       lpeversion="0" />
    <inkscape:path-effect
       is_visible="true"
       id="path-effect1567"
       effect="spiro"
       lpeversion="0" />
    <inkscape:path-effect
       effect="spiro"
       id="path-effect1547"
       is_visible="true"
       lpeversion="0" />
    <inkscape:path-effect
       is_visible="true"
       id="path-effect1514"
       effect="spiro"
       lpeversion="0" />
    <inkscape:path-effect
       is_visible="true"
       id="path-effect1504"
       effect="spiro"
       lpeversion="0" />
    <inkscape:path-effect
       is_visible="true"
       id="path-effect1500"
       effect="spiro"
       lpeversion="0" />
    <inkscape:path-effect
       is_visible="true"
       id="path-effect1490"
       effect="spiro"
       lpeversion="0" />
    <inkscape:path-effect
       is_visible="true"
       id="path-effect2859"
       effect="spiro"
       lpeversion="0" />
    <inkscape:path-effect
       is_visible="true"
       id="path-effect511"
       effect="spiro"
       lpeversion="0" />
    <inkscape:path-effect
       effect="spiro"
       id="path-effect3077"
       is_visible="true"
       lpeversion="0" />
    <inkscape:path-effect
       is_visible="true"
       id="path-effect3788"
       effect="spiro"
       lpeversion="0" />
    <inkscape:path-effect
       is_visible="true"
       id="path-effect2504"
       effect="spiro"
       lpeversion="0" />
    <inkscape:path-effect
       is_visible="true"
       id="path-effect2215"
       effect="spiro"
       lpeversion="0" />
    <inkscape:path-effect
       is_visible="true"
       id="path-effect2212"
       effect="spiro"
       lpeversion="0" />
    <inkscape:path-effect
       effect="spiro"
       id="path-effect2209"
       is_visible="true"
       lpeversion="0" />
    <inkscape:path-effect
       effect="spiro"
       id="path-effect1170"
       is_visible="true"
       lpeversion="0" />
    <inkscape:path-effect
       is_visible="true"
       id="path-effect1163"
       effect="spiro"
       lpeversion="0" />
    <inkscape:path-effect
       is_visible="true"
       id="path-effect1160"
       effect="spiro"
       lpeversion="0" />
    <inkscape:path-effect
       effect="spiro"
       id="path-effect1157"
       is_visible="true"
       lpeversion="0" />
    <inkscape:path-effect
       is_visible="true"
       id="path-effect1122"
       effect="spiro"
       lpeversion="0" />
    <inkscape:path-effect
       effect="spiro"
       id="path-effect1118"
       is_visible="true"
       lpeversion="0" />
    <inkscape:path-effect
       effect="spiro"
       id="path-effect1114"
       is_visible="true"
       lpeversion="0" />
    <inkscape:path-effect
       effect="spiro"
       id="path-effect817"
       is_visible="true"
       lpeversion="0" />
    <inkscape:path-effect
       is_visible="true"
       id="path-effect1243"
       effect="spiro"
       lpeversion="0" />
    <inkscape:path-effect
       effect="spiro"
       id="path-effect1131"
       is_visible="true"
       lpeversion="0" />
    <inkscape:path-effect
       effect="spiro"
       id="path-effect1032"
       is_visible="true"
       lpeversion="0" />
    <inkscape:path-effect
       is_visible="true"
       id="path-effect1028"
       effect="spiro"
       lpeversion="0" />
    <inkscape:path-effect
       is_visible="true"
       id="path-effect1005"
       effect="spiro"
       lpeversion="0" />
    <inkscape:path-effect
       effect="spiro"
       id="path-effect1147"
       is_visible="true"
       lpeversion="0" />
    <inkscape:path-effect
       is_visible="true"
       id="path-effect1024"
       effect="spiro"
       lpeversion="0" />
    <inkscape:path-effect
       effect="spiro"
       id="path-effect1019"
       is_visible="true"
       lpeversion="0" />
    <inkscape:path-effect
       effect="spiro"
       id="path-effect1015"
       is_visible="true"
       lpeversion="0" />
    <inkscape:path-effect
       is_visible="true"
       id="path-effect1021"
       effect="spiro"
       lpeversion="0" />
    <inkscape:path-effect
       is_visible="true"
       id="path-effect902"
       effect="spiro"
       lpeversion="0" />
    <inkscape:path-effect
       is_visible="true"
       id="path-effect883"
       effect="spiro"
       lpeversion="0" />
    <rect
       x="12.295913"
       y="216.34821"
       width="123.96288"
       height="30.11244"
       id="rect875" />
    <linearGradient
       inkscape:collect="always"
       xlink:href="#linearGradient3551"
       id="linearGradient3553"
       x1="7.9764781"
       y1="30.438915"
       x2="44.023521"
       y2="30.438915"
       gradientUnits="userSpaceOnUse" />
  </defs>
  <sodipodi:namedview
     id="base"
     pagecolor="#ffffff"
     bordercolor="#666666"
     borderopacity="1.0"
     inkscape:pageopacity="0.0"
     inkscape:pageshadow="2"
     inkscape:zoom="1.9558805"
     inkscape:cx="22.306832"
     inkscape:cy="103.84012"
     inkscape:document-units="mm"
     inkscape:current-layer="layer1"
     showgrid="false"
     units="px"
     inkscape:window-width="1440"
     inkscape:window-height="847"
     inkscape:window-x="0"
     inkscape:window-y="25"
     inkscape:window-maximized="0"
     showguides="true"
     inkscape:guide-bbox="true"
     inkscape:document-rotation="0">
    <sodipodi:guide
       position="50.226573,105.18708"
       orientation="1,0"
       id="guide3565" />
    <sodipodi:guide
       position="3.9098529,92.555245"
       orientation="1,0"
       id="guide3567" />
  </sodipodi:namedview>
  <metadata
     id="metadata5">
    <rdf:RDF>
      <cc:Work
         rdf:about="">
        <dc:format>image/svg+xml</dc:format>
        <dc:type
           rdf:resource="http://purl.org/dc/dcmitype/StillImage" />
        <dc:title />
      </cc:Work>
    </rdf:RDF>
  </metadata>
  <g
     inkscape:label="Ebene 1"
     inkscape:groupmode="layer"
     id="layer1"
     transform="translate(0,-2e-5)">
    <text
       xml:space="preserve"
       style="font-style:normal;font-variant:normal;font-weight:normal;font-stretch:normal;font-size:7.4519px;line-height:100%;font-family:sans-serif;-inkscape-font-specification:'sans-serif, Normal';text-align:start;letter-spacing:0px;word-spacing:0px;writing-mode:lr-tb;text-anchor:start;fill:#000000;fill-opacity:1;stroke:none;stroke-width:0.270978px;stroke-linecap:butt;stroke-linejoin:miter;stroke-opacity:1"
       x="-123.88679"
       y="87.026634"
       id="text2535-3"
       transform="rotate(-61.855443)" />
    <text
       xml:space="preserve"
       style="font-style:normal;font-variant:normal;font-weight:normal;font-stretch:normal;font-size:7.4519px;line-height:100%;font-family:sans-serif;-inkscape-font-specification:'sans-serif, Normal';text-align:start;letter-spacing:0px;word-spacing:0px;writing-mode:lr-tb;text-anchor:start;fill:#000000;fill-opacity:1;stroke:none;stroke-width:0.270978px;stroke-linecap:butt;stroke-linejoin:miter;stroke-opacity:1"
       x="-120.982"
       y="152.91187"
       id="text2535-2"
       transform="rotate(-61.855443)" />
    <text
       xml:space="preserve"
       style="font-style:normal;font-variant:normal;font-weight:normal;font-stretch:normal;font-size:7.27604px;line-height:100%;font-family:sans-serif;-inkscape-font-specification:'sans-serif, Normal';text-align:start;letter-spacing:0px;word-spacing:0px;writing-mode:lr-tb;text-anchor:start;fill:#000000;fill-opacity:1;stroke:none;stroke-width:0.264583px;stroke-linecap:butt;stroke-linejoin:miter;stroke-opacity:1"
       x="19.831398"
       y="48.172077"
       id="text2535" />
    <text
       xml:space="preserve"
       style="font-style:normal;font-variant:normal;font-weight:normal;font-stretch:normal;font-size:8.76811px;line-height:100%;font-family:sans-serif;-inkscape-font-specification:'sans-serif, Normal';text-align:start;letter-spacing:0px;word-spacing:0px;writing-mode:lr-tb;text-anchor:start;fill:#000000;fill-opacity:1;stroke:none;stroke-width:0.31884px;stroke-linecap:butt;stroke-linejoin:miter;stroke-opacity:1"
       x="-80.586479"
       y="136.61815"
       id="text2535-9" />
    <g
       id="g1215"
       transform="matrix(0.95797414,0,0,0.95797414,-2.9660439,-1.7567622)">
      <path
         id="ellipse1506-99"
         style="fill:#f2f2f2;fill-opacity:1;fill-rule:evenodd;stroke:none;stroke-width:1.09245;stroke-linecap:square;stroke-linejoin:round;stroke-miterlimit:4;stroke-dasharray:none;stroke-dashoffset:0;stroke-opacity:1"
         d="M 22.65475,22.134798 A 7.8764206,10.546223 88.048084 0 0 32.942601,13.914887 7.8764206,10.546223 88.048084 0 0 22.149472,6.390048 7.8764206,10.546223 88.048084 0 0 11.861619,14.609956 7.8764206,10.546223 88.048084 0 0 22.65475,22.134798 Z" />
      <path
         id="path884"
         style="fill:#2a7fff;fill-opacity:1;fill-rule:evenodd;stroke:none;stroke-width:1.75471;stroke-linecap:square;stroke-linejoin:round;stroke-miterlimit:4;stroke-dasharray:none;stroke-dashoffset:0;stroke-opacity:1"
         d="M 26.072132,3.1875967 A 11.083555,19.335576 88.935269 0 1 45.899214,13.734484 11.083555,19.335576 88.935269 0 1 27.072567,25.337249 11.083555,19.335576 88.935269 0 1 7.2454895,14.790369 11.083555,19.335576 88.935269 0 1 26.072132,3.1875967 Z" />
      <path
         id="path886"
         style="fill:#ffffff;fill-opacity:1;fill-rule:evenodd;stroke:none;stroke-width:0.843967;stroke-linecap:square;stroke-linejoin:round;stroke-miterlimit:4;stroke-dasharray:none;stroke-dashoffset:0;stroke-opacity:1"
         d="M 26.575261,19.973433 A 3.7886331,13.085321 89.635024 0 0 39.343047,16.020518 3.7886331,13.085321 89.635024 0 0 25.948185,12.40186 3.7886331,13.085321 89.635024 0 0 13.180394,16.354774 3.7886331,13.085321 89.635024 0 0 26.575261,19.973433 Z" />
      <path
         id="path888-9"
         style="fill:#ffffff;fill-opacity:1;fill-rule:evenodd;stroke:none;stroke-width:0.340289;stroke-linecap:square;stroke-linejoin:round;stroke-miterlimit:4;stroke-dasharray:none;stroke-dashoffset:0;stroke-opacity:1"
         d="M 41.625974,11.819618 A 1.707664,4.7196494 81.369774 0 0 45.889087,9.3952503 1.707664,4.7196494 81.369774 0 0 40.838907,8.4861314 1.707664,4.7196494 81.369774 0 0 36.575801,10.9105 1.707664,4.7196494 81.369774 0 0 41.625974,11.819618 Z" />
      <path
         id="path890"
         style="fill:#ffffff;fill-opacity:1;fill-rule:evenodd;stroke:none;stroke-width:0.340761;stroke-linecap:square;stroke-linejoin:round;stroke-miterlimit:4;stroke-dasharray:none;stroke-dashoffset:0;stroke-opacity:1"
         d="m 12.818066,11.517142 a 4.7305459,1.7084642 9.5791563 0 0 4.90455,-0.922268 4.7305459,1.7084642 9.5791563 0 0 -4.42987,-2.4626935 4.7305459,1.7084642 9.5791563 0 0 -4.9045565,0.9222685 4.7305459,1.7084642 9.5791563 0 0 4.4298765,2.462693 z" />
      <path
         id="path892"
         style="fill:#ffffff;fill-opacity:1;fill-rule:evenodd;stroke:none;stroke-width:0.106329;stroke-linecap:square;stroke-linejoin:round;stroke-miterlimit:4;stroke-dasharray:none;stroke-dashoffset:0;stroke-opacity:1"
         d="M 22.149472,6.7242586 A 0.63140637,1.2462853 89.212778 0 0 23.365457,6.0654396 0.63140637,1.2462853 89.212778 0 0 22.089754,5.4623298 0.63140637,1.2462853 89.212778 0 0 20.87377,6.1211487 0.63140637,1.2462853 89.212778 0 0 22.149472,6.7242586 Z" />
      <path
         id="path894"
         style="fill:#ffffff;fill-opacity:1;fill-rule:evenodd;stroke:none;stroke-width:0.106329;stroke-linecap:square;stroke-linejoin:round;stroke-miterlimit:4;stroke-dasharray:none;stroke-dashoffset:0;stroke-opacity:1"
         d="m 32.700621,6.7242586 a 0.63140637,1.2462853 89.212778 0 0 1.215993,-0.658819 0.63140637,1.2462853 89.212778 0 0 -1.275707,-0.6031098 0.63140637,1.2462853 89.212778 0 0 -1.215986,0.6588189 0.63140637,1.2462853 89.212778 0 0 1.2757,0.6031099 z" />
      <path
         id="path898"
         style="fill:#ffffff;fill-opacity:1;fill-rule:evenodd;stroke:none;stroke-width:0.135544;stroke-linecap:square;stroke-linejoin:round;stroke-miterlimit:4;stroke-dasharray:none;stroke-dashoffset:0;stroke-opacity:1"
         d="m 31.268281,4.9838232 a 0.82082173,1.5578631 89.157554 0 0 1.51998,-0.8564646 0.82082173,1.5578631 89.157554 0 0 -1.594627,-0.7840427 0.82082173,1.5578631 89.157554 0 0 -1.519973,0.8564645 0.82082173,1.5578631 89.157554 0 0 1.59462,0.7840428 z" />
      <path
         id="path900"
         style="fill:#ffffff;fill-opacity:1;fill-rule:evenodd;stroke:none;stroke-width:0.135544;stroke-linecap:square;stroke-linejoin:round;stroke-miterlimit:4;stroke-dasharray:none;stroke-dashoffset:0;stroke-opacity:1"
         d="M 17.320898,7.2873175 A 0.82082173,1.5578631 89.157554 0 0 18.840877,6.4308529 0.82082173,1.5578631 89.157554 0 0 17.246251,5.6468102 0.82082173,1.5578631 89.157554 0 0 15.726277,6.5032746 0.82082173,1.5578631 89.157554 0 0 17.320898,7.2873175 Z" />
      <path
         id="path902"
         style="fill:#ffffff;fill-opacity:1;fill-rule:evenodd;stroke:none;stroke-width:0.106329;stroke-linecap:square;stroke-linejoin:round;stroke-miterlimit:4;stroke-dasharray:none;stroke-dashoffset:0;stroke-opacity:1"
         d="M 26.844674,8.3713249 A 0.63140637,1.2462853 89.212778 0 0 28.060661,7.712506 0.63140637,1.2462853 89.212778 0 0 26.784954,7.1093961 0.63140637,1.2462853 89.212778 0 0 25.568973,7.7682151 0.63140637,1.2462853 89.212778 0 0 26.844674,8.3713249 Z" />
      <path
         id="path904"
         style="fill:#ffffff;fill-opacity:1;fill-rule:evenodd;stroke:none;stroke-width:0.106329;stroke-linecap:square;stroke-linejoin:round;stroke-miterlimit:4;stroke-dasharray:none;stroke-dashoffset:0;stroke-opacity:1"
         d="m 36.430327,7.2105829 a 0.63140637,1.2462853 89.212778 0 0 1.215987,-0.6588189 0.63140637,1.2462853 89.212778 0 0 -1.275707,-0.6031098 0.63140637,1.2462853 89.212778 0 0 -1.21598,0.6588189 0.63140637,1.2462853 89.212778 0 0 1.2757,0.6031098 z" />
      <path
         id="path906"
         style="fill:#ffffff;fill-opacity:1;fill-rule:evenodd;stroke:none;stroke-width:0.135544;stroke-linecap:square;stroke-linejoin:round;stroke-miterlimit:4;stroke-dasharray:none;stroke-dashoffset:0;stroke-opacity:1"
         d="M 23.47001,4.8586493 A 0.82082173,1.5578631 89.157554 0 0 24.989985,4.0021847 0.82082173,1.5578631 89.157554 0 0 23.395363,3.2181419 0.82082173,1.5578631 89.157554 0 0 21.875389,4.0746064 0.82082173,1.5578631 89.157554 0 0 23.47001,4.8586493 Z" />
      <path
         id="path910"
         style="fill:#0000ff;fill-opacity:1;fill-rule:evenodd;stroke:none;stroke-width:0.164915;stroke-linecap:square;stroke-linejoin:round;stroke-miterlimit:4;stroke-dasharray:none;stroke-dashoffset:0;stroke-opacity:1"
         d="M 14.081528,11.37851 A 1.3310984,1.4220938 8.8668552 0 0 15.382531,9.897265 1.3310984,1.4220938 8.8668552 0 0 14.017633,8.5412733 1.3310984,1.4220938 8.8668552 0 0 12.71663,10.022518 1.3310984,1.4220938 8.8668552 0 0 14.081528,11.37851 Z" />
      <path
         id="path912"
         style="fill:#00ccff;fill-opacity:1;fill-rule:evenodd;stroke:none;stroke-width:0.680213;stroke-linecap:square;stroke-linejoin:round;stroke-miterlimit:4;stroke-dasharray:none;stroke-dashoffset:0;stroke-opacity:1"
         d="m 26.843907,18.413828 a 2.8414888,11.333481 89.69103 0 0 11.05852,-2.964686 2.8414888,11.333481 89.69103 0 0 -11.601646,-2.713994 2.8414888,11.333481 89.69103 0 0 -11.058508,2.964686 2.8414888,11.333481 89.69103 0 0 11.601634,2.713994 z" />
      <path
         id="path914"
         style="fill:#0000ff;fill-opacity:1;fill-rule:evenodd;stroke:none;stroke-width:0.164977;stroke-linecap:square;stroke-linejoin:round;stroke-miterlimit:4;stroke-dasharray:none;stroke-dashoffset:0;stroke-opacity:1"
         d="m 40.660421,11.628542 a 1.3311227,1.423124 8.7699874 0 0 1.300993,-1.482343 1.3311227,1.423124 8.7699874 0 0 -1.364893,-1.356998 1.3311227,1.423124 8.7699874 0 0 -1.301007,1.482343 1.3311227,1.423124 8.7699874 0 0 1.364907,1.356998 z" />
      <path
         id="path889"
         style="fill:#ffffff;fill-opacity:1;fill-rule:evenodd;stroke:none;stroke-width:0.106329;stroke-linecap:square;stroke-linejoin:round;stroke-miterlimit:4;stroke-dasharray:none;stroke-dashoffset:0;stroke-opacity:1"
         d="m 27.504127,6.0318512 a 0.63140637,1.2462853 89.212778 0 0 1.21598,-0.658819 0.63140637,1.2462853 89.212778 0 0 -1.2757,-0.6031098 0.63140637,1.2462853 89.212778 0 0 -1.215983,0.6588189 0.63140637,1.2462853 89.212778 0 0 1.275703,0.6031099 z" />
    </g>
    <text
       xml:space="preserve"
       style="font-style:normal;font-variant:normal;font-weight:normal;font-stretch:normal;font-size:4.81752px;line-height:100%;font-family:sans-serif;-inkscape-font-specification:'sans-serif, Normal';text-align:start;letter-spacing:0px;word-spacing:0px;writing-mode:lr-tb;text-anchor:start;fill:#000000;fill-opacity:1;stroke:none;stroke-width:0.175182px;stroke-linecap:butt;stroke-linejoin:miter;stroke-opacity:1"
       x="-27.678253"
       y="34.770618"
       id="text2535-1" />
  </g>
</svg>
