<?xml version="1.0" encoding="UTF-8" standalone="no"?>
<svg
   xmlns:dc="http://purl.org/dc/elements/1.1/"
   xmlns:cc="http://creativecommons.org/ns#"
   xmlns:rdf="http://www.w3.org/1999/02/22-rdf-syntax-ns#"
   xmlns:svg="http://www.w3.org/2000/svg"
   xmlns="http://www.w3.org/2000/svg"
   xmlns:sodipodi="http://sodipodi.sourceforge.net/DTD/sodipodi-0.dtd"
   xmlns:inkscape="http://www.inkscape.org/namespaces/inkscape"
   width="144"
   height="72"
   viewBox="0 0 38.1 19.050001"
   version="1.1"
   id="svg8"
   inkscape:version="1.0.1 (c497b03c, 2020-09-10)"
   sodipodi:docname="wiedersehen.svg"
   inkscape:export-filename="/Users/neuneu/TPLAN.png"
   inkscape:export-xdpi="96"
   inkscape:export-ydpi="96">
  <defs
     id="defs2">
    <inkscape:path-effect
       is_visible="true"
       id="path-effect1567"
       effect="spiro"
       lpeversion="0" />
    <inkscape:path-effect
       effect="spiro"
       id="path-effect1547"
       is_visible="true"
       lpeversion="0" />
    <inkscape:path-effect
       is_visible="true"
       id="path-effect1514"
       effect="spiro"
       lpeversion="0" />
    <inkscape:path-effect
       is_visible="true"
       id="path-effect1504"
       effect="spiro"
       lpeversion="0" />
    <inkscape:path-effect
       is_visible="true"
       id="path-effect1500"
       effect="spiro"
       lpeversion="0" />
    <inkscape:path-effect
       is_visible="true"
       id="path-effect1490"
       effect="spiro"
       lpeversion="0" />
    <inkscape:path-effect
       is_visible="true"
       id="path-effect2859"
       effect="spiro"
       lpeversion="0" />
    <inkscape:path-effect
       is_visible="true"
       id="path-effect511"
       effect="spiro"
       lpeversion="0" />
    <inkscape:path-effect
       effect="spiro"
       id="path-effect3077"
       is_visible="true"
       lpeversion="0" />
    <inkscape:path-effect
       is_visible="true"
       id="path-effect3788"
       effect="spiro"
       lpeversion="0" />
    <inkscape:path-effect
       is_visible="true"
       id="path-effect2504"
       effect="spiro"
       lpeversion="0" />
    <inkscape:path-effect
       is_visible="true"
       id="path-effect2215"
       effect="spiro"
       lpeversion="0" />
    <inkscape:path-effect
       is_visible="true"
       id="path-effect2212"
       effect="spiro"
       lpeversion="0" />
    <inkscape:path-effect
       effect="spiro"
       id="path-effect2209"
       is_visible="true"
       lpeversion="0" />
    <inkscape:path-effect
       effect="spiro"
       id="path-effect1170"
       is_visible="true"
       lpeversion="0" />
    <inkscape:path-effect
       is_visible="true"
       id="path-effect1163"
       effect="spiro"
       lpeversion="0" />
    <inkscape:path-effect
       is_visible="true"
       id="path-effect1160"
       effect="spiro"
       lpeversion="0" />
    <inkscape:path-effect
       effect="spiro"
       id="path-effect1157"
       is_visible="true"
       lpeversion="0" />
    <inkscape:path-effect
       is_visible="true"
       id="path-effect1122"
       effect="spiro"
       lpeversion="0" />
    <inkscape:path-effect
       effect="spiro"
       id="path-effect1118"
       is_visible="true"
       lpeversion="0" />
    <inkscape:path-effect
       effect="spiro"
       id="path-effect1114"
       is_visible="true"
       lpeversion="0" />
    <inkscape:path-effect
       effect="spiro"
       id="path-effect817"
       is_visible="true"
       lpeversion="0" />
    <inkscape:path-effect
       is_visible="true"
       id="path-effect1243"
       effect="spiro"
       lpeversion="0" />
    <inkscape:path-effect
       effect="spiro"
       id="path-effect1131"
       is_visible="true"
       lpeversion="0" />
    <inkscape:path-effect
       effect="spiro"
       id="path-effect1032"
       is_visible="true"
       lpeversion="0" />
    <inkscape:path-effect
       is_visible="true"
       id="path-effect1028"
       effect="spiro"
       lpeversion="0" />
    <inkscape:path-effect
       is_visible="true"
       id="path-effect1005"
       effect="spiro"
       lpeversion="0" />
    <inkscape:path-effect
       effect="spiro"
       id="path-effect1147"
       is_visible="true"
       lpeversion="0" />
    <inkscape:path-effect
       is_visible="true"
       id="path-effect1024"
       effect="spiro"
       lpeversion="0" />
    <inkscape:path-effect
       effect="spiro"
       id="path-effect1019"
       is_visible="true"
       lpeversion="0" />
    <inkscape:path-effect
       effect="spiro"
       id="path-effect1015"
       is_visible="true"
       lpeversion="0" />
    <inkscape:path-effect
       is_visible="true"
       id="path-effect1021"
       effect="spiro"
       lpeversion="0" />
    <inkscape:path-effect
       is_visible="true"
       id="path-effect902"
       effect="spiro"
       lpeversion="0" />
  </defs>
  <sodipodi:namedview
     id="base"
     pagecolor="#ffffff"
     bordercolor="#666666"
     borderopacity="1.0"
     inkscape:pageopacity="0.0"
     inkscape:pageshadow="2"
     inkscape:zoom="1.0182703"
     inkscape:cx="329.3757"
     inkscape:cy="146.54749"
     inkscape:document-units="mm"
     inkscape:current-layer="layer1"
     showgrid="false"
     units="px"
     inkscape:window-width="1440"
     inkscape:window-height="847"
     inkscape:window-x="0"
     inkscape:window-y="25"
     inkscape:window-maximized="1"
     showguides="false"
     inkscape:guide-bbox="true"
     inkscape:document-rotation="0" />
  <metadata
     id="metadata5">
    <rdf:RDF>
      <cc:Work
         rdf:about="">
        <dc:format>image/svg+xml</dc:format>
        <dc:type
           rdf:resource="http://purl.org/dc/dcmitype/StillImage" />
        <dc:title></dc:title>
      </cc:Work>
    </rdf:RDF>
  </metadata>
  <g
     inkscape:label="Ebene 1"
     inkscape:groupmode="layer"
     id="layer1"
     transform="translate(0,-2e-5)">
    <text
       xml:space="preserve"
       style="font-style:normal;font-variant:normal;font-weight:normal;font-stretch:normal;font-size:7.27604px;line-height:100%;font-family:sans-serif;-inkscape-font-specification:'sans-serif, Normal';text-align:start;letter-spacing:0px;word-spacing:0px;writing-mode:lr-tb;text-anchor:start;fill:#000000;fill-opacity:1;stroke:none;stroke-width:0.264583px;stroke-linecap:butt;stroke-linejoin:miter;stroke-opacity:1"
       x="19.831398"
       y="48.172077"
       id="text2535" />
    <g
       id="g2186"
       transform="matrix(0.45510674,0,0,0.45510674,-22.492712,-0.71999556)">
      <g
         id="g1037"
         transform="matrix(0.9,0,0,0.9,-7.903497,2.2922352)">
        <g
           id="g889"
           transform="matrix(0.80569092,0.57935515,-0.57935515,0.80569092,45.219911,-72.256061)">
          <path
             id="ellipse1506"
             style="fill:#ccff00;fill-opacity:1;fill-rule:evenodd;stroke:none;stroke-width:2.45009;stroke-linecap:square;stroke-linejoin:round;stroke-miterlimit:4;stroke-dasharray:none;stroke-dashoffset:0;stroke-opacity:1"
             d="M 146.98561,25.135441 A 17.546053,23.8125 0 0 0 129.43955,1.3229398 17.546053,23.8125 0 0 0 111.8935,25.135441 a 17.546053,23.8125 0 0 0 17.54605,23.8125 17.546053,23.8125 0 0 0 17.54606,-23.8125 z" />
          <path
             inkscape:connector-curvature="0"
             style="fill:#008000;fill-opacity:1;fill-rule:evenodd;stroke:none;stroke-width:2.24835;stroke-linecap:square;stroke-linejoin:round;stroke-miterlimit:4;stroke-dasharray:none;stroke-dashoffset:0;stroke-opacity:1"
             d="m 129.43942,1.322941 c -8.54006,0.010402 -17.14956,8.726261 -17.27539,19.135938 L 146.73295,17.98921 C 145.28962,8.3616191 137.98634,1.3232355 129.43942,1.322941 Z"
             id="path1508"
             sodipodi:nodetypes="cccc" />
        </g>
        <g
           id="g907"
           transform="matrix(-0.81025942,-0.66578249,-0.66578249,0.81025942,187.84707,89.33695)"
           style="fill:#aad400;fill-opacity:1">
          <path
             id="path903"
             style="fill:#aad400;fill-opacity:1;fill-rule:evenodd;stroke:none;stroke-width:0.51823;stroke-linecap:square;stroke-linejoin:round;stroke-miterlimit:4;stroke-dasharray:none;stroke-dashoffset:0;stroke-opacity:1"
             d="m 88.881521,-19.199393 a 3.7112526,5.0366998 51.731904 0 0 -1.655898,6.033209 3.7112526,5.0366998 51.731904 0 0 6.252942,-0.205673 3.7112526,5.0366998 51.731904 0 0 1.655899,-6.033207 3.7112526,5.0366998 51.731904 0 0 -6.252943,0.205671 z" />
          <path
             id="path905"
             style="fill:#aad400;fill-opacity:1;fill-rule:evenodd;stroke:none;stroke-width:0.51823;stroke-linecap:square;stroke-linejoin:round;stroke-miterlimit:4;stroke-dasharray:none;stroke-dashoffset:0;stroke-opacity:1"
             d="m 81.836891,-19.199393 a 5.0366998,3.7112526 38.268096 0 1 1.655898,6.033209 5.0366998,3.7112526 38.268096 0 1 -6.252942,-0.205673 5.0366998,3.7112526 38.268096 0 1 -1.655899,-6.033207 5.0366998,3.7112526 38.268096 0 1 6.252943,0.205671 z" />
        </g>
        <path
           id="path975"
           style="fill:#beee00;fill-opacity:1;fill-rule:evenodd;stroke:none;stroke-width:0.475964;stroke-linecap:square;stroke-linejoin:round;stroke-miterlimit:4;stroke-dasharray:none;stroke-dashoffset:0;stroke-opacity:1"
           d="m 127.64767,14.058627 a 4.6259112,3.4085662 77.677718 0 1 -2.34282,5.246762 4.6259112,3.4085662 77.677718 0 1 -4.31724,-3.791923 4.6259112,3.4085662 77.677718 0 1 2.34281,-5.246761 4.6259112,3.4085662 77.677718 0 1 4.31725,3.791922 z" />
        <path
           id="path977"
           style="fill:#beee00;fill-opacity:1;fill-rule:evenodd;stroke:none;stroke-width:0.484922;stroke-linecap:square;stroke-linejoin:round;stroke-miterlimit:4;stroke-dasharray:none;stroke-dashoffset:0;stroke-opacity:1"
           d="m 133.74323,19.294739 a 4.7129769,3.4727199 1.1415256 0 0 -4.78122,3.378121 4.7129769,3.4727199 1.1415256 0 0 4.64286,3.565903 4.7129769,3.4727199 1.1415256 0 0 4.78122,-3.378119 4.7129769,3.4727199 1.1415256 0 0 -4.64286,-3.565905 z" />
      </g>
      <g
         id="g1027"
         transform="matrix(0.89999731,0,0,0.89999731,-8.6561697,2.2489543)">
        <g
           id="g895"
           transform="matrix(-0.85258543,0.50782706,0.50782706,0.85258543,183.42553,-64.635477)">
          <path
             id="path891"
             style="fill:#ccff00;fill-opacity:1;fill-rule:evenodd;stroke:none;stroke-width:2.45009;stroke-linecap:square;stroke-linejoin:round;stroke-miterlimit:4;stroke-dasharray:none;stroke-dashoffset:0;stroke-opacity:1"
             d="M 146.98561,25.135441 A 17.546053,23.8125 0 0 0 129.43955,1.3229398 17.546053,23.8125 0 0 0 111.8935,25.135441 a 17.546053,23.8125 0 0 0 17.54605,23.8125 17.546053,23.8125 0 0 0 17.54606,-23.8125 z" />
          <path
             inkscape:connector-curvature="0"
             style="fill:#008000;fill-opacity:1;fill-rule:evenodd;stroke:none;stroke-width:2.24835;stroke-linecap:square;stroke-linejoin:round;stroke-miterlimit:4;stroke-dasharray:none;stroke-dashoffset:0;stroke-opacity:1"
             d="m 129.43942,1.322941 c -8.54006,0.010402 -17.14956,8.726261 -17.27539,19.135938 L 146.73295,17.98921 C 145.28962,8.3616191 137.98634,1.3232355 129.43942,1.322941 Z"
             id="path893"
             sodipodi:nodetypes="cccc" />
        </g>
        <g
           id="g901"
           transform="matrix(0.95726832,-0.42194601,0.42194601,0.95726832,17.988322,68.49283)"
           style="fill:#aad400;fill-opacity:1">
          <path
             id="path887"
             style="fill:#aad400;fill-opacity:1;fill-rule:evenodd;stroke:none;stroke-width:0.51823;stroke-linecap:square;stroke-linejoin:round;stroke-miterlimit:4;stroke-dasharray:none;stroke-dashoffset:0;stroke-opacity:1"
             d="m 88.881521,-19.199393 a 3.7112526,5.0366998 51.731904 0 0 -1.655898,6.033209 3.7112526,5.0366998 51.731904 0 0 6.252942,-0.205673 3.7112526,5.0366998 51.731904 0 0 1.655899,-6.033207 3.7112526,5.0366998 51.731904 0 0 -6.252943,0.205671 z" />
          <path
             id="path897"
             style="fill:#aad400;fill-opacity:1;fill-rule:evenodd;stroke:none;stroke-width:0.51823;stroke-linecap:square;stroke-linejoin:round;stroke-miterlimit:4;stroke-dasharray:none;stroke-dashoffset:0;stroke-opacity:1"
             d="m 81.836891,-19.199393 a 5.0366998,3.7112526 38.268096 0 1 1.655898,6.033209 5.0366998,3.7112526 38.268096 0 1 -6.252942,-0.205673 5.0366998,3.7112526 38.268096 0 1 -1.655899,-6.033207 5.0366998,3.7112526 38.268096 0 1 6.252943,0.205671 z" />
        </g>
        <path
           id="path963"
           style="fill:#ccff00;fill-opacity:0.6;fill-rule:evenodd;stroke:none;stroke-width:0.472721;stroke-linecap:square;stroke-linejoin:round;stroke-miterlimit:4;stroke-dasharray:none;stroke-dashoffset:0;stroke-opacity:1"
           d="m 89.538297,16.300037 a 4.594388,3.3853386 14.481106 0 1 3.601891,4.426646 4.594388,3.3853386 14.481106 0 1 -5.294963,2.128892 4.594388,3.3853386 14.481106 0 1 -3.601888,-4.426644 4.594388,3.3853386 14.481106 0 1 5.29496,-2.128894 z" />
        <path
           id="path961"
           style="fill:#ccff00;fill-opacity:0.6;fill-rule:evenodd;stroke:none;stroke-width:0.445561;stroke-linecap:square;stroke-linejoin:round;stroke-miterlimit:4;stroke-dasharray:none;stroke-dashoffset:0;stroke-opacity:1"
           d="m 96.306812,12.569607 a 3.1908465,4.3304343 27.944914 0 0 0.789436,5.320794 3.1908465,4.3304343 27.944914 0 0 4.848112,-2.330207 3.1908465,4.3304343 27.944914 0 0 -0.78943,-5.320793 3.1908465,4.3304343 27.944914 0 0 -4.848118,2.330206 z" />
      </g>
    </g>
  </g>
</svg>
