<?xml version="1.0" encoding="UTF-8" standalone="no"?>
<svg
   xmlns:dc="http://purl.org/dc/elements/1.1/"
   xmlns:cc="http://creativecommons.org/ns#"
   xmlns:rdf="http://www.w3.org/1999/02/22-rdf-syntax-ns#"
   xmlns:svg="http://www.w3.org/2000/svg"
   xmlns="http://www.w3.org/2000/svg"
   xmlns:sodipodi="http://sodipodi.sourceforge.net/DTD/sodipodi-0.dtd"
   xmlns:inkscape="http://www.inkscape.org/namespaces/inkscape"
   width="690"
   height="170"
   viewBox="0 0 182.5625 44.979168"
   version="1.1"
   id="svg8"
   inkscape:version="1.0.1 (c497b03c, 2020-09-10)"
   sodipodi:docname="wiedersehen700-200px .svg"
   inkscape:export-filename="/Users/neuneu/TPLAN.png"
   inkscape:export-xdpi="96"
   inkscape:export-ydpi="96">
  <defs
     id="defs2">
    <inkscape:path-effect
       is_visible="true"
       id="path-effect1567"
       effect="spiro"
       lpeversion="0" />
    <inkscape:path-effect
       effect="spiro"
       id="path-effect1547"
       is_visible="true"
       lpeversion="0" />
    <inkscape:path-effect
       is_visible="true"
       id="path-effect1514"
       effect="spiro"
       lpeversion="0" />
    <inkscape:path-effect
       is_visible="true"
       id="path-effect1504"
       effect="spiro"
       lpeversion="0" />
    <inkscape:path-effect
       is_visible="true"
       id="path-effect1500"
       effect="spiro"
       lpeversion="0" />
    <inkscape:path-effect
       is_visible="true"
       id="path-effect1490"
       effect="spiro"
       lpeversion="0" />
    <inkscape:path-effect
       is_visible="true"
       id="path-effect2859"
       effect="spiro"
       lpeversion="0" />
    <inkscape:path-effect
       is_visible="true"
       id="path-effect511"
       effect="spiro"
       lpeversion="0" />
    <inkscape:path-effect
       effect="spiro"
       id="path-effect3077"
       is_visible="true"
       lpeversion="0" />
    <inkscape:path-effect
       is_visible="true"
       id="path-effect3788"
       effect="spiro"
       lpeversion="0" />
    <inkscape:path-effect
       is_visible="true"
       id="path-effect2504"
       effect="spiro"
       lpeversion="0" />
    <inkscape:path-effect
       is_visible="true"
       id="path-effect2215"
       effect="spiro"
       lpeversion="0" />
    <inkscape:path-effect
       is_visible="true"
       id="path-effect2212"
       effect="spiro"
       lpeversion="0" />
    <inkscape:path-effect
       effect="spiro"
       id="path-effect2209"
       is_visible="true"
       lpeversion="0" />
    <inkscape:path-effect
       effect="spiro"
       id="path-effect1170"
       is_visible="true"
       lpeversion="0" />
    <inkscape:path-effect
       is_visible="true"
       id="path-effect1163"
       effect="spiro"
       lpeversion="0" />
    <inkscape:path-effect
       is_visible="true"
       id="path-effect1160"
       effect="spiro"
       lpeversion="0" />
    <inkscape:path-effect
       effect="spiro"
       id="path-effect1157"
       is_visible="true"
       lpeversion="0" />
    <inkscape:path-effect
       is_visible="true"
       id="path-effect1122"
       effect="spiro"
       lpeversion="0" />
    <inkscape:path-effect
       effect="spiro"
       id="path-effect1118"
       is_visible="true"
       lpeversion="0" />
    <inkscape:path-effect
       effect="spiro"
       id="path-effect1114"
       is_visible="true"
       lpeversion="0" />
    <inkscape:path-effect
       effect="spiro"
       id="path-effect817"
       is_visible="true"
       lpeversion="0" />
    <inkscape:path-effect
       is_visible="true"
       id="path-effect1243"
       effect="spiro"
       lpeversion="0" />
    <inkscape:path-effect
       effect="spiro"
       id="path-effect1131"
       is_visible="true"
       lpeversion="0" />
    <inkscape:path-effect
       effect="spiro"
       id="path-effect1032"
       is_visible="true"
       lpeversion="0" />
    <inkscape:path-effect
       is_visible="true"
       id="path-effect1028"
       effect="spiro"
       lpeversion="0" />
    <inkscape:path-effect
       is_visible="true"
       id="path-effect1005"
       effect="spiro"
       lpeversion="0" />
    <inkscape:path-effect
       effect="spiro"
       id="path-effect1147"
       is_visible="true"
       lpeversion="0" />
    <inkscape:path-effect
       is_visible="true"
       id="path-effect1024"
       effect="spiro"
       lpeversion="0" />
    <inkscape:path-effect
       effect="spiro"
       id="path-effect1019"
       is_visible="true"
       lpeversion="0" />
    <inkscape:path-effect
       effect="spiro"
       id="path-effect1015"
       is_visible="true"
       lpeversion="0" />
    <inkscape:path-effect
       is_visible="true"
       id="path-effect1021"
       effect="spiro"
       lpeversion="0" />
    <inkscape:path-effect
       is_visible="true"
       id="path-effect902"
       effect="spiro"
       lpeversion="0" />
  </defs>
  <sodipodi:namedview
     id="base"
     pagecolor="#ffffff"
     bordercolor="#666666"
     borderopacity="1.0"
     inkscape:pageopacity="0.0"
     inkscape:pageshadow="2"
     inkscape:zoom="1.0182703"
     inkscape:cx="341.52462"
     inkscape:cy="156.36807"
     inkscape:document-units="mm"
     inkscape:current-layer="layer1"
     showgrid="false"
     units="px"
     inkscape:window-width="1440"
     inkscape:window-height="847"
     inkscape:window-x="0"
     inkscape:window-y="25"
     inkscape:window-maximized="1"
     showguides="true"
     inkscape:guide-bbox="true"
     inkscape:document-rotation="0" />
  <metadata
     id="metadata5">
    <rdf:RDF>
      <cc:Work
         rdf:about="">
        <dc:format>image/svg+xml</dc:format>
        <dc:type
           rdf:resource="http://purl.org/dc/dcmitype/StillImage" />
        <dc:title></dc:title>
      </cc:Work>
    </rdf:RDF>
  </metadata>
  <g
     inkscape:label="Ebene 1"
     inkscape:groupmode="layer"
     id="layer1"
     transform="translate(0,-2e-5)">
    <text
       xml:space="preserve"
       style="font-style:normal;font-variant:normal;font-weight:normal;font-stretch:normal;font-size:7.27604px;line-height:100%;font-family:sans-serif;-inkscape-font-specification:'sans-serif, Normal';text-align:start;letter-spacing:0px;word-spacing:0px;writing-mode:lr-tb;text-anchor:start;fill:#000000;fill-opacity:1;stroke:none;stroke-width:0.264583px;stroke-linecap:butt;stroke-linejoin:miter;stroke-opacity:1"
       x="19.831398"
       y="48.172077"
       id="text2535" />
    <g
       id="g1000"
       transform="matrix(0.99236599,0,0,0.99236599,1.0041737,-2.5252532)">
      <g
         id="g889"
         transform="rotate(35.719106,131.31682,34.007053)">
        <path
           id="ellipse1506"
           style="fill:#ccff00;fill-opacity:1;fill-rule:evenodd;stroke:none;stroke-width:2.45009;stroke-linecap:square;stroke-linejoin:round;stroke-miterlimit:4;stroke-dasharray:none;stroke-dashoffset:0;stroke-opacity:1"
           d="M 146.98561,25.135441 A 17.546053,23.8125 0 0 0 129.43955,1.3229398 17.546053,23.8125 0 0 0 111.8935,25.135441 a 17.546053,23.8125 0 0 0 17.54605,23.8125 17.546053,23.8125 0 0 0 17.54606,-23.8125 z" />
        <path
           inkscape:connector-curvature="0"
           style="fill:#008000;fill-opacity:1;fill-rule:evenodd;stroke:none;stroke-width:2.24835;stroke-linecap:square;stroke-linejoin:round;stroke-miterlimit:4;stroke-dasharray:none;stroke-dashoffset:0;stroke-opacity:1"
           d="m 129.43942,1.322941 c -8.54006,0.010402 -17.14956,8.726261 -17.27539,19.135938 L 146.73295,17.98921 C 145.28962,8.3616191 137.98634,1.3232355 129.43942,1.322941 Z"
           id="path1508"
           sodipodi:nodetypes="cccc" />
      </g>
      <g
         id="g907"
         transform="matrix(-0.81649253,-0.67090418,-0.67090418,0.81649253,188.28023,92.568875)"
         style="fill:#aad400;fill-opacity:1">
        <path
           id="path903"
           style="fill:#aad400;fill-opacity:1;fill-rule:evenodd;stroke:none;stroke-width:0.51823;stroke-linecap:square;stroke-linejoin:round;stroke-miterlimit:4;stroke-dasharray:none;stroke-dashoffset:0;stroke-opacity:1"
           d="m 88.881521,-19.199393 a 3.7112526,5.0366998 51.731904 0 0 -1.655898,6.033209 3.7112526,5.0366998 51.731904 0 0 6.252942,-0.205673 3.7112526,5.0366998 51.731904 0 0 1.655899,-6.033207 3.7112526,5.0366998 51.731904 0 0 -6.252943,0.205671 z" />
        <path
           id="path905"
           style="fill:#aad400;fill-opacity:1;fill-rule:evenodd;stroke:none;stroke-width:0.51823;stroke-linecap:square;stroke-linejoin:round;stroke-miterlimit:4;stroke-dasharray:none;stroke-dashoffset:0;stroke-opacity:1"
           d="m 81.836891,-19.199393 a 5.0366998,3.7112526 38.268096 0 1 1.655898,6.033209 5.0366998,3.7112526 38.268096 0 1 -6.252942,-0.205673 5.0366998,3.7112526 38.268096 0 1 -1.655899,-6.033207 5.0366998,3.7112526 38.268096 0 1 6.252943,0.205671 z" />
      </g>
      <path
         sodipodi:nodetypes="ccccc"
         inkscape:connector-curvature="0"
         id="path1512"
         d="m 182.28846,34.36109 c -4.35132,3.664695 -9.40959,6.48686 -14.81352,8.264915 -12.60902,4.148744 -26.49481,2.47081 -39.12479,-1.613677 C 115.72017,36.927841 103.97622,30.55631 91.865254,25.122714 81.130246,20.306441 70.004679,16.195666 58.431094,14.076936 46.857509,11.958206 34.782803,11.884434 23.448393,15.041653 14.73921,17.467611 6.5635476,21.78999 -0.34535181,27.621134"
         style="fill:#aad400;fill-opacity:1;fill-rule:evenodd;stroke:none;stroke-width:0.782564;stroke-linecap:square;stroke-linejoin:miter;stroke-miterlimit:4;stroke-dasharray:none;stroke-opacity:1"
         inkscape:original-d="M 182.28846,34.36109 C 43.777361,23.830256 170.69093,40.119019 167.47494,42.626005 164.25893,45.13297 110.0752,30.752986 91.865254,25.122714 -38.516562,-17.864211 64.423113,30.007717 23.448393,15.041653 14.892356,11.809505 2.7997364,22.744846 -0.34535181,27.621134"
         inkscape:path-effect="#path-effect1514" />
      <g
         id="g895"
         transform="matrix(-0.85914415,0.51173364,0.51173364,0.85914415,183.82468,-62.588021)">
        <path
           id="path891"
           style="fill:#ccff00;fill-opacity:1;fill-rule:evenodd;stroke:none;stroke-width:2.45009;stroke-linecap:square;stroke-linejoin:round;stroke-miterlimit:4;stroke-dasharray:none;stroke-dashoffset:0;stroke-opacity:1"
           d="M 146.98561,25.135441 A 17.546053,23.8125 0 0 0 129.43955,1.3229398 17.546053,23.8125 0 0 0 111.8935,25.135441 a 17.546053,23.8125 0 0 0 17.54605,23.8125 17.546053,23.8125 0 0 0 17.54606,-23.8125 z" />
        <path
           inkscape:connector-curvature="0"
           style="fill:#008000;fill-opacity:1;fill-rule:evenodd;stroke:none;stroke-width:2.24835;stroke-linecap:square;stroke-linejoin:round;stroke-miterlimit:4;stroke-dasharray:none;stroke-dashoffset:0;stroke-opacity:1"
           d="m 129.43942,1.322941 c -8.54006,0.010402 -17.14956,8.726261 -17.27539,19.135938 L 146.73295,17.98921 C 145.28962,8.3616191 137.98634,1.3232355 129.43942,1.322941 Z"
           id="path893"
           sodipodi:nodetypes="cccc" />
      </g>
      <g
         id="g901"
         transform="matrix(0.96463233,-0.42519193,0.42519193,0.96463233,17.114803,71.564407)"
         style="fill:#aad400;fill-opacity:1">
        <path
           id="path887"
           style="fill:#aad400;fill-opacity:1;fill-rule:evenodd;stroke:none;stroke-width:0.51823;stroke-linecap:square;stroke-linejoin:round;stroke-miterlimit:4;stroke-dasharray:none;stroke-dashoffset:0;stroke-opacity:1"
           d="m 88.881521,-19.199393 a 3.7112526,5.0366998 51.731904 0 0 -1.655898,6.033209 3.7112526,5.0366998 51.731904 0 0 6.252942,-0.205673 3.7112526,5.0366998 51.731904 0 0 1.655899,-6.033207 3.7112526,5.0366998 51.731904 0 0 -6.252943,0.205671 z" />
        <path
           id="path897"
           style="fill:#aad400;fill-opacity:1;fill-rule:evenodd;stroke:none;stroke-width:0.51823;stroke-linecap:square;stroke-linejoin:round;stroke-miterlimit:4;stroke-dasharray:none;stroke-dashoffset:0;stroke-opacity:1"
           d="m 81.836891,-19.199393 a 5.0366998,3.7112526 38.268096 0 1 1.655898,6.033209 5.0366998,3.7112526 38.268096 0 1 -6.252942,-0.205673 5.0366998,3.7112526 38.268096 0 1 -1.655899,-6.033207 5.0366998,3.7112526 38.268096 0 1 6.252943,0.205671 z" />
      </g>
      <path
         id="path963"
         style="fill:#ccff00;fill-opacity:0.6;fill-rule:evenodd;stroke:none;stroke-width:0.476357;stroke-linecap:square;stroke-linejoin:round;stroke-miterlimit:4;stroke-dasharray:none;stroke-dashoffset:0;stroke-opacity:1"
         d="m 89.215193,18.970108 a 4.6297314,3.4113811 14.481106 0 1 3.629599,4.460699 4.6297314,3.4113811 14.481106 0 1 -5.335695,2.145269 4.6297314,3.4113811 14.481106 0 1 -3.629597,-4.460697 4.6297314,3.4113811 14.481106 0 1 5.335693,-2.145271 z" />
      <path
         id="path961"
         style="fill:#ccff00;fill-opacity:0.6;fill-rule:evenodd;stroke:none;stroke-width:0.448989;stroke-linecap:square;stroke-linejoin:round;stroke-miterlimit:4;stroke-dasharray:none;stroke-dashoffset:0;stroke-opacity:1"
         d="m 96.035776,15.210981 a 3.2153928,4.3637472 27.944914 0 0 0.795509,5.361725 3.2153928,4.3637472 27.944914 0 0 4.885405,-2.348132 3.2153928,4.3637472 27.944914 0 0 -0.7955,-5.361725 3.2153928,4.3637472 27.944914 0 0 -4.885414,2.348132 z" />
      <path
         id="path975"
         style="fill:#beee00;fill-opacity:1;fill-rule:evenodd;stroke:none;stroke-width:0.479625;stroke-linecap:square;stroke-linejoin:round;stroke-miterlimit:4;stroke-dasharray:none;stroke-dashoffset:0;stroke-opacity:1"
         d="m 127.61773,16.711456 a 4.6614971,3.4347874 77.677718 0 1 -2.36084,5.287124 4.6614971,3.4347874 77.677718 0 1 -4.35045,-3.821094 4.6614971,3.4347874 77.677718 0 1 2.36083,-5.287123 4.6614971,3.4347874 77.677718 0 1 4.35046,3.821093 z" />
      <path
         id="path977"
         style="fill:#beee00;fill-opacity:1;fill-rule:evenodd;stroke:none;stroke-width:0.488652;stroke-linecap:square;stroke-linejoin:round;stroke-miterlimit:4;stroke-dasharray:none;stroke-dashoffset:0;stroke-opacity:1"
         d="m 133.76018,21.987848 a 4.7492326,3.4994346 1.1415256 0 0 -4.818,3.404108 4.7492326,3.4994346 1.1415256 0 0 4.67858,3.593334 4.7492326,3.4994346 1.1415256 0 0 4.818,-3.404106 4.7492326,3.4994346 1.1415256 0 0 -4.67858,-3.593336 z" />
    </g>
  </g>
</svg>
